<svg id="Capa_1" enable-background="new 0 0 512 512" height="512" viewBox="0 0 512 512" width="512" xmlns="http://www.w3.org/2000/svg" xmlns:xlink="http://www.w3.org/1999/xlink"><radialGradient id="SVGID_1_" cx="95.491" cy="97.467" gradientTransform="matrix(.97 -.243 .193 .77 -15.93 45.663)" gradientUnits="userSpaceOnUse" r="47.686"><stop offset="0" stop-color="#ffc3ac"/><stop offset=".0071" stop-color="#fdc1ab"/><stop offset=".295" stop-color="#b8837d"/><stop offset=".4295" stop-color="#9d6b6b"/><stop offset=".6999" stop-color="#8b5e5e"/></radialGradient><radialGradient id="SVGID_2_" cx="58.725" cy="98.698" gradientUnits="userSpaceOnUse" r="66.039"><stop offset=".0138" stop-color="#ffd0be"/><stop offset=".2586" stop-color="#eabaac"/><stop offset=".7657" stop-color="#b3827e"/><stop offset=".9552" stop-color="#9d6b6b"/></radialGradient><radialGradient id="SVGID_3_" cx="-7.429" cy="142.77" gradientUnits="userSpaceOnUse" r="88.822"><stop offset="0" stop-color="#ffc3ac"/><stop offset=".255" stop-color="#e9af9d"/><stop offset=".7834" stop-color="#b17d78"/><stop offset=".9552" stop-color="#9d6b6b"/></radialGradient><radialGradient id="SVGID_4_" cx="138.741" cy="221.8" gradientTransform="matrix(.762 -.648 .647 .76 -110.429 143.13)" gradientUnits="userSpaceOnUse" r="109.342"><stop offset="0" stop-color="#664545"/><stop offset=".8745" stop-color="#8b5e5e"/></radialGradient><radialGradient id="SVGID_5_" cx="-711.598" cy="190.723" gradientTransform="matrix(-.762 -.648 -.647 .76 -249.095 -415.514)" gradientUnits="userSpaceOnUse" r="114.801"><stop offset="0" stop-color="#664545"/><stop offset=".2842" stop-color="#765050"/><stop offset=".6853" stop-color="#855a5a"/><stop offset="1" stop-color="#8b5e5e"/></radialGradient><radialGradient id="SVGID_6_" cx="52.45" cy="347.013" gradientTransform="matrix(.948 -.648 .806 .76 -207.902 117.227)" gradientUnits="userSpaceOnUse" r="43.449"><stop offset="0" stop-color="#b78e8e"/><stop offset=".4509" stop-color="#a57b7b"/><stop offset="1" stop-color="#8b5e5e"/></radialGradient><radialGradient id="SVGID_7_" cx="480.527" cy="214.258" gradientTransform="matrix(1 0 0 .927 0 15.684)" gradientUnits="userSpaceOnUse" r="52.179"><stop offset=".0567" stop-color="#664545"/><stop offset=".1868" stop-color="#6f4b4b"/><stop offset=".7124" stop-color="#906262"/><stop offset="1" stop-color="#9d6b6b"/></radialGradient><radialGradient id="SVGID_8_" cx="348.553" cy="305.686" gradientTransform="matrix(1 0 0 .731 0 82.391)" gradientUnits="userSpaceOnUse" r="101.296"><stop offset=".0323" stop-color="#664545"/><stop offset=".8859" stop-color="#8b5e5e"/></radialGradient><radialGradient id="SVGID_9_" cx="193.142" cy="357.07" gradientTransform="matrix(.948 -.648 .806 .76 -174.21 210.837)" gradientUnits="userSpaceOnUse" r="30.762"><stop offset="0" stop-color="#aa8080"/><stop offset=".5919" stop-color="#996d6d"/><stop offset=".9757" stop-color="#8b5e5e"/></radialGradient><radialGradient id="SVGID_10_" cx="272.296" cy="147.26" gradientTransform="matrix(.989 .15 -.099 .652 17.605 10.488)" gradientUnits="userSpaceOnUse" r="285.742"><stop offset="0" stop-color="#aa8080"/><stop offset=".28" stop-color="#a47676"/><stop offset=".4886" stop-color="#9d6b6b"/><stop offset=".7185" stop-color="#8c6060"/><stop offset=".9433" stop-color="#785252"/></radialGradient><radialGradient id="SVGID_11_" cx="233.02" cy="248.756" gradientTransform="matrix(.989 .15 -.098 .647 27.006 52.853)" gradientUnits="userSpaceOnUse" r="190.31"><stop offset="0" stop-color="#ffc3ac"/><stop offset=".0955" stop-color="#e6b1a2"/><stop offset=".2474" stop-color="#b78e8e"/><stop offset=".5038" stop-color="#9d6b6b"/><stop offset=".614" stop-color="#8f6262"/><stop offset=".7495" stop-color="#785252"/></radialGradient><radialGradient id="SVGID_12_" cx="50.484" cy="242.2" gradientTransform="matrix(1 0 0 .889 0 26.791)" gradientUnits="userSpaceOnUse" r="174.011"><stop offset=".1142" stop-color="#523838"/><stop offset=".4283" stop-color="#785252"/><stop offset=".6569" stop-color="#875c5c"/><stop offset=".9122" stop-color="#9d6b6b"/></radialGradient><radialGradient id="SVGID_13_" cx="204.977" cy="221.8" gradientTransform="matrix(.762 -.648 .647 .76 -94.629 186.064)" gradientUnits="userSpaceOnUse" r="109.342"><stop offset="0" stop-color="#664545"/><stop offset=".1647" stop-color="#714d4d"/><stop offset=".8745" stop-color="#9d6b6b"/></radialGradient><linearGradient id="SVGID_14_" gradientUnits="userSpaceOnUse" x1="225.803" x2="225.803" y1="357.671" y2="271.766"><stop offset="0" stop-color="#aa8080"/><stop offset=".4435" stop-color="#9d6b6b"/><stop offset=".8529" stop-color="#916262"/><stop offset="1" stop-color="#8b5e5e"/></linearGradient><radialGradient id="SVGID_15_" cx="-737.074" cy="164.034" gradientTransform="matrix(-.762 -.648 -.647 .76 -260.288 -438.429)" gradientUnits="userSpaceOnUse" r="114.801"><stop offset="0" stop-color="#c3a2a2"/><stop offset=".0857" stop-color="#be9a9a"/><stop offset=".4373" stop-color="#ac8080"/><stop offset=".7529" stop-color="#a17171"/><stop offset="1" stop-color="#9d6b6b"/></radialGradient><radialGradient id="SVGID_16_" cx="105.631" cy="347.013" gradientTransform="matrix(.948 -.648 .806 .76 -192.102 151.699)" gradientUnits="userSpaceOnUse" r="43.449"><stop offset="0" stop-color="#ffd0be"/><stop offset=".2368" stop-color="#ecbdae"/><stop offset=".7153" stop-color="#bc8b86"/><stop offset="1" stop-color="#9d6b6b"/></radialGradient><radialGradient id="SVGID_17_" cx="375.97" cy="227.561" gradientTransform="matrix(.762 -.648 .647 .76 -57.571 298.283)" gradientUnits="userSpaceOnUse" r="153.919"><stop offset=".1141" stop-color="#9d6b6b"/><stop offset=".9677" stop-color="#8b5e5e"/></radialGradient><radialGradient id="SVGID_18_" cx="384.949" cy="235.06" gradientTransform="matrix(.294 -.956 .612 .188 127.841 558.688)" gradientUnits="userSpaceOnUse" r="130.697"><stop offset=".0291" stop-color="#ffd0be"/><stop offset=".0644" stop-color="#f0c1b1"/><stop offset=".1488" stop-color="#d2a298"/><stop offset=".2372" stop-color="#bb8a84"/><stop offset=".3303" stop-color="#aa7876"/><stop offset=".4311" stop-color="#a06e6e"/><stop offset=".5537" stop-color="#9d6b6b"/><stop offset=".7486" stop-color="#a07070"/><stop offset=".9785" stop-color="#a97e7e"/><stop offset="1" stop-color="#aa8080"/></radialGradient><radialGradient id="SVGID_19_" cx="246.323" cy="357.07" gradientTransform="matrix(.948 -.648 .806 .76 -158.41 245.308)" gradientUnits="userSpaceOnUse" r="30.762"><stop offset="0" stop-color="#ffd0be"/><stop offset=".21" stop-color="#ecbdae"/><stop offset=".6343" stop-color="#ba8d85"/><stop offset="1" stop-color="#8b5e5e"/></radialGradient><radialGradient id="SVGID_20_" cx="192.198" cy="190.184" gradientTransform="matrix(.356 -.935 .799 .304 -28.191 311.908)" gradientUnits="userSpaceOnUse" r="100.01"><stop offset=".0679" stop-color="#ffdace"/><stop offset=".1321" stop-color="#f0cac1"/><stop offset=".2861" stop-color="#d1a9a5"/><stop offset=".4146" stop-color="#be9594"/><stop offset=".5012" stop-color="#b78e8e"/><stop offset=".6027" stop-color="#b18686"/><stop offset="1" stop-color="#9d6b6b"/></radialGradient><radialGradient id="SVGID_21_" cx="12.147" cy="163.458" gradientUnits="userSpaceOnUse" r="41.68"><stop offset=".1096" stop-color="#ffd0be"/><stop offset=".1589" stop-color="#f9caba"/><stop offset=".4839" stop-color="#d5aaa2"/><stop offset=".7487" stop-color="#bf9593"/><stop offset=".9188" stop-color="#b78e8e"/></radialGradient><radialGradient id="SVGID_22_" cx="120.944" cy="164.814" gradientTransform="matrix(.887 -.462 .366 .704 -46.694 104.62)" gradientUnits="userSpaceOnUse" r="108.478"><stop offset=".4918" stop-color="#9d6b6b"/><stop offset=".6645" stop-color="#906262"/><stop offset=".8941" stop-color="#785252"/></radialGradient><radialGradient id="SVGID_23_" cx="126.564" cy="97.467" gradientTransform="matrix(.97 -.243 .193 .77 -14.999 53.214)" gradientUnits="userSpaceOnUse" r="47.686"><stop offset="0" stop-color="#ffd0be"/><stop offset=".2767" stop-color="#c59a94"/><stop offset=".4295" stop-color="#aa8080"/><stop offset=".6999" stop-color="#9d6b6b"/></radialGradient><radialGradient id="SVGID_24_" cx="144.725" cy="125.889" gradientTransform="matrix(.815 -.579 .599 .843 -48.692 103.588)" gradientUnits="userSpaceOnUse" r="20.871"><stop offset="0" stop-color="#9d6b6b"/><stop offset=".2816" stop-color="#976767"/><stop offset=".5691" stop-color="#8b5e5e"/><stop offset="1" stop-color="#785252"/></radialGradient><radialGradient id="SVGID_25_" cx="9.902" cy="216.602" gradientTransform="matrix(.762 -.571 .647 .669 -137.797 33.261)" gradientUnits="userSpaceOnUse" r="21.998"><stop offset="0" stop-color="#d0cee7"/><stop offset=".3128" stop-color="#a19dae"/><stop offset=".5922" stop-color="#756e78"/><stop offset="1" stop-color="#665e66"/></radialGradient><radialGradient id="SVGID_26_" cx="373.745" cy="842.355" gradientTransform="matrix(.931 0 0 .112 -75.044 287.611)" gradientUnits="userSpaceOnUse" r="250.801"><stop offset="0" stop-color="#c3a2a2"/><stop offset=".1833" stop-color="#c9abab"/><stop offset=".4787" stop-color="#d8c3c3"/><stop offset=".6461" stop-color="#e2d3d3"/><stop offset=".835" stop-color="#f7f3f3"/><stop offset=".8982" stop-color="#fff"/></radialGradient><g><path d="m119.113 125.473h-24.741v-8.157c0-9.159 7.425-16.584 16.584-16.584 4.505 0 8.157 3.652 8.157 8.157z" fill="url(#SVGID_1_)"/><path d="m121.476 117.291h-41.268c-23.343 0-42.877 16.303-47.84 38.143l74.162 9.391z" fill="url(#SVGID_2_)"/><path d="m1.313 186.004 4.584 8.703c2.31 4.386 6.86 7.132 11.818 7.132h13.433l.367.467c5.632 7.16 14.237 11.341 23.347 11.341h43.638v-47.965l-97.45 10.247c-1.434 3.111-1.449 6.825.263 10.075z" fill="url(#SVGID_3_)"/><path d="m212.636 362.54c0 10.447-8.469 18.916-18.916 18.916h-40.543v-120.323l59.459-10.201z" fill="url(#SVGID_4_)"/><path d="m175.741 164.834c20.623.441 36.895 17.777 36.895 38.405v88.958h-8.706c-36.857 0-66.735-29.878-66.735-66.735v-22.916c0-21.108 17.336-38.165 38.546-37.712z" fill="url(#SVGID_5_)"/><path d="m160.986 351.743h-8.393c-14.164 0-25.647 11.482-25.647 25.647v4.066h63.752c0-16.41-13.302-29.713-29.712-29.713z" fill="url(#SVGID_6_)"/><circle cx="456.455" cy="210.906" fill="url(#SVGID_7_)" r="38.017"/><path d="m412.953 248.252c0-25.955-20.781-47.056-46.612-47.572-26.698-.534-48.552 21.743-48.552 48.446v132.33h27.937c11.457 0 21.355-8.008 23.748-19.212l13.272-62.15c1.039-4.867 4.042-9.051 8.234-11.733 13.213-8.454 21.973-23.258 21.973-40.109z" fill="url(#SVGID_8_)"/><path d="m345.726 381.456c0-11.618-9.418-21.037-21.037-21.037h-5.942c-10.028 0-18.158 8.13-18.158 18.158v2.879z" fill="url(#SVGID_9_)"/><path d="m272.934 129.369c-12.472 0-24.71-4.179-34.137-12.345-5.478-4.745-12.588-7.526-20.178-7.526-5.153 0-10.085 1.282-14.435 3.591-5.522 2.931-11.775 4.201-18.026 4.201h-38.84l-40.261 92.146 37.753 9.447c10.214 4.502 9.745 3.701 20.908 3.701l27.465 6.39 62.817 39.531c38.009 26.785 83.059 40.871 113.561 40.871h54.893c30.786 0 57.115-22.131 62.41-52.457 11.626-66.583-39.617-127.549-107.207-127.549z" fill="url(#SVGID_10_)"/><path d="m222.472 227.555h-16.907c-11.162 0-22.202-2.325-32.416-6.827l-59.556-26.251-6.537 14.96 25.615 11.29c10.214 4.502 21.254 6.827 32.416 6.827h16.907l57.696 40.658c38.009 26.785 83.371 41.163 129.87 41.163h40.478c-46.499 0-91.861-14.378-129.87-41.163z" fill="url(#SVGID_11_)"/><path d="m165.717 117.291h-18.399l-40.261 92.146 25.615 11.29c1.036.457 2.082.89 3.134 1.302 17.087-3.611 29.911-18.777 29.911-36.939z" fill="url(#SVGID_12_)"/><path d="m278.872 362.54c0 10.447-8.469 18.916-18.916 18.916h-40.543v-120.323l59.459-10.201z" fill="url(#SVGID_13_)"/><path d="m219.412 261.133v120.323h12.781v-122.516z" fill="url(#SVGID_14_)"/><path d="m241.977 164.834c20.623.441 36.895 17.777 36.895 38.405v88.958h-8.706c-36.857 0-66.735-29.878-66.735-66.735v-22.916c0-21.108 17.336-38.165 38.546-37.712z" fill="url(#SVGID_15_)"/><path d="m227.222 351.743h-8.393c-14.164 0-25.647 11.482-25.647 25.647v4.066h63.752c.001-16.41-13.302-29.713-29.712-29.713z" fill="url(#SVGID_16_)"/><path d="m479.189 248.252c0-25.955-20.781-47.056-46.612-47.572-26.698-.534-48.552 21.743-48.552 48.446v132.33h27.937c11.457 0 21.355-8.008 23.748-19.212l13.272-62.15c1.039-4.867 4.042-9.051 8.234-11.733 13.213-8.454 21.973-23.258 21.973-40.109z" fill="url(#SVGID_17_)"/><path d="m397.367 249.126c0-24.13 17.845-44.645 40.984-47.981-1.891-.268-3.818-.426-5.774-.465-26.698-.534-48.552 21.743-48.552 48.446v132.33h13.341v-132.33z" fill="url(#SVGID_18_)"/><path d="m411.962 381.456c0-11.618-9.418-21.037-21.037-21.037h-5.942c-10.028 0-18.158 8.13-18.158 18.158v2.879z" fill="url(#SVGID_19_)"/><path d="m216.212 225.461v-22.916c0-18.645 13.528-34.131 31.304-37.177-1.804-.312-3.653-.495-5.539-.535-21.21-.453-38.546 16.604-38.546 37.712v22.916c0 22.748 11.382 42.838 28.762 54.886v-11.553c-9.964-11.659-15.981-26.793-15.981-43.333z" fill="url(#SVGID_20_)"/><path d="m32.368 155.434-26.678 15.41c-2.113 1.22-3.689 3.02-4.641 5.086h97.45l8.031-20.495h-74.162z" fill="url(#SVGID_21_)"/><path d="m115.25 117.291c-23.343 0-42.877 16.303-47.84 38.143l-26.678 15.41c-5.294 3.058-7.227 9.751-4.378 15.161l4.584 8.703c2.31 4.386 6.86 7.132 11.818 7.132h13.433l.367.467c5.631 7.16 14.237 11.34 23.347 11.34h28.859c20.852 0 37.755-16.904 37.755-37.755v-58.6h-41.267z" fill="url(#SVGID_22_)"/><path d="m150.186 125.473h-24.741v-8.157c0-9.159 7.425-16.584 16.584-16.584 4.505 0 8.157 3.652 8.157 8.157z" fill="url(#SVGID_23_)"/><path d="m144.809 125.473h-15.098v-4.257c0-5.988 4.854-10.841 10.841-10.841 2.351 0 4.257 1.906 4.257 4.257z" fill="url(#SVGID_24_)"/><path d="m27.291 181.199c0 2.963-5.836 8.761-9.547 8.761s-9.547-5.799-9.547-8.761 4.274-5.364 9.547-5.364 9.547 2.402 9.547 5.364z" fill="url(#SVGID_25_)"/><path d="m268.668 411.268c134.388 0 243.332-13.347 243.332-29.812h-486.663c0 16.465 108.943 29.812 243.331 29.812z" fill="url(#SVGID_26_)"/></g></svg>