<svg xmlns="http://www.w3.org/2000/svg" viewBox="0 0 650 393"><defs><style>.cls-1{fill:#b25126;}.cls-2{fill:#422011;}.cls-3{fill:#632c14;}.cls-4{fill:#923a20;}.cls-5{fill:#5d331a;}.cls-6{fill:#fcc78c;}.cls-7{fill:#19120b;}.cls-8{fill:#282827;}</style></defs><title>Bear</title><g id="Layer_2" data-name="Layer 2"><g id="Слой_1" data-name="Слой 1"><path class="cls-1" d="M148.5,12.75C70.79,29.57,25.21,140.73,25.21,170.86c0,8.71,11.16,14.74,11.16,14.74S34.61,236.52,44,251.92s24,13.62,90.88-13.85c3.52-1.34-1.47,17.24,2.05,24.61s69.73,55.37,179.55-2c0,0,6.17-19.08,17.32-13.72s55.37,11.33,88.18-20.17c12.82-12.3,48.83-7,78.36-27.39C556.62,160.52,591.2,71,511.94,34.82c-29.35-10-54.09,7.41-78.75,0S397.37,1.55,365.25.19C328.82-1.36,317.34,7,291.74,14.76,250.2,27.34,189.05-.17,148.5,12.75Z"/><path class="cls-2" d="M93.18,223.49s75.64,143.91,83.24,151c8.46,7.85,34.74,10.54,73.1,8.23,29.25-2.09,37.12-12.34,20.37-25.32-11.17-8.66-23.09-4.67-28.33-8.4-10.32-7.34-9.41-16.52-10.13-35.83s18.81-68.77,7.23-107.41S93.18,223.49,93.18,223.49Z"/><path class="cls-2" d="M485,157.5s-32.4,26.28-34.26,47.44,1.85,25.54,9.26,34.3,53.83,35.5,52.78,70.79c-.67,22.65-4.65,52-17,66.25-13.19,15.22-37-22.77-36.26-52.76.33-13.18-17.13-14.94-24.54-17.13s-78.7-11.68-90.74-49.63S437.82,145.83,485,157.5Z"/><path class="cls-3" d="M553.73,89.67l-93-21.83L192.13,161.79s-58.72,93.52-55.2,100.89,69.73,55.37,179.55-2c0,0,6.17-19.08,17.32-13.72s67.53,12.76,100.34-18.73c12.82-12.3,28.66-6.69,60.75-22.78C570.1,167.73,553.73,89.67,553.73,89.67Z"/><path class="cls-4" d="M638.87,133.62s-24.37-24.33-28.43-27c-4.36-2.91-3.64-6.91-2.91-8.36s3.63-6.54,1.45-9.81-6.54-22.17-40.7-46.52-46.88-11.63-53.06-9.45c-.71.25-1.77.49-3.06.79-9.93,2.34-46.7,28.79-18.58,49.08,0,0-32.52,36.63-9.26,68.24,20.33,34.42,60.39,44,105.21,21,6.75-2.11,12.67,4.47,29.72,6,6.17.54,12.45-6.27,12.45-6.27s5.87-7.73,5.66-7.73C636.92,163.54,638.87,133.62,638.87,133.62Z"/><path class="cls-5" d="M545.38,33.16s16-21.08,30.9-12,18.53,36.35,6.9,37.07S545.38,33.16,545.38,33.16Z"/><path class="cls-6" d="M588.81,101.78c-.5,3.29-4.17,5.47-8.18,4.86s-6.88-3.78-6.39-7.07,4.18-5.46,8.2-4.85S589.31,98.49,588.81,101.78Z"/><path class="cls-7" d="M587.59,101.3a4.65,4.65,0,1,1-3.87-5.4A4.71,4.71,0,0,1,587.59,101.3Z"/><path class="cls-4" d="M476,57.61c-20.29-1.58-47.76,2.91-59.48-1.37-21-7.69-40.38-45.14-101.85-22.56-67,24.61-150-20.32-207.46,14.7C43.36,87.29,36.56,150.89,35.53,182.67c0,0,0,.09,0,.13-6.11,21.84-23.2,116.87-23.7,117.45C4.32,309,5,306.09.9,311.93s6.33,51.41,20.85,71.17c10.59,14.41,63.46,8.92,67.76,8.26,10.68-1.62,9.14-18.11-2.31-19.48-15.29-1.83-14.76-23.59-13.84-32.3,1-9.74,44.09-10.76,77.24-74.6,3.94-7.58,10.75-22.46,16.61-37.71,0,0,44.53,20.8,90.63,1.21,6.47,32.41,21.37,90.16,50.33,126.67,21.42,27,11.4,32.69,40,36.13a244.3,244.3,0,0,0,66.65-1.1s23.59-5.1,2.06-22.71c-13.48-11-35.89-5.47-42.05-16.42-4.24-7.56-8.16-53.65,13.06-102.84,33.87-15.19,65.25-46.52,64.87-111.65-.09-16.41,10.37-50.76,41.64-61.52C508.22,70.27,492.09,58.86,476,57.61Z"/><path class="cls-1" d="M641.25,135.88s-26.73-26.58-30.81-29.3c-4.36-2.91-3.64-6.91-2.91-8.36s3.63-6.54,1.45-9.81-6.54-22.17-40.7-46.52-46.88-11.63-53.06-9.45c-.71.25-1.77.49-3.06.79.1,1-10,12.61-8.21,13.74,11.27,7.28,28.87-1.34,51.61,9.46,44.79,21.25,46.22,34.06,42.06,47.94-3.61,12.09,18.27,22.56,23.72,28.38s-5.76,4.46-13.81.91c-9.08-4-27.26-9.76-30.31,1.32-4.51,16.37-10,32.24,3.56,37.73,7.59,3.08,20.65,5.55,35.23,7.12s22.35-16,27.18-24.64C645,152.07,641.25,135.88,641.25,135.88Z"/><path class="cls-4" d="M529.53,59.77S539.39,13.33,499.59,20c-32.23,5.38-26.9,34.31-24.71,40.71,2.68,7.86,11.61,22.81,27.6,22.81S488.36,53.06,529.53,59.77Z"/><path class="cls-5" d="M519.56,63.09s2.14-13.88-1.42-19.93-23.85,0-23.85,10.32S511.73,72,519.56,63.09Z"/><path class="cls-8" d="M650,147.26c0-2.81-3.79-6.71-9.25-11.84a7.29,7.29,0,0,0-3.5.87,20.92,20.92,0,0,0-8.55,8.07c-1.3,2.49-.71,5.09,2.14,7,.73.49,10,7.5,12.84,3.74C645.91,152.15,650,149.08,650,147.26Z"/></g></g></svg>