<svg id="Capa_1" enable-background="new 0 0 512 512" height="512" viewBox="0 0 512 512" width="512" xmlns="http://www.w3.org/2000/svg" xmlns:xlink="http://www.w3.org/1999/xlink"><radialGradient id="SVGID_1_" cx="9.504" cy="162.137" gradientUnits="userSpaceOnUse" r="36.874"><stop offset="0" stop-color="#ffdace"/><stop offset=".0465" stop-color="#f9d4c8"/><stop offset=".298" stop-color="#dbb5aa"/><stop offset=".5446" stop-color="#c5a095"/><stop offset=".782" stop-color="#b89288"/><stop offset="1" stop-color="#b48e84"/></radialGradient><radialGradient id="SVGID_2_" cx="50.334" cy="89.953" gradientTransform="matrix(.947 -.32 .242 .717 -19.143 41.536)" gradientUnits="userSpaceOnUse" r="48.033"><stop offset="0" stop-color="#efc89d"/><stop offset=".1527" stop-color="#ecb78d"/><stop offset=".4397" stop-color="#e69d74"/><stop offset=".61" stop-color="#e4936b"/><stop offset=".7347" stop-color="#e49066"/><stop offset=".8892" stop-color="#e38656"/><stop offset="1" stop-color="#e27d47"/></radialGradient><radialGradient id="SVGID_3_" cx="-7.762" cy="199.79" gradientUnits="userSpaceOnUse" r="50.117"><stop offset="0" stop-color="#ffd0be"/><stop offset=".2316" stop-color="#f0c1b1"/><stop offset=".6783" stop-color="#c79b8f"/><stop offset=".9955" stop-color="#a77d73"/></radialGradient><radialGradient id="SVGID_4_" cx="40.293" cy="99.158" gradientUnits="userSpaceOnUse" r="59.351"><stop offset="0" stop-color="#ffd0be"/><stop offset=".2922" stop-color="#e9bbab"/><stop offset=".898" stop-color="#b1867b"/><stop offset=".9955" stop-color="#a77d73"/></radialGradient><linearGradient id="lg1"><stop offset="0" stop-color="#454045"/><stop offset=".5487" stop-color="#5a535a"/><stop offset="1" stop-color="#665e66"/></linearGradient><radialGradient id="SVGID_5_" cx="-1013.148" cy="397.526" gradientTransform="matrix(-.872 -.403 -.323 .771 -587.716 -317.183)" gradientUnits="userSpaceOnUse" r="20.696" xlink:href="#lg1"/><linearGradient id="lg2"><stop offset="0" stop-color="#cbafaf"/><stop offset=".314" stop-color="#bf9d9d"/><stop offset=".9384" stop-color="#a07070"/><stop offset="1" stop-color="#9d6b6b"/></linearGradient><radialGradient id="SVGID_6_" cx="144.772" cy="388.784" gradientTransform="matrix(-.862 -.506 .312 -.532 148.154 668.931)" gradientUnits="userSpaceOnUse" r="9.601" xlink:href="#lg2"/><linearGradient id="SVGID_7_" gradientUnits="userSpaceOnUse" x1="163.476" x2="177.357" y1="354.415" y2="284.897"><stop offset=".6656" stop-color="#845c52"/><stop offset=".7529" stop-color="#775249"/><stop offset=".8792" stop-color="#6a4840"/><stop offset="1" stop-color="#66453d"/></linearGradient><radialGradient id="SVGID_8_" cx="-1239.584" cy="397.998" gradientTransform="matrix(-.872 -.403 -.323 .771 -569.269 -408.343)" gradientUnits="userSpaceOnUse" r="20.696" xlink:href="#lg1"/><linearGradient id="SVGID_9_" gradientUnits="userSpaceOnUse" x1="379.136" x2="355.08" y1="347.224" y2="316.117"><stop offset=".3301" stop-color="#734d45"/><stop offset=".5717" stop-color="#6e4a42"/><stop offset=".7416" stop-color="#66453d"/></linearGradient><radialGradient id="SVGID_10_" cx="168.19" cy="321.386" gradientTransform="matrix(0 -1 .771 0 -79.617 489.576)" gradientUnits="userSpaceOnUse" r="63.119"><stop offset=".2878" stop-color="#845c52"/><stop offset=".9879" stop-color="#734d45"/></radialGradient><radialGradient id="SVGID_11_" cx="349.923" cy="264.988" gradientTransform="matrix(.5 .866 -1.111 .64 469.461 -207.839)" gradientUnits="userSpaceOnUse" r="58.029"><stop offset=".1364" stop-color="#66453d"/><stop offset=".5152" stop-color="#6f4a42"/><stop offset="1" stop-color="#734d45"/></radialGradient><linearGradient id="SVGID_12_" gradientUnits="userSpaceOnUse" x1="569.683" x2="440.437" y1="144.86" y2="232.004"><stop offset=".0025" stop-color="#98695e"/><stop offset=".5181" stop-color="#96685d"/><stop offset=".7039" stop-color="#8f6358"/><stop offset=".8363" stop-color="#845a50"/><stop offset=".9425" stop-color="#734e45"/><stop offset="1" stop-color="#66453d"/></linearGradient><radialGradient id="SVGID_13_" cx="259.162" cy="134.097" gradientTransform="matrix(.989 .15 -.098 .647 16.063 8.499)" gradientUnits="userSpaceOnUse" r="301.009"><stop offset="0" stop-color="#b48e84"/><stop offset=".3439" stop-color="#ac847a"/><stop offset=".5107" stop-color="#a77d73"/><stop offset=".7349" stop-color="#8e665d"/><stop offset=".9433" stop-color="#734d45"/></radialGradient><radialGradient id="SVGID_14_" cx="113.622" cy="242.572" gradientTransform="matrix(.989 .15 -.098 .647 25.054 68.546)" gradientUnits="userSpaceOnUse" r="160.342"><stop offset=".12" stop-color="#ceb4af"/><stop offset=".4173" stop-color="#a77d73"/><stop offset=".6017" stop-color="#a57b71"/><stop offset=".7047" stop-color="#9d736a"/><stop offset=".7877" stop-color="#8f675d"/><stop offset=".8596" stop-color="#7b554c"/><stop offset=".8831" stop-color="#734d45"/></radialGradient><radialGradient id="SVGID_15_" cx="105.964" cy="188.728" gradientTransform="matrix(.777 -.629 .462 .571 -63.651 147.67)" gradientUnits="userSpaceOnUse" r="71.321"><stop offset="0" stop-color="#845c52"/><stop offset=".4038" stop-color="#997066"/><stop offset=".7494" stop-color="#a77d73"/></radialGradient><radialGradient id="SVGID_16_" cx="93.5" cy="146.41" gradientTransform="matrix(.777 -.629 .462 .571 -46.861 121.668)" gradientUnits="userSpaceOnUse" r="70.189"><stop offset=".4036" stop-color="#a77d73"/><stop offset=".603" stop-color="#a3796f"/><stop offset=".8098" stop-color="#966d63"/><stop offset="1" stop-color="#845c52"/></radialGradient><radialGradient id="SVGID_17_" cx="74.39" cy="89.953" gradientTransform="matrix(.947 -.32 .242 .717 -17.879 49.233)" gradientUnits="userSpaceOnUse" r="48.033"><stop offset="0" stop-color="#ffe2cb"/><stop offset=".3545" stop-color="#ffcdb6"/><stop offset=".61" stop-color="#ffc3ac"/><stop offset=".6977" stop-color="#fdbfa7"/><stop offset=".8066" stop-color="#f6b497"/><stop offset=".9262" stop-color="#eca17e"/><stop offset="1" stop-color="#e4936b"/></radialGradient><linearGradient id="lg3"><stop offset="0" stop-color="#544f57"/><stop offset=".5487" stop-color="#69636c"/><stop offset="1" stop-color="#756e78"/></linearGradient><radialGradient id="SVGID_18_" cx="-1065.104" cy="397.526" gradientTransform="matrix(-.872 -.403 -.323 .771 -583.518 -338.125)" gradientUnits="userSpaceOnUse" r="20.696" xlink:href="#lg3"/><radialGradient id="SVGID_19_" cx="194.258" cy="388.784" gradientTransform="matrix(-.862 -.506 .312 -.532 240.312 693.989)" gradientUnits="userSpaceOnUse" r="9.601" xlink:href="#lg2"/><linearGradient id="SVGID_20_" gradientUnits="userSpaceOnUse" x1="213.714" x2="226.159" y1="349.121" y2="294.102"><stop offset=".3301" stop-color="#98695e"/><stop offset=".5053" stop-color="#92655a"/><stop offset=".7328" stop-color="#825950"/><stop offset=".9882" stop-color="#67463e"/><stop offset="1" stop-color="#66453d"/></linearGradient><linearGradient id="SVGID_21_" gradientUnits="userSpaceOnUse" x1="209.767" x2="209.767" y1="400.303" y2="290.921"><stop offset="0" stop-color="#ffd0be"/><stop offset=".0185" stop-color="#f9cab8"/><stop offset=".1575" stop-color="#cfa091"/><stop offset=".2835" stop-color="#b18275"/><stop offset=".3909" stop-color="#9f7064"/><stop offset=".4671" stop-color="#98695e"/></linearGradient><radialGradient id="SVGID_22_" cx="-1291.54" cy="397.998" gradientTransform="matrix(-.872 -.403 -.323 .771 -565.071 -429.284)" gradientUnits="userSpaceOnUse" r="20.696" xlink:href="#lg3"/><linearGradient id="SVGID_23_" gradientUnits="userSpaceOnUse" x1="435.161" x2="407.655" y1="357.232" y2="307.984"><stop offset=".3301" stop-color="#845c52"/><stop offset=".6366" stop-color="#825a50"/><stop offset=".8154" stop-color="#79544a"/><stop offset=".9609" stop-color="#6b4941"/><stop offset="1" stop-color="#66453d"/></linearGradient><linearGradient id="SVGID_24_" gradientUnits="userSpaceOnUse" x1="425.439" x2="425.439" y1="399.897" y2="297.185"><stop offset="0" stop-color="#ffd0be"/><stop offset=".0398" stop-color="#e9bbab"/><stop offset=".1156" stop-color="#c5998b"/><stop offset=".192" stop-color="#a87e72"/><stop offset=".2681" stop-color="#946b60"/><stop offset=".3438" stop-color="#886056"/><stop offset=".4188" stop-color="#845c52"/><stop offset=".8833" stop-color="#734d45"/></linearGradient><radialGradient id="SVGID_25_" cx="205.868" cy="247.429" gradientTransform="matrix(0 -1 .771 0 15.086 453.297)" gradientUnits="userSpaceOnUse" r="63.119"><stop offset="0" stop-color="#b48e84"/><stop offset=".131" stop-color="#af877d"/><stop offset=".3927" stop-color="#a77d73"/><stop offset=".5627" stop-color="#9e756b"/><stop offset=".8374" stop-color="#865e54"/><stop offset=".8597" stop-color="#845c52"/></radialGradient><linearGradient id="lg4"><stop offset="0" stop-color="#dfdde2"/><stop offset=".2425" stop-color="#cfcbd2"/><stop offset=".7242" stop-color="#a59ea8"/><stop offset="1" stop-color="#8b818e"/></linearGradient><radialGradient id="SVGID_26_" cx="192.359" cy="385.848" gradientTransform="matrix(-.862 -.506 .312 -.532 237.693 688.531)" gradientUnits="userSpaceOnUse" r="19.272" xlink:href="#lg4"/><radialGradient id="SVGID_27_" cx="408.031" cy="386.32" gradientTransform="matrix(-.862 -.506 .312 -.532 639.196 798.46)" gradientUnits="userSpaceOnUse" r="19.272" xlink:href="#lg4"/><radialGradient id="SVGID_28_" cx="351.554" cy="228.32" gradientTransform="matrix(.068 -.998 1.279 .087 35.608 559.149)" gradientUnits="userSpaceOnUse" r="82.926"><stop offset="0" stop-color="#b48e84"/><stop offset=".0723" stop-color="#b18a80"/><stop offset=".363" stop-color="#a77d73"/><stop offset=".5819" stop-color="#a3796f"/><stop offset=".7909" stop-color="#986f65"/><stop offset=".9954" stop-color="#855c52"/><stop offset="1" stop-color="#845c52"/></radialGradient><radialGradient id="SVGID_29_" cx="195.056" cy="263.439" gradientTransform="matrix(.649 -.761 .616 .526 -93.748 273.355)" gradientUnits="userSpaceOnUse" r="58.932"><stop offset=".1103" stop-color="#ffd0be"/><stop offset=".2449" stop-color="#e5b8a8"/><stop offset=".5144" stop-color="#a77d73"/><stop offset="1" stop-color="#734d45"/></radialGradient><radialGradient id="SVGID_30_" cx="333.678" cy="251.839" gradientTransform="matrix(.649 -.761 .616 .526 -37.99 373.279)" gradientUnits="userSpaceOnUse" r="124.04"><stop offset=".1103" stop-color="#ffd0be"/><stop offset=".2765" stop-color="#d7aa9c"/><stop offset=".4434" stop-color="#b4897e"/><stop offset=".5337" stop-color="#a77d73"/><stop offset=".6827" stop-color="#a3796f"/><stop offset=".8412" stop-color="#966d63"/><stop offset=".9824" stop-color="#845c52"/></radialGradient><radialGradient id="SVGID_31_" cx="106.807" cy="138.937" gradientTransform="matrix(0 -1 .735 0 4.729 245.744)" gradientUnits="userSpaceOnUse" r="16.96"><stop offset=".4559" stop-color="#a77d73"/><stop offset=".7301" stop-color="#ab8278"/><stop offset="1" stop-color="#b48e84"/></radialGradient><radialGradient id="SVGID_32_" cx="103.729" cy="126.823" gradientTransform="matrix(-.707 -.707 .906 -.906 62.14 315.106)" gradientUnits="userSpaceOnUse" r="13.719"><stop offset="0" stop-color="#66453d"/><stop offset=".0279" stop-color="#69473f"/><stop offset=".444" stop-color="#8b6055"/><stop offset=".6691" stop-color="#98695e"/></radialGradient><radialGradient id="SVGID_33_" cx="398.503" cy="1653.177" gradientTransform="matrix(.931 0 0 .112 -118.375 214.774)" gradientUnits="userSpaceOnUse" r="263.85"><stop offset="0" stop-color="#ceb4af"/><stop offset=".1849" stop-color="#d8c3bf"/><stop offset=".4962" stop-color="#e7d8d5"/><stop offset=".8982" stop-color="#fff"/></radialGradient><g><path d="m22.144 150.829-19.77 19.77c-1.452 1.452-2.238 3.318-2.358 5.218l85.286 10.866 4.831-46.721z" fill="url(#SVGID_1_)"/><path d="m80.841 114.686c0-3.107-2.519-5.626-5.626-5.626h-8.513c-15.25 0-27.612-12.362-27.612-27.612v1.106 10.146c0 15.25 12.362 27.612 27.612 27.612h8.513c3.107 0 5.626-2.519 5.626-5.626z" fill="url(#SVGID_2_)"/><path d="m2.375 182.067 8.595 8.595c1.725 1.725 4.05 2.648 6.428 2.625h23.925v-4.817l4.382 4.382c3.007 3.007 7.086 4.697 11.338 4.697h24.057l4.202-21.733h-85.286c-.142 2.244.644 4.536 2.359 6.251z" fill="url(#SVGID_3_)"/><path d="m98.665 106.703h-23.343l.003.008c-1.823-.072-3.671.36-5.325 1.315l-28.622 16.525c-3.991 2.304-7.305 5.618-9.609 9.609l-9.624 16.668h67.989z" fill="url(#SVGID_4_)"/><path d="m145.6 399.189h23.31v-13.275h-13.196c-2.017 0-3.865 1.127-4.787 2.921z" fill="url(#SVGID_5_)"/><path d="m150.926 388.835-5.326 10.354" fill="url(#SVGID_6_)"/><path d="m155.714 385.914h18.074c2.352 0 4.258-1.906 4.258-4.258v-67.269c0-12.002-9.729-21.731-21.731-21.731h-.601z" fill="url(#SVGID_7_)"/><path d="m361.271 399.661h23.31v-13.275h-13.196c-2.017 0-3.865 1.127-4.787 2.921z" fill="url(#SVGID_8_)"/><path d="m371.385 386.386h18.074c2.352 0 4.258-1.906 4.258-4.258v-65.233l-22.332-23.767z" fill="url(#SVGID_9_)"/><path d="m155.714 306.407v-48.321c0-9.739 7.895-17.635 17.635-17.635 9.739 0 17.635 7.895 17.635 17.635v13.052c-.001 19.478-15.792 35.269-35.27 35.269z" fill="url(#SVGID_10_)"/><path d="m393.705 243.741v-11.952c0-22.504-18.243-40.746-40.746-40.746-22.503 0-40.746 18.243-40.746 40.746v15.789c0 12.193 5.356 23.134 13.843 30.601l27.304 27.311c7.299 7.301 17.2 11.403 27.524 11.403h12.821l-12.094-20.948c-4.893-8.475-3.752-19.043 2.606-26.482 5.915-6.919 9.488-15.903 9.488-25.722z" fill="url(#SVGID_11_)"/><path d="m380.669 167.046h34.649c26.62 0 48.2 21.58 48.2 48.2v97.142c0 4.548 3.687 8.235 8.235 8.235v-106.733c0-33.461-27.126-60.587-60.587-60.587h-16.754z" fill="url(#SVGID_12_)"/><path d="m394.412 257.93h-33.767l-6.702 6.702c-16.582 16.582-39.274 25.584-62.714 24.879l-62.415-.318c-25.119-.128-44.173-15.431-61.935-33.193l-79.322-69.055 17.341-68.989h34.359c20.704 0 41.043 5.45 58.973 15.802l33.853 19.545h162.328c28.892 0 52.314 23.422 52.314 52.314 0 28.892-23.421 52.313-52.313 52.313z" fill="url(#SVGID_13_)"/><path d="m258.271 289.193c-25.119-.128-49.172-10.163-66.934-27.925l-97.863-97.863-5.917 23.539 74.323 74.323c17.762 17.762 41.815 27.797 66.934 27.925l62.415.318c2.546.077 5.083.039 7.605-.111z" fill="url(#SVGID_14_)"/><path d="m123.021 117.956h-18.122l-17.341 68.989 14.259 14.259c4.758-2.605 8.265-7.282 9.229-12.941z" fill="url(#SVGID_15_)"/><path d="m116.126 117.956-10.972 64.416c-1.493 8.766-9.089 15.177-17.981 15.177h-6.073c-4.253 0-8.331-1.689-11.338-4.697l-5.409-5.409-20.669 5.538c-3.093.829-6.393-.056-8.657-2.32l-8.595-8.595c-3.167-3.167-3.167-8.302 0-11.469l19.77-19.77 9.623-16.668c2.304-3.991 5.618-7.305 9.609-9.609l28.622-16.525c3.576-2.064 8.058-1.686 11.237.949z" fill="url(#SVGID_16_)"/><path d="m104.898 114.686c0-3.107-2.519-5.626-5.626-5.626h-8.513c-15.25 0-27.612-12.362-27.612-27.612v1.106 10.146c0 15.25 12.362 27.612 27.612 27.612h8.513c3.107 0 5.626-2.519 5.626-5.626z" fill="url(#SVGID_17_)"/><path d="m195.085 399.189h23.31v-13.275h-13.195c-2.017 0-3.865 1.127-4.787 2.921z" fill="url(#SVGID_18_)"/><path d="m200.412 388.835-5.327 10.354" fill="url(#SVGID_19_)"/><path d="m205.2 385.914h18.074c2.352 0 4.258-1.906 4.258-4.258v-67.269c0-12.002-9.729-21.731-21.731-21.731h-.601z" fill="url(#SVGID_20_)"/><path d="m214.335 288.437-9.135 5.944v91.533h9.135z" fill="url(#SVGID_21_)"/><path d="m410.757 399.661h23.31v-13.275h-13.196c-2.017 0-3.865 1.127-4.787 2.921z" fill="url(#SVGID_22_)"/><path d="m420.871 386.386h18.074c2.352 0 4.258-1.906 4.258-4.258v-65.233l-22.332-23.767z" fill="url(#SVGID_23_)"/><path d="m430.006 302.849-9.135-7.997v91.534h9.135z" fill="url(#SVGID_24_)"/><path d="m205.2 306.407v-48.321c0-9.739 7.895-17.635 17.635-17.635 9.739 0 17.635 7.895 17.635 17.635v13.052c-.001 19.478-15.792 35.269-35.27 35.269z" fill="url(#SVGID_25_)"/><path d="m212.632 385.914h-7.432c-2.017 0-3.865 1.127-4.787 2.921l-5.327 10.355h7.432l5.327-10.355c.922-1.793 2.77-2.921 4.787-2.921z" fill="url(#SVGID_26_)"/><path d="m428.303 386.386h-7.432c-2.017 0-3.865 1.127-4.787 2.921l-5.327 10.355h7.432l5.327-10.355c.923-1.794 2.77-2.921 4.787-2.921z" fill="url(#SVGID_27_)"/><path d="m443.191 243.741v-11.952c0-22.504-18.243-40.746-40.746-40.746-22.503 0-40.746 18.243-40.746 40.746v15.789c0 12.193 5.356 23.134 13.843 30.601l27.304 27.311c7.299 7.301 17.2 11.403 27.524 11.403h12.821l-12.094-20.948c-4.893-8.475-3.752-19.043 2.606-26.482 5.915-6.919 9.488-15.903 9.488-25.722z" fill="url(#SVGID_28_)"/><path d="m214.626 258.086c0-8.107 5.471-14.936 12.922-16.998-1.5-.415-3.081-.637-4.713-.637-9.739 0-17.635 7.895-17.635 17.635v48.321c3.265 0 6.425-.444 9.426-1.274z" fill="url(#SVGID_29_)"/><path d="m384.966 278.18c-8.487-7.467-13.842-18.409-13.842-30.601v-15.789c0-20.909 15.75-38.14 36.033-40.476-1.546-.178-3.119-.27-4.713-.27-22.504 0-40.746 18.243-40.746 40.746v15.789c0 12.193 5.356 23.134 13.842 30.601l27.305 27.311c7.299 7.301 17.2 11.403 27.525 11.403h9.426c-10.324 0-20.225-4.102-27.525-11.403z" fill="url(#SVGID_30_)"/><path d="m104.914 138.063h-3.113v-8.412c0-5.158 4.181-9.339 9.339-9.339 1.719 0 3.113 1.394 3.113 3.113v5.299c.001 5.158-4.181 9.339-9.339 9.339z" fill="url(#SVGID_31_)"/><path d="m105.457 135.706c-1.178 0-2.133-.955-2.133-2.133v-3.631c0-3.534 2.865-6.399 6.399-6.399 1.178 0 2.133.955 2.133 2.133v3.631c.001 3.534-2.864 6.399-6.399 6.399z" fill="url(#SVGID_32_)"/><path d="m256.008 430.553c141.38 0 255.992-14.042 255.992-31.363h-511.984c0 17.321 114.612 31.363 255.992 31.363z" fill="url(#SVGID_33_)"/></g></svg>