<svg xmlns="http://www.w3.org/2000/svg" viewBox="0 0 650 416.34"><defs><style>.cls-1{fill:#6e1a11;}.cls-2{fill:#231811;}.cls-3{fill:#563f30;}.cls-4{fill:#812e1a;}.cls-5{fill:#b43125;}.cls-6{fill:#3f2d22;}.cls-7{fill:#2b292a;}.cls-8{fill:#f59a1d;}.cls-9{fill:#646567;}.cls-10{fill:#fff;}.cls-11{fill:#4d4b54;}</style></defs><title>Bison</title><g id="Layer_2" data-name="Layer 2"><g id="Слой_1" data-name="Слой 1"><path class="cls-1" d="M206.77,246.41l-17,6.91,12.91,55.9L179,375.15h30.9l35.49-56.65,6.83-23.31C230.33,270.52,208.46,246.3,206.77,246.41Z"/><polygon class="cls-2" points="178.96 375.15 155.98 416.34 200.17 416.34 209.86 375.15 178.96 375.15"/><path class="cls-3" d="M473.57,142.93c-4.52-14.51-11.62-29.62-25.14-36.57-12.5-6.42-27.16-4.3-41.07-.68,8.13,6.75,7,5.6,10.74,9.4,6.39-1.93,13.06-2.39,19.33-.26,10.17,3.45,17.25,12.88,21.38,22.79a70.6,70.6,0,0,1,5.06,34.15c-1,9.73-4,19.53-2.17,29.15,2.21,11.65,11.07,20.78,19.75,28.85A208.13,208.13,0,0,0,473.57,142.93Z"/><path class="cls-1" d="M455,246.41l-17,6.91,12.9,55.9-23.69,65.93h30.91l35.49-56.65,6.82-23.31C478.6,270.52,456.72,246.3,455,246.41Z"/><path class="cls-4" d="M583.1,262.72l18.77-93.05C616,91.49,516.83,85,443.64,83.78,285.17-5,258.13.45,229.56,8.92,195.54,19,190.29,29.7,80.33,132.4l33.42,99.82,111.56,70.93,89.46-31.71,112.52,5.37,67.32-29.27C496.19,247.43,583.1,262.72,583.1,262.72Z"/><polygon class="cls-2" points="427.22 375.15 404.25 416.34 448.44 416.34 458.13 375.15 427.22 375.15"/><path class="cls-5" d="M514.63,246.41l-17,6.91,12.91,55.9-23.7,65.93h30.9l35.5-56.65L560,295.19C538.19,270.52,516.31,246.3,514.63,246.41Z"/><polygon class="cls-2" points="486.81 375.15 463.83 416.34 508.03 416.34 517.71 375.15 486.81 375.15"/><path class="cls-5" d="M603,216.4c0,61.35-31.16,111.08-69.6,111.08s-81.93-48.6-81.93-110S495,105.3,533.44,105.3,603,155,603,216.4Z"/><path class="cls-5" d="M266.36,246.41l-17,6.91,12.9,55.9-23.68,65.93h30.89l35.49-56.65,6.83-23.31C289.92,270.52,268.05,246.3,266.36,246.41Z"/><polygon class="cls-2" points="238.56 375.15 215.57 416.34 259.76 416.34 269.45 375.15 238.56 375.15"/><path class="cls-4" d="M591.11,140.58c51-22.65,54,66.85,49.07,130.37h-7.63s0-121.14-37.78-107.08Z"/><path class="cls-6" d="M640.18,271h-7.63s-8.72,4.37-8.72,21.27H650C650,275.32,640.18,271,640.18,271Z"/><path class="cls-7" d="M65.72,317.65s-17,11.52-5.62,27.64l10.23-13.83v13.83l11.52-13.83,5.76,13.83s22.35-9.92,18.66-35.48Z"/><path class="cls-7" d="M245.08,303.16c-26.76,13.72-41.57-5.46-41.57-5.46-46,5.75-72.13-14.14-72.13-14.14L91.05,325.69c-13.74,6.62-27.74,2.12-38.61-4.45h0a90.82,90.82,0,0,1-20.09-16.67l2-28.05c-19.23-17.61-7.49-44.14-7.49-44.14l51.57-79.45c1.35-13.65-7.46-30.83,28.3-45.25C188.16,117.22,239,216.84,245.08,303.16Z"/><path class="cls-8" d="M13.26,222.28l22.54,2.09c26-34.73,19.1-66.44-18.14-71.41-3-.41-4.64,3.56-2,4.91C34.9,167.7,44.54,191.76,13.26,222.28Z"/><path class="cls-5" d="M354.79,217.53c0,61.35-31.17,111.09-69.62,111.09s-69.6-49.74-69.6-111.09,31.17-111.1,69.6-111.1S354.79,156.18,354.79,217.53Z"/><path class="cls-4" d="M263.36,4.92s-26.27-11.07-61.94,0c0,0,7.15-.19,15.78,8.27,0,0-17.51-2.82-38.24,4.69l16.84,7.9A82.32,82.32,0,0,0,156,39.47s15.55,0,23,10.33c0,0-15.09-6.57-30.11,6.57l14.07,12.21Z"/><path class="cls-9" d="M55.18,318.89a34.76,34.76,0,0,1-2.74,2.34A91.57,91.57,0,0,1,32.31,304.6s12-13.55,27.67-12.41a12.72,12.72,0,0,1,5.1,8.46C65.65,305.11,63.76,311.23,55.18,318.89Z"/><path class="cls-10" d="M86.35,258.91a6,6,0,1,1-6-6A6,6,0,0,1,86.35,258.91Z"/><path class="cls-5" d="M285.18,332.14s6.6,16.2,8,28.17c0,0,10.85-9.31,6.13-32.83l8,16.42s9-5.92,4.5-33.13l10.29,10.47s5.63-2.76,0-29Z"/><path class="cls-5" d="M517.71,344.93s6.6,16.19,8,28.16c0,0,10.85-9.31,6.13-32.83l8,16.42s9-5.92,4.5-33.13L554.6,334s5.62-2.76,0-29Z"/><path class="cls-5" d="M78.39,152.93S20.81,156.4.07,188.65H11.59S-1.08,189.81.07,219.75l13.83-9.22s-18,21.86-3.52,48.38c13.18-4,16.92-19.51,18.48-24.19,0,0,11.56,7.07,15.31,24.19,0,0,15.93-12.5,15.79-32.26l11,17.48S93.36,226.65,94.77,207l13.82,10.94C128,198.93,125.37,152.6,78.39,152.93Z"/><path class="cls-8" d="M86.35,216.22l22.54,2.09c26-34.73,19.1-66.44-18.15-71.41-3-.41-4.63,3.57-2,4.91C108,161.64,117.62,185.7,86.35,216.22Z"/><path class="cls-11" d="M55.18,318.89a10.89,10.89,0,0,1-3.77-8.35c0-5.94,4.4-10.75,9.84-10.75a8.77,8.77,0,0,1,3.83.86C65.65,305.11,63.76,311.23,55.18,318.89Z"/><path class="cls-2" d="M84.58,258.91c0,3.32-1.9,6-4.25,6s-4.25-2.7-4.25-6,1.9-6,4.25-6S84.58,255.58,84.58,258.91Z"/></g></g></svg>