<svg id="Capa_1" enable-background="new 0 0 512 512" height="512" viewBox="0 0 512 512" width="512" xmlns="http://www.w3.org/2000/svg" xmlns:xlink="http://www.w3.org/1999/xlink"><radialGradient id="SVGID_1_" cx="226.674" cy="324.215" gradientTransform="matrix(.703 -.712 .549 .542 -110.473 309.836)" gradientUnits="userSpaceOnUse" r="53.311"><stop offset=".0181" stop-color="#df751c"/><stop offset=".1353" stop-color="#e07a23"/><stop offset=".3075" stop-color="#e28837"/><stop offset=".5125" stop-color="#e69e57"/><stop offset=".5683" stop-color="#e7a561"/></radialGradient><radialGradient id="SVGID_2_" cx="222.904" cy="226.078" gradientTransform="matrix(.703 -.712 .549 .542 -57.755 262.187)" gradientUnits="userSpaceOnUse" r="122.226"><stop offset="0" stop-color="#e28424"/><stop offset=".1703" stop-color="#e38c33"/><stop offset=".4973" stop-color="#e6a15a"/><stop offset=".5464" stop-color="#e7a561"/></radialGradient><linearGradient id="SVGID_3_" gradientUnits="userSpaceOnUse" x1="399.945" x2="370.891" y1="376.442" y2="320.403"><stop offset=".029" stop-color="#e7a561"/><stop offset=".2399" stop-color="#e7a35e"/><stop offset=".3931" stop-color="#e69e55"/><stop offset=".5281" stop-color="#e59645"/><stop offset=".6518" stop-color="#e38a2f"/><stop offset=".6991" stop-color="#e28424"/></linearGradient><radialGradient id="SVGID_4_" cx="379.829" cy="233.114" gradientTransform="matrix(1 0 0 .771 0 53.37)" gradientUnits="userSpaceOnUse" r="111.824"><stop offset=".018" stop-color="#e28424"/><stop offset=".394" stop-color="#e48f38"/><stop offset=".9961" stop-color="#e7a561"/></radialGradient><linearGradient id="SVGID_5_" gradientUnits="userSpaceOnUse" x1="442.701" x2="413.647" y1="391.411" y2="335.372"><stop offset=".029" stop-color="#ecb780"/><stop offset=".2708" stop-color="#ecb67d"/><stop offset=".4186" stop-color="#ebb175"/><stop offset=".541" stop-color="#e9a967"/><stop offset=".6496" stop-color="#e79e52"/><stop offset=".7482" stop-color="#e48f38"/><stop offset=".8081" stop-color="#e28424"/></linearGradient><radialGradient id="SVGID_6_" cx="473.713" cy="193.871" gradientTransform="matrix(-.789 .615 -1.044 -1.34 1049.81 162.568)" gradientUnits="userSpaceOnUse" r="96.819"><stop offset="0" stop-color="#e49542"/><stop offset=".3418" stop-color="#e8a55f"/><stop offset=".6857" stop-color="#ecb780"/></radialGradient><radialGradient id="SVGID_7_" cx="72.37" cy="90.391" gradientTransform="matrix(-1 0 0 -.831 144.741 165.508)" gradientUnits="userSpaceOnUse" r="23.393"><stop offset=".143" stop-color="#efc89d"/><stop offset=".5681" stop-color="#f1cfaa"/><stop offset="1" stop-color="#f4d8bc"/></radialGradient><radialGradient id="SVGID_8_" cx="63.668" cy="62.585" gradientTransform="matrix(-.96 .279 -.24 -.823 139.795 96.332)" gradientUnits="userSpaceOnUse" r="124.065"><stop offset="0" stop-color="#fff9e2"/><stop offset=".0305" stop-color="#fff8e1"/><stop offset=".7197" stop-color="#ffe2cb"/></radialGradient><radialGradient id="SVGID_9_" cx="217.058" cy="109.432" gradientTransform="matrix(-.371 .929 -1.551 -.618 467.147 -24.505)" gradientUnits="userSpaceOnUse" r="205.788"><stop offset="0" stop-color="#ffe2cb"/><stop offset=".1984" stop-color="#f9d5b4"/><stop offset=".563" stop-color="#ecb780"/><stop offset="1" stop-color="#e49542"/></radialGradient><radialGradient id="SVGID_10_" cx="88.081" cy="172.012" gradientTransform="matrix(-.371 .929 -1.279 -.51 340.634 177.916)" gradientUnits="userSpaceOnUse" r="107.492"><stop offset="0" stop-color="#fffbe4"/><stop offset=".0961" stop-color="#fbedd1"/><stop offset=".3054" stop-color="#f2d2ab"/><stop offset=".4161" stop-color="#efc89d"/><stop offset=".4549" stop-color="#eec395"/><stop offset=".616" stop-color="#eab379"/><stop offset=".7562" stop-color="#e8a967"/><stop offset=".8594" stop-color="#e7a561"/></radialGradient><radialGradient id="SVGID_11_" cx="80.222" cy="126.167" gradientTransform="matrix(-.371 .929 -1.21 -.483 262.615 112.547)" gradientUnits="userSpaceOnUse" r="58.66"><stop offset="0" stop-color="#e28424"/><stop offset=".0966" stop-color="#e59441"/><stop offset=".23" stop-color="#e9a763"/><stop offset=".3401" stop-color="#ebb378"/><stop offset=".4126" stop-color="#ecb780"/><stop offset=".5361" stop-color="#eebc89"/><stop offset=".7397" stop-color="#f5cba2"/><stop offset=".9969" stop-color="#ffe2ca"/><stop offset="1" stop-color="#ffe2cb"/></radialGradient><radialGradient id="SVGID_12_" cx="26.647" cy="108.637" gradientTransform="matrix(1 0 0 .837 0 17.717)" gradientUnits="userSpaceOnUse" r="53.078"><stop offset=".013" stop-color="#e7a561"/><stop offset=".0735" stop-color="#e8aa6a"/><stop offset=".2604" stop-color="#ebb781"/><stop offset=".4632" stop-color="#edc191"/><stop offset=".6918" stop-color="#efc69a"/><stop offset="1" stop-color="#efc89d"/></radialGradient><radialGradient id="SVGID_13_" cx="6.61" cy="103.178" gradientTransform="matrix(1 0 0 .627 0 38.474)" gradientUnits="userSpaceOnUse" r="32.117"><stop offset="0" stop-color="#fff9e2"/><stop offset=".2648" stop-color="#ffefd8"/><stop offset=".4954" stop-color="#ffe2cb"/></radialGradient><radialGradient id="SVGID_14_" cx="80.284" cy="108.442" gradientTransform="matrix(-1 0 0 -.535 160.569 166.43)" gradientUnits="userSpaceOnUse" r="68.796"><stop offset=".143" stop-color="#efc89d"/><stop offset=".5262" stop-color="#efc79b"/><stop offset=".6668" stop-color="#eec394"/><stop offset=".7676" stop-color="#ecbc88"/><stop offset=".8487" stop-color="#eab278"/><stop offset=".9181" stop-color="#e7a562"/><stop offset=".9202" stop-color="#e7a561"/></radialGradient><radialGradient id="SVGID_15_" cx="95.528" cy="90.391" gradientTransform="matrix(-1 0 0 -.831 191.057 165.508)" gradientUnits="userSpaceOnUse" r="23.393"><stop offset=".143" stop-color="#efc89d"/><stop offset=".3652" stop-color="#f2d1aa"/><stop offset=".7759" stop-color="#faeacc"/><stop offset="1" stop-color="#fff9e2"/></radialGradient><radialGradient id="SVGID_16_" cx="261.669" cy="324.215" gradientTransform="matrix(.703 -.712 .549 .542 -100.068 334.735)" gradientUnits="userSpaceOnUse" r="53.311"><stop offset=".0181" stop-color="#e28424"/><stop offset=".135" stop-color="#e48c33"/><stop offset=".3593" stop-color="#e8a25a"/><stop offset=".5464" stop-color="#ecb780"/></radialGradient><radialGradient id="SVGID_17_" cx="237.941" cy="224.415" gradientTransform="matrix(.703 -.712 .549 .542 -52.372 272.124)" gradientUnits="userSpaceOnUse" r="122.226"><stop offset="0" stop-color="#f4d8bc"/><stop offset=".173" stop-color="#f2d0ad"/><stop offset=".5055" stop-color="#edba85"/><stop offset=".5464" stop-color="#ecb780"/></radialGradient><radialGradient id="SVGID_18_" cx="180.336" cy="231.393" gradientTransform="matrix(1 0 0 .809 0 44.118)" gradientUnits="userSpaceOnUse" r="147.466"><stop offset=".2681" stop-color="#fff9e2"/><stop offset=".6515" stop-color="#efc89d"/><stop offset=".9297" stop-color="#ecb780"/></radialGradient><radialGradient id="SVGID_19_" cx="395.421" cy="220.363" gradientTransform="matrix(.703 -.712 .549 .542 -3.326 382.316)" gradientUnits="userSpaceOnUse" r="111.824"><stop offset="0" stop-color="#efc89d"/><stop offset=".1958" stop-color="#eec190"/><stop offset=".5145" stop-color="#ecb780"/><stop offset=".9937" stop-color="#e7a561"/></radialGradient><radialGradient id="SVGID_20_" cx="395.105" cy="225.239" gradientTransform="matrix(.649 -.761 .616 .526 -.073 407.375)" gradientUnits="userSpaceOnUse" r="107.66"><stop offset=".1103" stop-color="#fff9e2"/><stop offset=".1932" stop-color="#faeacd"/><stop offset=".3992" stop-color="#efc89d"/><stop offset=".8131" stop-color="#ecb780"/><stop offset=".8862" stop-color="#ebb57d"/><stop offset=".9442" stop-color="#eaaf73"/><stop offset=".9968" stop-color="#e7a662"/><stop offset="1" stop-color="#e7a561"/></radialGradient><radialGradient id="SVGID_21_" cx="296.191" cy="2852.42" gradientTransform="matrix(.931 0 0 .112 11.619 96.922)" gradientUnits="userSpaceOnUse" r="228.53"><stop offset="0" stop-color="#f4d8bc"/><stop offset=".0882" stop-color="#f6dcc2"/><stop offset=".4962" stop-color="#ffead8"/><stop offset=".8982" stop-color="#fff"/></radialGradient><g><path d="m241.144 306.416v97.792l-4.41.724c-4.23.694-7.336 4.35-7.336 8.637v1.783h25.883v-96.05z" fill="url(#SVGID_1_)"/><path d="m242.022 209.123c0-.002 0-.003-.001-.005l-.002-.013c-1.417-12.316-11.879-21.881-24.576-21.881-13.663 0-24.739 11.076-24.739 24.739 0 3.878.892 7.547 2.483 10.813l36.855 83.93c3.974 9.051 13.433 14.404 23.238 13.152z" fill="url(#SVGID_2_)"/><path d="m411.697 331.851-19.273 71.93-7.012 1.151c-4.23.694-7.336 4.35-7.336 8.637v1.783h25.883l19.831-74.01z" fill="url(#SVGID_3_)"/><path d="m384.013 156.456h-10.117v67.77c0 14.443 6.051 28.226 16.683 38.002 5.267 4.843 8.264 11.67 8.264 18.825v35.342c0 13.778 11.169 24.947 24.947 24.947v-145.109c-.001-21.969-17.809-39.777-39.777-39.777z" fill="url(#SVGID_4_)"/><path d="m446.692 331.851-19.273 71.93-7.012 1.151c-4.23.694-7.336 4.35-7.336 8.637v1.783h25.883l19.831-74.01z" fill="url(#SVGID_5_)"/><path d="m469.848 273.211c-6.11 0-11.063-4.953-11.063-11.063v-102.795c6.955 5.104 11.063 13.214 11.063 21.84z" fill="url(#SVGID_6_)"/><path d="m74.354 93.118h-.127c-3.093 0-5.6-2.507-5.6-5.6v-.955c0-6.291 5.1-11.392 11.392-11.392h1.081v11.201c0 3.725-3.02 6.746-6.746 6.746z" fill="url(#SVGID_7_)"/><path d="m87.296 79.74h-18.875c-1.735 0-3.439.457-4.941 1.324l-5.273 3.045h-37.414c-3.625 0-6.975 1.934-8.788 5.074l-7.099 12.296c-.762 1.319.19 2.968 1.713 2.968l74.481 7.936z" fill="url(#SVGID_8_)"/><path d="m308.786 246.889h-55.183c-19.484 0-38.169-7.74-51.946-21.517h-31.771c-10.549 0-44.214-16.818-56.529-38.148l-47.35-72.835 21.29-34.649h6.213c3.778 0 7.27 2.016 9.159 5.288l41.772 72.351c3.973 6.881 11.315 11.12 19.261 11.12 7.198 0 14.1-2.859 19.19-7.949l32.702-32.702c11.815-11.815 27.84-18.453 44.55-18.453h14.934l27.783-27.783c7.766-7.766 18.299-12.129 29.282-12.129 10.983 0 21.516 4.363 29.282 12.129l43.415 43.415 9.861 2.233c31.726 7.185 54.249 35.38 54.249 67.909 0 14.901-12.079 26.98-26.98 26.98h-39.038l-13.161 6.315c-25.276 12.129-52.952 18.425-80.985 18.425z" fill="url(#SVGID_9_)"/><path d="m127.678 190.902-44.175-76.513-7.893-15.631-9.604 15.631 44.175 76.513c12.315 21.33 35.074 34.47 59.705 34.47h17.498c-24.631 0-47.391-13.14-59.706-34.47z" fill="url(#SVGID_10_)"/><path d="m102.668 85.028c-.18-.312-.374-.612-.582-.9-1.261.743-2.737 1.444-4.314 1.444h-6.021c-1.735 0-3.439.457-4.941 1.324l-5.273 3.045h-.508l-15.022 24.447 6.716 11.632 3.471.93c15.127 4.053 29.983-7.346 29.983-23.007v-12.84z" fill="url(#SVGID_11_)"/><path d="m52.863 121.119c2.036.546 4.068.811 6.058.824l17.791.001 4.388-24.39-65.95 13.459z" fill="url(#SVGID_12_)"/><path d="m3.284 104.446c-1.813 0-3.284 1.47-3.284 3.284s1.47 3.284 3.284 3.284h76.17l1.647-6.567h-77.817z" fill="url(#SVGID_13_)"/><path d="m91.939 79.74h-6.021c-1.735 0-3.439.457-4.941 1.324l-5.273 3.045h-37.413c-3.625 0-6.975 1.934-8.788 5.074l-7.099 12.296c-.762 1.319.19 2.968 1.714 2.968h-3.336c-1.813 0-3.284 1.47-3.284 3.284 0 1.813 1.47 3.284 3.284 3.284h11.866l37.713 10.105c15.127 4.053 29.983-7.345 29.983-23.007v-9.968c-.001-4.642-3.764-8.405-8.405-8.405z" fill="url(#SVGID_14_)"/><path d="m97.512 93.118h-.127c-3.093 0-5.6-2.507-5.6-5.6v-.955c0-6.291 5.1-11.392 11.392-11.392h1.082v11.201c-.001 3.725-3.021 6.746-6.747 6.746z" fill="url(#SVGID_15_)"/><path d="m276.139 306.416v97.792l-4.41.724c-4.23.694-7.336 4.35-7.336 8.637v1.783h25.883v-96.05z" fill="url(#SVGID_16_)"/><path d="m277.018 209.123c0-.002 0-.003-.001-.005l-.002-.013c-1.417-12.316-11.879-21.881-24.576-21.881-13.663 0-24.739 11.076-24.739 24.739 0 3.878.892 7.547 2.483 10.813l36.855 83.93c3.974 9.051 13.433 14.404 23.238 13.152z" fill="url(#SVGID_17_)"/><path d="m278.703 306.707-36.855-83.93c-1.59-3.267-2.483-6.936-2.483-10.813 0-11.654 8.058-21.425 18.907-24.047-1.87-.452-3.823-.692-5.832-.692-13.663 0-24.739 11.076-24.739 24.739 0 3.878.892 7.547 2.483 10.813l36.855 83.93c3.974 9.051 13.433 14.404 23.238 13.152l-.208-1.74c-4.957-2.202-9.074-6.192-11.366-11.412z" fill="url(#SVGID_18_)"/><path d="m419.008 156.456h-10.117v67.77c0 14.443 6.051 28.226 16.683 38.002 5.267 4.843 8.264 11.67 8.264 18.825v35.342c0 13.778 11.169 24.947 24.947 24.947v-145.109c0-21.969-17.809-39.777-39.777-39.777z" fill="url(#SVGID_19_)"/><path d="m445.503 316.395v-35.342c0-7.155-2.997-13.982-8.264-18.825-10.632-9.776-16.683-23.559-16.683-38.002v-67.741c-.513-.02-1.029-.03-1.548-.03h-10.117v67.77c0 14.443 6.051 28.226 16.683 38.002 5.267 4.843 8.264 11.67 8.264 18.825v35.342c0 13.778 11.169 24.947 24.947 24.947v-2.89c-7.9-4.186-13.282-12.493-13.282-22.056z" fill="url(#SVGID_20_)"/><path d="m290.276 442.516c122.455 0 221.724-12.162 221.724-27.165h-443.448c0 15.003 99.269 27.165 221.724 27.165z" fill="url(#SVGID_21_)"/></g></svg>