<svg xmlns="http://www.w3.org/2000/svg" viewBox="0 0 650 462.92"><defs><style>.cls-1{fill:#914520;}.cls-2{fill:#f5937a;}.cls-3{fill:#d2803a;}.cls-4{fill:#fff;}.cls-5{fill:#232323;}.cls-6{fill:#5f3815;}</style></defs><title>Cow</title><g id="Layer_2" data-name="Layer 2"><g id="Слой_1" data-name="Слой 1"><path class="cls-1" d="M370.74,403.54c-1.82-18.09-.24-37.89,3.77-51.43s16.56-77.74,16.56-77.74l-43.64,14.55c.5,17.55-6.7,114.06-6,117.36a9.81,9.81,0,0,0,3.42,5.24c-1.93,4.44-3.61,10.24-2.92,12.31,1,3,5,13,23.08,14.55,8.66.72,14.68,1.21,16.47-1.71C372.37,417.78,371.42,410.29,370.74,403.54Z"/><path class="cls-1" d="M44,418.53c-1-8.53-6-44.14,1.5-64.2s30.1-64.7,30.1-64.7S65.56,198.86,52,177.79,15.4,329.26,15.4,329.26c2,17.55,4,70.22,2,78.74-4.41,18.72-6.6,22.35,2.84,25.66-.51,7.13.83,17.77,13.38,20.6,16,3.62,26,.85,27.91-1.62C56.28,446.86,45.48,431.15,44,418.53Z"/><path class="cls-2" d="M63.05,237.48c-12-31.48-21.82-50.66-21.82-50.66-.6-2.12-1.27-4.51-2-7.06-1.42,34.72.12,105.82,32.58,125.53C75.92,288.21,76.77,273.59,63.05,237.48Z"/><path class="cls-3" d="M640.84,106c-4.14-4.51-42.13-52.28-47.79-60.19s-9-18-29.7-22.19c-13.54-2.7-24.8,4.72-33.51,11-5.5-3.82-11.32-9.35-13.39-13.78-3.51-7.53-20.31-5-19.56,6.52.46,7,6.62,13.21,15,16.91-9.72,3.47-47.89,18-59.49,21.07-13.91,3.69-8.16.47-22,2.1,19.62,12.81,39.09,43.17,41.46,75.21-.29,12.81-1.23,28.8-13.41,44-23.11,28.89-73.66-2.89-65-33.23s-8.66-49.11-28.89-37.55S337.08,126,318.3,108.64c-9.27-8.55-7.61-19.92-2.7-30.11-39.93,2.51-50.51,1.13-68.05-1.38-23,15.76,26.82,25.76,14.9,66.65-13.49,46.22-62.6,11.55-68.38,2.88-5.22-7.83-21.45-24.3-29.51,17.4C136.37,138.72,95.66,121.35,39,131.54c-19.24-27.44-6.86,23.06,2.26,55.28,0,0,9.86,19.18,21.82,50.66,14.28,37.57,12.79,51.91,8.27,70s-7.52,11.29-2.25,27.09,25.58,69.21,21.06,90.27c-2.43,11.33,2.92,17.1,10.64,19.77.58,6.58,3.77,14.24,15.35,16.83,19.51,4.36,34.48-1.83,31.71-3.74-5.77-4-19.44-19.54-28.39-39.53-6.33-14.16-16.52-52.76-4.48-93.39,6.5-21.93,12.19-40.3,18.82-54,13.07,7.19,34.06,17.71,48.34,22.05,46,14,132.64,6.8,203.88-12.85,4.1,147.73,1.55-63.32,1.55,67.12,0,9.49-5,73.21,3.43,82.12-.78,7.42-.16,17.44,9.62,20.69,13.54,4.52,26.07,3,31.59,2.51-6.6-18.58-14.16-22.28-17.05-39.12-3-17.41-3-51.66-1-55.67l35.53-81.73c18.05-12,17.85-35.9,23.15-46.19,8.53-16.55,43.88-68.84,51.78-79.75s17.68-12.79,27.46-15,55.68,1.13,59.81,3,3.76,6.4,7.15,7.15,7.9-2.63,9.4-4.13-2.25-3,.38-3,1.5,1.89,15-8.27S645,110.47,640.84,106Z"/><path class="cls-2" d="M182.12,292.83c-2.51-.76-5-1.55-7.22-2.44a366.22,366.22,0,0,1-41.12-19.61c-5.6,11.52-10.5,26.37-15.63,43.31,2.8.33,5.46.61,8.06.85a7.48,7.48,0,0,0-.12,1.17v27.8a8.11,8.11,0,0,0,16.22,0v-27.8c0-.16,0-.31-.05-.46a69.38,69.38,0,0,0,7.57-.59v23.35a7.24,7.24,0,0,0,14.48,0V312.34a6.92,6.92,0,0,0-.32-1.58C170.71,307.26,176.59,301.6,182.12,292.83Z"/><path class="cls-1" d="M70.81,168.83C79.48,170.76,75.63,207.35,92,218s63.55,22.14,70.3-38.53,26-41.4,31.77-32.74S249,190,262.45,143.8c11.92-40.89-37.87-50.89-14.9-66.65C209.37,71.7,161.64,60.64,133,61.94c-33.1,1.51-81.25,15-95.54,30.85-5.11,5.64-7.49,14.2-8,24.65C24,185.92,65.79,167.72,70.81,168.83Z"/><path class="cls-2" d="M642.34,117.87c0,2.49-2.69,4.51-6,4.51s-6-2-6-4.51,2.7-4.52,6-4.52S642.34,115.37,642.34,117.87Z"/><path class="cls-4" d="M587.55,67.93S580.63,55,568.79,64.8C569.72,70.84,581.72,74,587.55,67.93Z"/><path class="cls-5" d="M573.57,67.52a4.81,4.81,0,1,0,3.29-6A4.8,4.8,0,0,0,573.57,67.52Z"/><path class="cls-4" d="M572.78,64.78a2,2,0,1,0,1.34-2.43A2,2,0,0,0,572.78,64.78Z"/><path class="cls-2" d="M529.3,37.9c-3.42,0-12.69-6.73-15-11.42s-13.17-3.13-12.68,4.07,10.89,13,21.3,12.83C534,43.22,529.3,37.9,529.3,37.9Z"/><path class="cls-6" d="M554.41,34.28c-2.45-2.72-16.27-19.82-.54-27.79s32.15-1.36,36.5-.82,11.72-.27,16.35-4.08,4.32-.48-2,7.15-22.87,6.53-26.7,6.53c-3.05,0-23.51,2.61-5.67,12.74C567.65,38.9,554.41,34.28,554.41,34.28Z"/><path class="cls-3" d="M51.43,73.26c-25.58,12-35,39.84-35,56.39s6.76,76,2.25,94.79c-2.24,9.33-6.33,30.14-9.51,50.57,1.55,7.62,3.38,14.72,7.76,15.89,5.94,1.59,8.43-11.81,10.45-20-.52-7.43,2.7-17.6,8.1-36.19C48.18,191,34.16,135,39,116.36c4.87-18.91,15.34-44.19,72.76-51.77A104.51,104.51,0,0,0,51.43,73.26Z"/><path class="cls-6" d="M16.91,290.9c-4.38-1.17-6.21-8.27-7.76-15.89-9.6,22.38-10.56,38.75-7.8,49.17C4.21,335,7,334,7,351.32c12.13-4.16,32-25.28,27.45-46.95-2.4-11.35-6.29-22.12-7.1-33.46C25.34,279.09,22.85,292.49,16.91,290.9Z"/><path class="cls-1" d="M430.36,67.42c-17.45,2-70.87,8.35-114.76,11.11-4.91,10.19-6.57,21.56,2.7,30.11,18.78,17.34,26,18.78,46.22,7.23s37.56,7.22,28.89,37.55,41.89,62.12,65,33.23c12.18-15.22,13.12-31.2,13.41-44C469.46,110.6,450,80.23,430.36,67.42Z"/><path class="cls-1" d="M252.32,200.52c1.72,8.26-7.45,17.15-20.47,19.86s-25-1.8-26.68-10,7.44-17.15,20.46-19.86S250.6,192.26,252.32,200.52Z"/></g></g></svg>