<svg xmlns="http://www.w3.org/2000/svg" viewBox="0 0 529.97 621"><defs><style>.cls-1{fill:#564f47;}.cls-2{fill:#7e7469;}.cls-3{fill:#2d2b29;}.cls-4{fill:#574f47;}.cls-5{fill:#ed2d24;}.cls-6{fill:#fcb417;}.cls-7{fill:#ed488e;}.cls-8{fill:#2e9145;}.cls-9{fill:#f05a2a;}.cls-10{fill:#9e958b;}</style></defs><title>Donkey</title><g id="Layer_2" data-name="Layer 2"><g id="Слой_1" data-name="Слой 1"><path class="cls-1" d="M58,8.44S24.91,38.65,74.43,132.15l47.7-8.92S112.68,36.92,58,8.44Z"/><path class="cls-2" d="M118.06,0S80,23.61,111.49,124.62H160S166.6,38,118.06,0Z"/><path class="cls-1" d="M413.22,329.34s19.14,56.09,58.49,74.46c0,0,0,54.74,23.9,77.1-5.3,21.85-9.6,36.51-14.53,59.56h-56.4s8.21-27.55,13.46-56.41c8.21-45.11-47.3-18.47-75.14-108Z"/><path class="cls-1" d="M116.75,348.94s-9.18,47.22-18.37,73.46C98.38,422.4,40,504,63,540.46h56.4s-4.39-4-3.08-34.12S143.45,421,171,389.15Z"/><path class="cls-2" d="M423.72,308.92c-2.64,46.58-40.67,63.63-40.67,63.63-14.43,23.62,12.47,67,12.47,67s8.35,26.69-10.71,49.06c-12.14,14.27-9.69,51.83-9.69,51.83H318.73C321.34,506.36,345,467,345,467l-26-63.19c-18.29,5-59.65,6.08-88.1-3.86L244,485.38c21,24.91,11.84,55.07,11.84,55.07H199.42c-2.33-33.26,15.25-34.44-22.69-90.39l-10.34-56.28c-92.89-31.2-86.45-99.83-61.45-138A76,76,0,0,1,82.64,261C73.1,288.92,28.47,288,30.18,245.31c0-14,6.85-33.23,17-44.6-1.59-27.37,1.15-60.93,20.08-80.93,14.56-15.36,46.07-22.91,75.35-10.48,13,5.49,25,14.7,30.49,20.57C209,241.27,201.73,218.65,209.88,244c99.94-15.34,173.25,8.75,200.72,30.19l32.78-2.64C446,295.16,423.72,308.92,423.72,308.92Z"/><rect class="cls-1" y="568.02" width="529.97" height="52.98" rx="15.74" ry="15.74"/><path class="cls-3" d="M63,540.46S54.6,549.52,54.6,568h67.85s2.31-14.26-3.09-27.56Z"/><path class="cls-3" d="M199.43,540.46s-8.36,9.06-8.36,27.56h67.85s2.31-14.26-3.09-27.56Z"/><path class="cls-3" d="M318.73,540.46s-8.37,9.06-8.37,27.56h67.85s2.31-14.26-3.08-27.56Z"/><path class="cls-3" d="M424.68,540.46s-8.36,9.06-8.36,27.56h67.85s2.31-14.26-3.09-27.56Z"/><path class="cls-4" d="M220.17,224.93v23.13H107.71C93.87,237.89,72.42,227.91,33.6,225.7A70,70,0,0,1,45,203.42c23.78,2.45,50.1,8.54,70.1,21.51Z"/><path class="cls-4" d="M162.74,120.89C149.05,148.05,111,230.62,109.56,233.81l-21.09-9.46c0-.11,48.94-104.64,54.19-115A98.76,98.76,0,0,1,162.74,120.89Z"/><path class="cls-4" d="M134.06,152.19l-9,21.3c-3.52-1.5-56.7-27.06-70.09-34.07a63.43,63.43,0,0,1,12.38-19.64C80.83,126.86,130.82,150.8,134.06,152.19Z"/><path class="cls-3" d="M107.13,176.08A7.13,7.13,0,1,1,100,169,7.13,7.13,0,0,1,107.13,176.08Z"/><circle class="cls-3" cx="55.07" cy="257.9" r="7.13"/><path class="cls-5" d="M187.82,146.49l10.7,11.3,4.95-16.13,7.21,15.25,9-12.73a31.29,31.29,0,0,1,6,16.58c1.06,14.65-7.35,27.23-18.75,28.06s-21.54-10.41-22.61-25.06a31.17,31.17,0,0,1,3.54-17.27Z"/><path class="cls-6" d="M212.79,132.57l11.46,12.1,5.29-17.27,7.73,16.32,9.59-13.62a33.49,33.49,0,0,1,6.41,17.75c1.14,15.67-7.86,29.14-20.07,30s-23.06-11.14-24.2-26.82a33.47,33.47,0,0,1,3.79-18.49Z"/><path class="cls-7" d="M246,155.23l10.71,11.3,4.94-16.13,7.22,15.25,9-12.73a31.29,31.29,0,0,1,6,16.58c1.06,14.65-7.35,27.23-18.75,28.06s-21.54-10.41-22.6-25.05A31.18,31.18,0,0,1,246,155.23Z"/><path class="cls-5" d="M257,132.23l10.71,11.3,4.94-16.13,7.22,15.24,9-12.72a31.13,31.13,0,0,1,6,16.58c1.07,14.64-7.34,27.23-18.74,28.06s-21.55-10.41-22.61-25.06A31.25,31.25,0,0,1,257,132.23Z"/><path class="cls-6" d="M281.77,114.72l11.46,12.1,5.29-17.27,7.73,16.32,9.58-13.62A33.44,33.44,0,0,1,322.25,130c1.14,15.67-7.86,29.14-20.07,30s-23.06-11.14-24.2-26.82a33.47,33.47,0,0,1,3.79-18.49Z"/><path class="cls-8" d="M293.79,158.58a8.27,8.27,0,0,0,16.49-1.2Z"/><path class="cls-7" d="M283,143.05l10.71,11.3,4.94-16.14,7.22,15.25,9-12.72a31.13,31.13,0,0,1,6,16.58c1.07,14.64-7.34,27.22-18.75,28.05s-21.54-10.4-22.6-25.05A31.25,31.25,0,0,1,283,143.05Z"/><path class="cls-9" d="M313.15,130.31l11.46,12.09,5.29-17.27,7.73,16.33,9.58-13.63a33.47,33.47,0,0,1,6.42,17.75c1.14,15.68-7.86,29.15-20.07,30s-23.06-11.14-24.2-26.81a33.45,33.45,0,0,1,3.79-18.49Z"/><path class="cls-6" d="M344.59,149.35l10.71,11.3,4.93-16.13,7.22,15.25,9-12.73a31.29,31.29,0,0,1,6,16.58c1.06,14.65-7.35,27.23-18.75,28.06s-21.54-10.41-22.61-25.06a31.26,31.26,0,0,1,3.54-17.27Z"/><path class="cls-10" d="M384.65,188.88a353.42,353.42,0,0,1-.7,35.72,295.85,295.85,0,0,1-7.2,48,225.1,225.1,0,0,1-11.93,36.54,180.67,180.67,0,0,1-14,26.52l-117.49,8.53A178.73,178.73,0,0,1,215.56,320a225.89,225.89,0,0,1-17.09-34.43,297.64,297.64,0,0,1-14.06-46.43,352.59,352.59,0,0,1-5.84-35.25c-1.77-15.5-1.83-25.35-1.83-25.35l206.05-15S384.15,173.27,384.65,188.88Z"/><path class="cls-1" d="M389.93,188.49a353.33,353.33,0,0,1-.7,35.72L179.14,239.47a352.46,352.46,0,0,1-5.85-35.25Z"/><path class="cls-1" d="M382,272.19a225.42,225.42,0,0,1-11.93,36.54l-159.82,11.6a225.89,225.89,0,0,1-17.09-34.43Z"/></g></g></svg>