<svg id="Capa_1" enable-background="new 0 0 512 512" height="512" viewBox="0 0 512 512" width="512" xmlns="http://www.w3.org/2000/svg" xmlns:xlink="http://www.w3.org/1999/xlink"><radialGradient id="SVGID_1_" cx="435.004" cy="-57.494" gradientTransform="matrix(.3 -.581 .303 .171 316.011 500.748)" gradientUnits="userSpaceOnUse" r="213.879"><stop offset=".5134" stop-color="#664545"/><stop offset=".5569" stop-color="#6e4a4a"/><stop offset=".6821" stop-color="#7e5555"/><stop offset=".821" stop-color="#885c5c"/><stop offset="1" stop-color="#8b5e5e"/></radialGradient><linearGradient id="SVGID_2_" gradientUnits="userSpaceOnUse" x1="158.125" x2="241.446" y1="372.414" y2="322.08"><stop offset=".1538" stop-color="#8b5e5e"/><stop offset=".36" stop-color="#855a5a"/><stop offset=".6395" stop-color="#744e4e"/><stop offset=".8045" stop-color="#664545"/></linearGradient><radialGradient id="SVGID_3_" cx="-855.816" cy="239.823" gradientTransform="matrix(.602 .798 -.435 .329 800.156 844.132)" gradientUnits="userSpaceOnUse" r="132.24"><stop offset=".2594" stop-color="#664545"/><stop offset=".485" stop-color="#775151"/><stop offset=".7667" stop-color="#865b5b"/><stop offset="1" stop-color="#8b5e5e"/></radialGradient><radialGradient id="SVGID_4_" cx="306.093" cy="266.034" gradientTransform="matrix(.948 .318 -.174 .517 62.048 31.105)" gradientUnits="userSpaceOnUse" r="175.792"><stop offset=".357" stop-color="#664545"/><stop offset=".4256" stop-color="#704c4c"/><stop offset=".5747" stop-color="#7f5656"/><stop offset=".7479" stop-color="#885c5c"/><stop offset="1" stop-color="#8b5e5e"/></radialGradient><radialGradient id="SVGID_5_" cx="90.667" cy="205.18" gradientTransform="matrix(.745 -.667 .282 .315 -77.361 196.116)" gradientUnits="userSpaceOnUse" r="78.138"><stop offset=".1597" stop-color="#dfdde2"/><stop offset=".3458" stop-color="#cac5cd"/><stop offset=".64" stop-color="#ada4b0"/><stop offset=".8017" stop-color="#a298a5"/></radialGradient><radialGradient id="SVGID_6_" cx="237.48" cy="137.327" gradientTransform="matrix(.963 .269 -.198 .707 35.948 -23.776)" gradientUnits="userSpaceOnUse" r="260.985"><stop offset="0" stop-color="#aa8080"/><stop offset=".5374" stop-color="#9d6b6b"/><stop offset=".9901" stop-color="#785252"/></radialGradient><radialGradient id="SVGID_7_" cx="189.211" cy="228.616" gradientTransform="matrix(.616 .788 -.531 .415 193.996 -15.312)" gradientUnits="userSpaceOnUse" r="165.975"><stop offset=".079" stop-color="#9d6b6b"/><stop offset=".1888" stop-color="#8c5f5f"/><stop offset=".3406" stop-color="#785252"/></radialGradient><radialGradient id="SVGID_8_" cx="221.037" cy="129.69" gradientTransform="matrix(.899 .438 -.288 .591 59.707 -43.813)" gradientUnits="userSpaceOnUse" r="153.098"><stop offset=".1818" stop-color="#b78e8e"/><stop offset=".2984" stop-color="#a97b7b"/><stop offset=".4221" stop-color="#a06f6f"/><stop offset=".544" stop-color="#9d6b6b"/><stop offset=".7718" stop-color="#916262"/><stop offset="1" stop-color="#8b5e5e"/></radialGradient><linearGradient id="SVGID_9_" gradientUnits="userSpaceOnUse" x1="229.987" x2="313.308" y1="372.414" y2="322.08"><stop offset="0" stop-color="#9d6b6b"/><stop offset=".3226" stop-color="#996868"/><stop offset=".6652" stop-color="#8c5f5f"/><stop offset="1" stop-color="#785252"/></linearGradient><linearGradient id="SVGID_10_" gradientUnits="userSpaceOnUse" x1="221.523" x2="221.523" y1="430.882" y2="295.979"><stop offset="0" stop-color="#b78e8e"/><stop offset=".1851" stop-color="#ad8080"/><stop offset=".4823" stop-color="#a17171"/><stop offset=".7151" stop-color="#9d6b6b"/></linearGradient><linearGradient id="lg1"><stop offset="0" stop-color="#b78e8e"/><stop offset=".2595" stop-color="#ad8080"/><stop offset=".6745" stop-color="#a17171"/><stop offset="1" stop-color="#9d6b6b"/></linearGradient><radialGradient id="SVGID_11_" cx="-824.281" cy="188.497" gradientTransform="matrix(.762 -.648 .647 .76 717.428 -489.089)" gradientUnits="userSpaceOnUse" r="132.24" xlink:href="#lg1"/><radialGradient id="SVGID_12_" cx="214.615" cy="267.282" gradientTransform="matrix(-.921 -.389 .702 -1.664 224.774 795.486)" gradientUnits="userSpaceOnUse" r="69.394"><stop offset="0" stop-color="#ffdace"/><stop offset=".1341" stop-color="#dab3ac"/><stop offset=".2786" stop-color="#b78e8c"/><stop offset=".3555" stop-color="#aa8080"/><stop offset=".5402" stop-color="#a27272"/><stop offset=".7151" stop-color="#9d6b6b"/></radialGradient><radialGradient id="SVGID_13_" cx="213.675" cy="186.502" gradientTransform="matrix(.762 -.648 .647 .76 -69.714 183.236)" gradientUnits="userSpaceOnUse" r="56.282" xlink:href="#lg1"/><radialGradient id="SVGID_14_" cx="254.625" cy="62.072" gradientTransform="matrix(0 1 .571 0 51.672 -192.553)" gradientUnits="userSpaceOnUse" r="139.883"><stop offset="0" stop-color="#ffd0be"/><stop offset=".2755" stop-color="#d7aaa1"/><stop offset=".6064" stop-color="#aa8080"/><stop offset=".757" stop-color="#a47676"/><stop offset="1" stop-color="#9d6b6b"/></radialGradient><radialGradient id="SVGID_15_" cx="36.212" cy="207.603" gradientTransform="matrix(.258 .966 -.638 .17 159.306 137.257)" gradientUnits="userSpaceOnUse" r="233.01"><stop offset="0" stop-color="#b78e8e"/><stop offset=".6574" stop-color="#a77878"/><stop offset=".9955" stop-color="#9d6b6b"/></radialGradient><radialGradient id="SVGID_16_" cx="60.212" cy="62.288" gradientTransform="matrix(.707 -.707 .553 .553 -16.828 70.401)" gradientUnits="userSpaceOnUse" r="90.64"><stop offset=".1096" stop-color="#ffdace"/><stop offset=".2299" stop-color="#f0ccc3"/><stop offset=".6064" stop-color="#c3a2a2"/><stop offset=".7475" stop-color="#be9999"/><stop offset="1" stop-color="#b78e8e"/></radialGradient><radialGradient id="SVGID_17_" cx="272.703" cy="224.032" gradientTransform="matrix(.342 -.94 .56 .204 53.895 434.608)" gradientUnits="userSpaceOnUse" r="393.89"><stop offset=".4565" stop-color="#9d6b6b"/><stop offset=".9879" stop-color="#8b5e5e"/></radialGradient><radialGradient id="SVGID_18_" cx="111.928" cy="61.579" gradientTransform="matrix(.692 .318 -.19 .776 77.895 -21.865)" gradientUnits="userSpaceOnUse" r="239.658"><stop offset="0" stop-color="#ffc3ac"/><stop offset=".1167" stop-color="#e0ab9c"/><stop offset=".2556" stop-color="#c3938d"/><stop offset=".3751" stop-color="#b08583"/><stop offset=".4604" stop-color="#aa8080"/><stop offset=".6669" stop-color="#a47676"/><stop offset="1" stop-color="#9d6b6b"/></radialGradient><radialGradient id="SVGID_19_" cx="154.39" cy="209.607" gradientTransform="matrix(.745 -.667 .282 .315 -62.191 237.246)" gradientUnits="userSpaceOnUse" r="78.138"><stop offset=".1597" stop-color="#fff"/><stop offset=".305" stop-color="#efeef0"/><stop offset=".6255" stop-color="#d1cdd3"/><stop offset=".8017" stop-color="#c6c1c8"/></radialGradient><radialGradient id="SVGID_20_" cx="282.856" cy="360.275" gradientTransform="matrix(.978 -.209 .318 1.492 -108.356 -118.077)" gradientUnits="userSpaceOnUse" r="246.012"><stop offset="0" stop-color="#aa8080"/><stop offset=".1699" stop-color="#a37575"/><stop offset=".3927" stop-color="#9d6b6b"/><stop offset=".5669" stop-color="#946565"/><stop offset=".8484" stop-color="#7c5555"/><stop offset=".8911" stop-color="#785252"/></radialGradient><radialGradient id="SVGID_21_" cx="357.691" cy="292.732" fx="350.138" fy="292.509" gradientTransform="matrix(1 -.021 .017 .813 -4.817 62.242)" gradientUnits="userSpaceOnUse" r="137.46"><stop offset="0" stop-color="#ffdace"/><stop offset=".2418" stop-color="#c59d99"/><stop offset=".3759" stop-color="#aa8080"/><stop offset=".4392" stop-color="#a57878"/><stop offset=".5691" stop-color="#9f6e6e"/><stop offset=".7332" stop-color="#9d6b6b"/><stop offset=".8513" stop-color="#9f6f6f"/><stop offset=".9594" stop-color="#a67a7a"/><stop offset="1" stop-color="#aa8080"/></radialGradient><radialGradient id="SVGID_22_" cx="365.65" cy="131.999" gradientTransform="matrix(.931 0 0 .112 -75.044 411.287)" gradientUnits="userSpaceOnUse" r="262.027"><stop offset="0" stop-color="#c3a2a2"/><stop offset=".1305" stop-color="#c7a9a9"/><stop offset=".3205" stop-color="#d4bcbc"/><stop offset=".4863" stop-color="#e2d3d3"/><stop offset=".6435" stop-color="#ebe1e1"/><stop offset=".8982" stop-color="#fff"/></radialGradient><g><path d="m475.464 376.819h-2.444c-5.737 0-10.387-4.651-10.387-10.387v-160.708h12.831z" fill="url(#SVGID_1_)"/><path d="m147.031 299.742v101.247c0 4.208-1.784 8.218-4.91 11.036l-.459.414c-3.055 2.754-4.799 6.674-4.799 10.787v2.538h64.339v-126.022z" fill="url(#SVGID_2_)"/><path d="m182.112 185.751c-19.609.419-35.081 16.903-35.081 36.517v110.299h8.278c35.045 0 63.455-28.41 63.455-63.455v-47.503c-.001-20.07-16.485-36.289-36.652-35.858z" fill="url(#SVGID_3_)"/><path d="m323.796 225.184c-20.619.591-37.587 17.288-38.487 37.896-.571 13.074 5.185 24.827 14.462 32.455 6.687 5.498 10.714 13.579 10.714 22.235v83.218c0 4.207-1.783 8.216-4.907 11.033l-.464.419c-3.054 2.754-4.797 6.673-4.797 10.785v2.538h64.339v-160.902c0-22.31-18.405-40.321-40.86-39.677z" fill="url(#SVGID_4_)"/><path d="m58.24 197.174c-7.461 25.523-30.162 44.929-58.24 46.879 32.885 8.811 66.634-9.085 78.216-40.394 1.287-3.479.578-7.388-1.781-10.251-5.373-6.52-15.824-4.344-18.195 3.766z" fill="url(#SVGID_5_)"/><path d="m475.464 205.724c0 55.59-45.065 100.656-100.656 100.656h-61.103c-62.257 0-98.324-32.387-130.808-85.497l-38.511-27.474v-137.926h198.364c73.296 0 132.714 59.418 132.714 132.714z" fill="url(#SVGID_6_)"/><path d="m365.133 306.38c-62.257 0-120.031-32.387-152.515-85.497l-16.804-27.474-51.428-137.926v137.926l16.804 27.474c32.484 53.11 90.258 85.497 152.515 85.497z" fill="url(#SVGID_7_)"/><path d="m183.964 250.608 89.1-62.188c0-66.319-39.259-120.08-87.687-120.08h-7.882-4.002-2.053c-9.428 0-18.516 1.455-27.053 4.151v120.919c11.349 17.371 19.582 36.108 39.577 57.198z" fill="url(#SVGID_8_)"/><path d="m218.893 299.742v101.247c0 4.208-1.784 8.218-4.91 11.036l-.459.414c-3.055 2.754-4.799 6.674-4.799 10.787v2.538h64.339v-126.022z" fill="url(#SVGID_9_)"/><path d="m228.953 412.439.459-.414c3.126-2.817 4.91-6.828 4.91-11.036v-101.247h-15.428v101.247c0 4.208-1.784 8.219-4.91 11.036l-.459.414c-3.055 2.754-4.799 6.674-4.799 10.787v2.538h15.428v-2.538c-.001-4.113 1.743-8.033 4.799-10.787z" fill="url(#SVGID_10_)"/><path d="m253.974 185.751c-19.609.419-35.081 16.903-35.081 36.517v110.299h8.278c35.045 0 63.455-28.41 63.455-63.455v-47.503c0-20.07-16.484-36.289-36.652-35.858z" fill="url(#SVGID_11_)"/><path d="m234.321 222.268c0-17.248 11.964-32.074 28.185-35.686-2.74-.603-5.597-.894-8.532-.831-19.609.419-35.081 16.903-35.081 36.517v110.299h8.278c2.418 0 4.803-.136 7.151-.399v-109.9z" fill="url(#SVGID_12_)"/><path d="m271.197 189.723c-5.141-2.656-11.007-4.105-17.223-3.972-19.609.419-35.081 16.903-35.081 36.517v3.962z" fill="url(#SVGID_13_)"/><path d="m109.55 245.06v-189.577h-11.884c-48.428 0-87.687 53.762-87.687 120.08z" fill="url(#SVGID_14_)"/><path d="m64.611 392.596 23.615-.015-2.286-247.376h-51.79l17.575 235.431c.503 6.745 6.122 11.96 12.886 11.96z" fill="url(#SVGID_15_)"/><path d="m165.011 55.483h-50.916c-46.771 0-83.675 39.761-80.193 86.402l.248 3.32h41.139z" fill="url(#SVGID_16_)"/><path d="m171.066 55.483h-6.055c-49.552 0-89.722 40.17-89.722 89.723v234.454c0 7.142 5.794 12.93 12.937 12.922l14.801-.017 15.881-163.578c.785-8.087 7.582-14.256 15.707-14.256h3.443.66c41.293 0 74.767-33.474 74.767-74.767v-42.064c-.001-23.426-18.992-42.417-42.419-42.417z" fill="url(#SVGID_17_)"/><path d="m167.064 245.06v-189.577h11.884c48.428 0 87.687 53.762 87.687 120.08z" fill="url(#SVGID_18_)"/><path d="m122.117 197.174c-7.461 25.523-30.162 44.928-58.24 46.879 32.885 8.811 66.634-9.085 78.216-40.394 1.287-3.479.578-7.388-1.781-10.251-5.373-6.52-15.824-4.344-18.195 3.766z" fill="url(#SVGID_19_)"/><path d="m395.659 225.184c-20.619.591-37.587 17.288-38.487 37.896-.571 13.074 5.185 24.827 14.462 32.455 6.687 5.498 10.714 13.579 10.714 22.235v83.218c0 4.207-1.783 8.216-4.907 11.033l-.464.419c-3.054 2.754-4.797 6.673-4.797 10.785v2.538h64.339v-160.902c-.001-22.31-18.406-40.321-40.86-39.677z" fill="url(#SVGID_20_)"/><path d="m387.608 423.226c0-4.112 1.743-8.031 4.797-10.785l.464-.419c3.124-2.817 4.907-6.827 4.907-11.033v-83.219c0-8.657-4.027-16.737-10.714-22.235-9.277-7.627-15.033-19.381-14.462-32.455.803-18.387 14.397-33.66 31.963-37.159-2.869-.567-5.849-.825-8.904-.738-20.619.592-37.587 17.288-38.487 37.897-.571 13.074 5.185 24.827 14.462 32.455 6.687 5.498 10.714 13.578 10.714 22.235v83.219c0 4.207-1.783 8.216-4.907 11.033l-.464.419c-3.053 2.754-4.797 6.673-4.797 10.785v2.538h15.428z" fill="url(#SVGID_21_)"/><path d="m260.989 456.517c138.629 0 251.011-13.768 251.011-30.753h-502.021c0 16.985 112.381 30.753 251.01 30.753z" fill="url(#SVGID_22_)"/></g></svg>