<svg xmlns="http://www.w3.org/2000/svg" viewBox="0 0 527.54 977.91"><defs><style>.cls-1{fill:#675224;}.cls-2{fill:#a95d27;}.cls-3{fill:#bb6b29;}.cls-4{fill:#d0a94b;}.cls-5{fill:#d0a044;}.cls-6{fill:#edc254;}.cls-7{fill:#f79639;}</style></defs><title>Giraffe</title><g id="Layer_2" data-name="Layer 2"><g id="Слой_1" data-name="Слой 1"><polygon class="cls-1" points="373.76 952.23 371.24 977.91 343.51 977.91 345.48 952.23 373.76 952.23"/><polygon class="cls-1" points="435.95 952.23 433.42 977.91 405.69 977.91 407.66 952.23 435.95 952.23"/><polygon class="cls-1" points="280.23 952.23 285.24 977.91 257.51 977.91 251.95 952.23 280.23 952.23"/><polygon class="cls-1" points="109.44 951.91 104.43 977.59 132.17 977.59 137.72 951.91 109.44 951.91"/><path class="cls-2" d="M526.32,648.66c-4-15.72-11.43-23.11-19.49-24.41a17.57,17.57,0,0,0-7.06.3,17.24,17.24,0,0,0-6.33,3.13c-6.45,5-9.41,15.05-5.39,30.76,5.17,20.25,30.46,39.42,30.46,39.42S531.5,668.9,526.32,648.66Z"/><path class="cls-3" d="M86,20.73a11,11,0,1,0-8.32,2.9L82.29,37h9.34Z"/><path class="cls-4" d="M109.44,951.91h28.28l52.12-338.76c-8.44-8.55-20.21-20.71-31-32.49Z"/><path class="cls-5" d="M149.93,20.87c4.57,5.65-.66,17.46-11.69,26.38S114.56,58.81,110,53.16s.66-17.47,11.69-26.39S145.35,15.21,149.93,20.87Z"/><path class="cls-2" d="M121,15.59a12,12,0,1,0-19.35,5.61l-6.3,20.59a4.77,4.77,0,0,0,3.17,6l.09,0a4.78,4.78,0,0,0,6-3.17L110.86,24A12.05,12.05,0,0,0,121,15.59Z"/><path class="cls-4" d="M311,640.07l49.86,114L345.48,952.23h28.28L393.2,756.67V685.8L371,635C351.63,637.36,330.64,639,311,640.07Z"/><path class="cls-6" d="M476.14,504.2C474,480.89,457.37,438.85,429,430.1c-55.81-17.23-154.43-47.34-154.43-47.34l-15.77-30.09A40.63,40.63,0,0,0,247.13,339l-26-19.49S141.84,37,122.83,37H70.46a16.09,16.09,0,0,0-10.85,4.22L6.78,89.55a19,19,0,0,0-5.52,21.32l.1.26A13.44,13.44,0,0,0,19,118.75L59.62,102.2s35.52,2.63,41.63,23.65c7.62,45.69,18.67,91,22.28,137.17,14.84,189.33,7.94,276.49,8.39,283.15.3,4.28,12.68,19,26.91,34.49,10.8,11.78,22.57,23.94,31,32.49,5.62,5.7,9.81,9.84,11,11,.21.2.45.34.67.54L252,952.23h28.28l-43-312c9.26,1.58,39.38,1.7,73.79-.13,19.61-1,40.6-2.71,59.94-5.12L393.2,685.8l29.87,68.27L407.66,952.23H436l19.44-195.56V592.8h0c7.05-14.89,12.72-33.3,16.39-49.88l21.67,84.76a17.24,17.24,0,0,1,6.33-3.13,17.57,17.57,0,0,1,7.06-.3Z"/><path class="cls-7" d="M412.52,446c-7.31-4.64-14.59-9.33-21.92-13.93-6.4-4-12.5-8.85-20.4-8.85-15.87,0-22.8,17.33-29.56,29-6.66,11.5-1.34,19.53,8.34,47.15,5.16,14.72,22.61,15.61,35.87,16.4,13.48.8,27.91-1.69,31.17-17C419.47,482.53,430.51,457.37,412.52,446Z"/><path class="cls-7" d="M133.57,218.46c33.11,25.36,61.72-50.46,25.8-50.46-15.28,0-29.92,20.56-31.74,24.76C123.48,202,125.89,212.59,133.57,218.46Z"/><path class="cls-7" d="M179.48,259.77c-2.75-14.71-21.84-31.37-34.62-31.37h-.38c-6.87.19-12.48,3.9-15,9.94-5.82,14,8.34,36.57,11.68,40.1C157.27,296,183.8,282.87,179.48,259.77Z"/><path class="cls-7" d="M216.07,359.91c3-11.07-1.07-20-4-26.44-6.1-13.31-4.65-48.42-33.14-45.16-31.35,3.59-36.07,67.74-36.08,68.38-.37,14.14,5.64,31.72,19.94,38.78C187.33,407.63,214,367.46,216.07,359.91Z"/><path class="cls-7" d="M157.64,456.34c9.39,24.4,30.65,16.51,40.78,17,38.38,1.67,38.24-21.71,44.6-33.84C298.25,334.24,134.2,395.46,157.64,456.34Z"/><path class="cls-1" d="M125.76,159.78a10.7,10.7,0,0,0,5.74,1.54,13.59,13.59,0,0,0,7.22-2.06c3.61-2.33,5.59-6,6.86-9.68a38.2,38.2,0,0,0,1.78-7.57c.31-2.35.35-4.88-1.11-7a5.13,5.13,0,0,0-4.38-2.39c-7.27,0-17.87,12.94-19.22,16.38A8.7,8.7,0,0,0,125.76,159.78Z"/><path class="cls-7" d="M141.87,120.64c-14.44,0-28.2,18.41-30.39,24a20.66,20.66,0,0,0,7.83,25.27C153.54,191.7,177.14,120.64,141.87,120.64ZM122.65,149c1.35-3.44,11.95-16.38,19.22-16.38,10.74,0,5.33,28.68-10.37,28.68C124,161.32,120.17,155.05,122.65,149Z"/><path class="cls-1" d="M79.86,56.13a5.43,5.43,0,1,1-5.43-5.43A5.44,5.44,0,0,1,79.86,56.13Z"/><path class="cls-1" d="M140.18,209.84c6.5,5,17.15,2.16,22.25-11,3.73-9.57,4.47-20-3.06-20-7.9,0-20.08,14.31-21.77,18.22C135.7,201.29,136.22,206.8,140.18,209.84Z"/><path class="cls-1" d="M168.44,261.83c-.91-4.87-4.1-9-7.63-12.52s-10.7-9.68-15.81-9.68c-11.6,0-2.78,23.56,4.34,31.1C158.16,280.33,170.67,273.74,168.44,261.83Z"/><path class="cls-1" d="M239.13,397c-8.94-6.69-24.64,1.56-32.85,6-8.53,4.66-17.14,10.2-24.07,17.07-7.61,7.53-12.54,19.39-9.09,28.37C176,456,209,472,231.11,430,235.44,421.72,250.65,405.61,239.13,397Z"/><path class="cls-7" d="M362,578.93c7.84,20.35,25.57,13.77,34,14.14,32,1.4,31.9-18.11,37.21-28.23C479.3,477.08,342.46,528.15,362,578.93Z"/><path class="cls-1" d="M430,529.42c-7.46-5.58-20.55,1.3-27.4,5-7.11,3.87-14.3,8.5-20.08,14.23-6.34,6.29-10.46,16.18-7.58,23.66,2.42,6.28,30,19.61,48.37-15.42C426.91,550.05,439.59,536.61,430,529.42Z"/><path class="cls-7" d="M259.42,558.1c3.33-14.67-5.23-21.86-22.72-45.36a25.26,25.26,0,0,0-25.76-9.61c-16,3.53-44.57,5.23-42.09,32,4.39,47.32,1.69,45.61,39.31,55.72C241.82,599.88,250.19,598.81,259.42,558.1Z"/><path class="cls-1" d="M227,584.14c19.3,5.19,25.11-31.69,18.95-40-17.48-23.5-18.44-25.8-22-28.08-6.5-4.15-10.73-1.83-32.85,3a14,14,0,0,0-10.9,14.93c2.76,29.74,1.55,34.45,9.05,39.24C192.19,575.21,193.3,575.07,227,584.14Z"/><path class="cls-7" d="M304.47,615.26c43.84,8.73,40.2,9.13,68.78-37.31,16.15-26.25-12.33-42.51-27-54.3a29,29,0,0,0-31.38-3.21c-29.94,15.27-42.4,18.31-46.44,35.1C257.19,602.1,265.26,607.45,304.47,615.26Z"/><path class="cls-1" d="M288.51,598.8c-22.49-4.47-9.7-45.36.84-50.73,29.93-15.28,32.07-17.15,36.93-17.69,8.79-1,12,3.58,32.23,19.84a16,16,0,0,1,3.62,20.9c-17.95,29.18-19.12,34.64-29.27,35.76C328.85,607.32,327.77,606.62,288.51,598.8Z"/><path class="cls-1" d="M406.12,456.48c-4-2.52-31.33-20.85-35.65-20.85-7.54,0-9.08,6-18.78,22.77-4,7,7.66,42.36,17.6,43.22l24.55,2.11a9.66,9.66,0,0,0,10.27-7.61C410,468.44,413.65,461.25,406.12,456.48Z"/><path class="cls-1" d="M155.5,354.58c-.28,10.64,4.19,22.61,12.61,26.78,11,5.43,32.74-19.68,34.78-27.22,2.59-9.54-4.1-16.9-6.54-25.68s-2.61-31-16.43-29.4C164.36,300.84,155.7,341.92,155.5,354.58Z"/><path class="cls-7" d="M339.71,457.56c-6.76-18.78-21.47-20.71-57.81-34.49a33.51,33.51,0,0,0-35.66,7.66c-15.41,15.4-46.09,37.69-24.21,65.82,38.7,49.77,34.46,49.77,83.75,34.21C349.87,516.83,358.47,509.66,339.71,457.56Z"/><path class="cls-1" d="M322.05,509.82c25.29-8,5.43-53.36-7.36-58.21C278.36,437.83,275.65,436,270,436c-10.23,0-13.31,5.63-34.55,26.88a18.52,18.52,0,0,0-1.52,24.47c24.32,31.27,26.35,37.4,38.15,37.4C276.76,524.7,277.91,523.76,322.05,509.82Z"/></g></g></svg>