<svg id="Capa_1" enable-background="new 0 0 512 512" height="512" viewBox="0 0 512 512" width="512" xmlns="http://www.w3.org/2000/svg" xmlns:xlink="http://www.w3.org/1999/xlink"><radialGradient id="SVGID_1_" cx="259.388" cy="618.553" gradientTransform="matrix(.931 0 0 .112 11.619 415.931)" gradientUnits="userSpaceOnUse" r="228.856"><stop offset="0" stop-color="#f6e7c6"/><stop offset=".0882" stop-color="#f7e9cc"/><stop offset=".4962" stop-color="#fbf1e2"/><stop offset=".8982" stop-color="#fff"/></radialGradient><radialGradient id="SVGID_2_" cx="123.735" cy="61.894" gradientTransform="matrix(1 0 0 .476 0 32.411)" gradientUnits="userSpaceOnUse" r="66.127"><stop offset="0" stop-color="#f4d8a5"/><stop offset=".2422" stop-color="#f3d6a0"/><stop offset=".5312" stop-color="#f1cf91"/><stop offset=".8431" stop-color="#eec47a"/><stop offset=".9955" stop-color="#ecbe6b"/></radialGradient><linearGradient id="SVGID_3_" gradientUnits="userSpaceOnUse" x1="204.032" x2="235.957" y1="120.832" y2="117.605"><stop offset="0" stop-color="#7a402b"/><stop offset=".1207" stop-color="#864730"/><stop offset=".3409" stop-color="#a7583c"/><stop offset=".356" stop-color="#aa593d"/></linearGradient><radialGradient id="SVGID_4_" cx="118.341" cy="31.973" gradientTransform="matrix(.047 .999 -2.835 .132 203.464 -90.469)" gradientUnits="userSpaceOnUse" r="16.029"><stop offset="0" stop-color="#f4d8a5"/><stop offset=".2396" stop-color="#f3d6a0"/><stop offset=".537" stop-color="#f1cf90"/><stop offset=".8638" stop-color="#eec477"/><stop offset=".9955" stop-color="#ecbe6b"/></radialGradient><radialGradient id="SVGID_5_" cx="150.74" cy="112.249" gradientUnits="userSpaceOnUse" r="123.821"><stop offset=".1096" stop-color="#fffbe4"/><stop offset=".6064" stop-color="#f6e7c6"/><stop offset=".8295" stop-color="#f5ddb0"/><stop offset="1" stop-color="#f4d8a5"/></radialGradient><linearGradient id="SVGID_6_" gradientTransform="matrix(.889 0 0 .866 181.631 36.487)" gradientUnits="userSpaceOnUse" x1="135.268" x2="162.849" y1="421.277" y2="431.19"><stop offset=".1359" stop-color="#df8621"/><stop offset=".4056" stop-color="#e49824"/></linearGradient><linearGradient id="SVGID_7_" gradientUnits="userSpaceOnUse" x1="159.723" x2="204.122" y1="425.718" y2="379.166"><stop offset=".7575" stop-color="#e49824"/><stop offset=".8679" stop-color="#e18e22"/><stop offset="1" stop-color="#df8621"/></linearGradient><radialGradient id="SVGID_8_" cx="201.642" cy="257.589" gradientTransform="matrix(.482 .876 -.676 .371 278.592 -14.783)" gradientUnits="userSpaceOnUse" r="95.502"><stop offset="0" stop-color="#df8621"/><stop offset=".6694" stop-color="#df8621"/><stop offset=".6861" stop-color="#df8821"/><stop offset=".8442" stop-color="#e39423"/><stop offset="1" stop-color="#e49824"/></radialGradient><radialGradient id="SVGID_9_" cx="245.343" cy="270.855" gradientTransform="matrix(.041 .999 -1.433 .059 623.35 9.719)" gradientUnits="userSpaceOnUse" r="89.078"><stop offset=".0055" stop-color="#e49824"/><stop offset=".7359" stop-color="#df8621"/><stop offset=".7375" stop-color="#df8621"/><stop offset=".874" stop-color="#e39323"/><stop offset=".9976" stop-color="#e49824"/></radialGradient><linearGradient id="lg1"><stop offset="0" stop-color="#664545"/><stop offset=".5881" stop-color="#7f5656"/><stop offset="1" stop-color="#8b5e5e"/></linearGradient><radialGradient id="SVGID_10_" cx="2865.903" cy="482.832" gradientTransform="matrix(-.872 -.403 -.323 .771 2828.321 1265.88)" gradientUnits="userSpaceOnUse" r="24.44" xlink:href="#lg1"/><radialGradient id="SVGID_11_" cx="2818.559" cy="482.832" gradientTransform="matrix(-.872 -.403 -.323 .771 2832.146 1246.798)" gradientUnits="userSpaceOnUse" r="24.44" xlink:href="#lg1"/><radialGradient id="SVGID_12_" cx="190.84" cy="469.042" gradientTransform="matrix(-.862 -.506 .312 -.532 208.875 815.215)" gradientUnits="userSpaceOnUse" r="22.759"><stop offset="0" stop-color="#cbafaf"/><stop offset=".314" stop-color="#bf9d9d"/><stop offset=".9384" stop-color="#a07070"/><stop offset="1" stop-color="#9d6b6b"/></radialGradient><radialGradient id="SVGID_13_" cx="2708.907" cy="483.111" gradientTransform="matrix(-.872 -.403 -.323 .771 2841.095 1202.665)" gradientUnits="userSpaceOnUse" r="22.211" xlink:href="#lg1"/><radialGradient id="SVGID_14_" cx="2668.279" cy="483.111" gradientTransform="matrix(-.872 -.403 -.323 .771 2844.378 1186.289)" gradientUnits="userSpaceOnUse" r="22.211" xlink:href="#lg1"/><radialGradient id="SVGID_15_" cx="336.72" cy="471.276" gradientTransform="matrix(-.862 -.506 .312 -.532 479.852 892.507)" gradientUnits="userSpaceOnUse" r="19.53"><stop offset="0" stop-color="#9d6b6b"/><stop offset=".9778" stop-color="#8b5e5e"/><stop offset="1" stop-color="#8b5e5e"/></radialGradient><linearGradient id="SVGID_16_" gradientTransform="matrix(.631 0 0 .66 621.613 61.31)" gradientUnits="userSpaceOnUse" x1="-386.84" x2="-386.84" y1="337.938" y2="517.287"><stop offset="0" stop-color="#df8621"/><stop offset=".398" stop-color="#e29223"/><stop offset=".79" stop-color="#e49824"/></linearGradient><radialGradient id="SVGID_17_" cx="285.87" cy="135.794" gradientUnits="userSpaceOnUse" r="189.669"><stop offset="0" stop-color="#f1cb86"/><stop offset=".1805" stop-color="#efc67c"/><stop offset=".3814" stop-color="#ecbe6b"/><stop offset=".5134" stop-color="#ebbb66"/><stop offset=".6772" stop-color="#eab356"/><stop offset=".8572" stop-color="#e7a63d"/><stop offset="1" stop-color="#e49824"/></radialGradient><radialGradient id="SVGID_18_" cx="159.776" cy="173.003" gradientTransform="matrix(1 0 0 1.257 0 -44.416)" gradientUnits="userSpaceOnUse" r="141.377"><stop offset="0" stop-color="#fff9c1"/><stop offset=".0329" stop-color="#fef6bc"/><stop offset=".5893" stop-color="#ecbe6b"/><stop offset=".6768" stop-color="#e9b254"/><stop offset=".7991" stop-color="#e6a43a"/><stop offset=".9089" stop-color="#e59b2a"/><stop offset=".9945" stop-color="#e49824"/></radialGradient><radialGradient id="SVGID_19_" cx="186.08" cy="83.051" gradientTransform="matrix(.775 -.632 .411 .503 7.805 158.921)" gradientUnits="userSpaceOnUse" r="69.223"><stop offset=".0518" stop-color="#ecbe6b"/><stop offset=".2324" stop-color="#e9b14c"/><stop offset=".386" stop-color="#e7a52e"/><stop offset=".5294" stop-color="#e49824"/></radialGradient><linearGradient id="SVGID_20_" gradientTransform="matrix(.889 0 0 .866 181.631 36.487)" gradientUnits="userSpaceOnUse" x1="180.934" x2="228.074" y1="422.043" y2="438.986"><stop offset="0" stop-color="#e49824"/><stop offset=".0813" stop-color="#e6a12b"/><stop offset=".1823" stop-color="#e7a52e"/><stop offset="1" stop-color="#e49824"/></linearGradient><linearGradient id="SVGID_21_" gradientUnits="userSpaceOnUse" x1="339.993" x2="371.81" y1="400.975" y2="412.41"><stop offset=".1359" stop-color="#e49824"/><stop offset=".4056" stop-color="#e7a52e"/><stop offset=".847" stop-color="#eab14d"/></linearGradient><linearGradient id="SVGID_22_" gradientUnits="userSpaceOnUse" x1="168.456" x2="168.456" y1="286.548" y2="286.548"><stop offset=".0457" stop-color="#ffdace"/><stop offset=".0963" stop-color="#facab7"/><stop offset=".2134" stop-color="#f0a987"/><stop offset=".3168" stop-color="#e89164"/><stop offset=".4013" stop-color="#e4824f"/><stop offset=".4565" stop-color="#e27d47"/><stop offset=".7264" stop-color="#e06b3c"/><stop offset=".9955" stop-color="#dd542e"/></linearGradient><radialGradient id="SVGID_23_" cx="169.678" cy="59.258" gradientTransform="matrix(.775 -.632 .411 .503 13.886 136.733)" gradientUnits="userSpaceOnUse" r="70.768"><stop offset=".4565" stop-color="#e27d47"/><stop offset=".8369" stop-color="#df6136"/><stop offset=".9879" stop-color="#dd542e"/></radialGradient><radialGradient id="SVGID_24_" cx="169.678" cy="59.258" gradientTransform="matrix(.775 -.632 .411 .503 13.886 136.733)" gradientUnits="userSpaceOnUse" r="70.768"><stop offset=".4565" stop-color="#ecbe6b"/><stop offset=".7222" stop-color="#eab24f"/><stop offset=".9879" stop-color="#e7a52e"/></radialGradient><radialGradient id="SVGID_25_" cx="177.271" cy="33.17" gradientTransform="matrix(.047 .999 -2.835 .132 263.041 -148.296)" gradientUnits="userSpaceOnUse" r="16.029"><stop offset=".186" stop-color="#ecbe6b"/><stop offset=".375" stop-color="#ecbc66"/><stop offset=".6097" stop-color="#eab656"/><stop offset=".8675" stop-color="#e8ab3d"/><stop offset=".9955" stop-color="#e7a52e"/></radialGradient><radialGradient id="SVGID_26_" cx="953.604" cy="432.976" gradientTransform="matrix(-.843 -.775 1.04 -.636 643.774 1166.767)" gradientUnits="userSpaceOnUse" r="156.598"><stop offset="0" stop-color="#e4936b"/><stop offset=".1449" stop-color="#e38d61"/><stop offset=".3814" stop-color="#e27d47"/><stop offset=".7448" stop-color="#dd6938"/><stop offset=".9766" stop-color="#ce4529"/></radialGradient><radialGradient id="SVGID_27_" cx="123.122" cy="170.529" gradientTransform="matrix(1 0 0 1.601 0 -102.515)" gradientUnits="userSpaceOnUse" r="82.332"><stop offset="0" stop-color="#ffdace"/><stop offset=".1514" stop-color="#ffd3c4"/><stop offset=".3814" stop-color="#ffc3ac"/><stop offset=".4752" stop-color="#febea7"/><stop offset=".5916" stop-color="#f9b197"/><stop offset=".7201" stop-color="#f39b7e"/><stop offset=".8572" stop-color="#e97c5b"/><stop offset="1" stop-color="#dd542e"/></radialGradient><linearGradient id="SVGID_28_" gradientUnits="userSpaceOnUse" x1="204.816" x2="249.215" y1="425.718" y2="379.166"><stop offset=".7575" stop-color="#eab14d"/><stop offset=".8129" stop-color="#e8a940"/><stop offset=".9254" stop-color="#e59d2c"/><stop offset="1" stop-color="#e49824"/></linearGradient><linearGradient id="SVGID_29_" gradientUnits="userSpaceOnUse" x1="211.398" x2="211.398" y1="477.922" y2="372.472"><stop offset=".2231" stop-color="#ecbe6b"/><stop offset=".2551" stop-color="#ecbd69"/><stop offset=".7029" stop-color="#eab455"/><stop offset="1" stop-color="#eab14d"/></linearGradient><radialGradient id="SVGID_30_" cx="208.729" cy="256.943" gradientTransform="matrix(.703 -.712 .549 .542 -78.903 266.244)" gradientUnits="userSpaceOnUse" r="95.502"><stop offset="0" stop-color="#f4d8a5"/><stop offset=".2269" stop-color="#f2cf90"/><stop offset=".3927" stop-color="#f1cb86"/><stop offset=".5116" stop-color="#f0c77d"/><stop offset=".7036" stop-color="#edbc65"/><stop offset=".8597" stop-color="#eab14d"/></radialGradient><radialGradient id="SVGID_31_" cx="208.729" cy="256.943" gradientTransform="matrix(.703 -.712 .549 .542 -78.903 266.244)" gradientUnits="userSpaceOnUse" r="95.502"><stop offset="0" stop-color="#f4d8a5"/><stop offset=".0799" stop-color="#f1ce90"/><stop offset=".2012" stop-color="#edc275"/><stop offset=".2727" stop-color="#ecbe6b"/><stop offset=".5119" stop-color="#ebba62"/><stop offset=".8597" stop-color="#eab14d"/></radialGradient><radialGradient id="SVGID_32_" cx="186.155" cy="267.163" gradientTransform="matrix(.649 -.761 .616 .526 -99.162 268.352)" gradientUnits="userSpaceOnUse" r="104.989"><stop offset=".1103" stop-color="#fff9d0"/><stop offset=".2653" stop-color="#fae9b6"/><stop offset=".4994" stop-color="#f3d393"/><stop offset=".6259" stop-color="#f1cb86"/><stop offset=".9124" stop-color="#eab14d"/></radialGradient><radialGradient id="SVGID_33_" cx="287.348" cy="302.965" gradientTransform="matrix(-.836 -.548 .786 -1.199 289.409 823.877)" gradientUnits="userSpaceOnUse" r="82.747"><stop offset="0" stop-color="#f1cb86"/><stop offset=".3445" stop-color="#ecbe6b"/><stop offset=".4957" stop-color="#ecbc66"/><stop offset=".6876" stop-color="#eab556"/><stop offset=".9005" stop-color="#e8ab3c"/><stop offset=".9955" stop-color="#e7a52e"/></radialGradient><radialGradient id="SVGID_34_" cx="292.795" cy="275.916" gradientTransform="matrix(-.823 -.569 .846 -1.223 300.292 779.911)" gradientUnits="userSpaceOnUse" r="93.876"><stop offset=".0039" stop-color="#fff9c1"/><stop offset=".3854" stop-color="#ecbe6b"/><stop offset=".638" stop-color="#e9ae44"/><stop offset=".8076" stop-color="#e7a52e"/></radialGradient><g><path d="m256 512c122.629 0 222.04-12.179 222.04-27.203h-444.08c0 15.024 99.411 27.203 222.04 27.203z" fill="url(#SVGID_1_)"/><path d="m129.523 41.71-19.894 21.424c-2.826 3.043-5.526 4.119-7.266 5.238-6.392 4.111-9.403 10.819-6.725 14.983 1.436 2.233 4.184 3.151 6.799 3.14h21.513l42.489-49.202z" fill="url(#SVGID_2_)"/><path d="m228.875 199.95-25.158-150.105c-.379-2.261-1.446-4.35-3.056-5.982l-3.874-3.928 16.044 143.886z" fill="url(#SVGID_3_)"/><path d="m134.995 43.248c-6.342 0-11.779-4.532-12.92-10.77l-.048-.26h25.936l-.048.26c-1.141 6.238-6.578 10.77-12.92 10.77z" fill="url(#SVGID_4_)"/><path d="m166.245 25.624-1.342-1.23c-1.757-1.61-2.657-3.95-2.433-6.323l1.321-13.967c.184-1.95-1.137-3.822-3.079-4.074-2.057-.267-3.863 1.221-4.052 3.221l-1.321 13.971c-.281 2.971-1.655 5.733-3.855 7.749-.458.42-1.057.652-1.678.652h-4.198c-8.884 0-16.085 7.202-16.085 16.085h33.102l13.89-16.085h-10.27z" fill="url(#SVGID_5_)"/><path d="m311.036 471.343h14.137c2.696 0 4.912-2.127 5.023-4.821l4.965-120.695-17.717-5.852-6.409 19.781v111.587z" fill="url(#SVGID_6_)"/><path d="m160.911 469.119h15.778c2.777 0 5.029-2.251 5.029-5.029v-119.964l-20.807 16.899z" fill="url(#SVGID_7_)"/><path d="m221.628 257.467c0-17.05-14.056-30.817-31.212-30.347-16.536.454-29.505 14.437-29.505 30.979v102.926c10.267 0 19.722-5.581 24.684-14.569l1.287-2.331 20.425-58.219c.704-2.006 1.877-3.836 3.504-5.205 6.613-5.569 10.817-13.91 10.817-23.234z" fill="url(#SVGID_8_)"/><path d="m330.541 288.416c2.227-4.694 3.445-9.96 3.373-15.518-.242-18.571-15.217-33.948-33.776-34.652-20.035-.76-36.515 15.256-36.515 35.121 0 7.128 2.122 13.76 5.768 19.299l41.646 67.089c7.661 0 14.944-3.327 19.959-9.118l4.166-4.81-6.19-47.566c-.439-3.365.114-6.779 1.569-9.845z" fill="url(#SVGID_9_)"/><path d="m148.967 484.797h27.528v-15.677h-15.584c-2.382 0-4.564 1.331-5.653 3.449z" fill="url(#SVGID_10_)"/><path d="m194.06 484.797h27.528v-15.677h-15.584c-2.382 0-4.564 1.331-5.653 3.449z" fill="url(#SVGID_11_)"/><path d="m214.781 469.119h-8.777c-2.382 0-4.564 1.331-5.653 3.449l-6.291 12.228h8.777l6.291-12.228c1.089-2.117 3.271-3.449 5.653-3.449z" fill="url(#SVGID_12_)"/><path d="m300.787 484.797h25.025v-13.453h-14.775c-2.044 0-3.916 1.142-4.851 2.96z" fill="url(#SVGID_13_)"/><path d="m339.483 484.797h25.025v-13.453h-14.775c-2.044 0-3.916 1.142-4.851 2.96z" fill="url(#SVGID_14_)"/><path d="m357.265 471.343h-7.532c-2.044 0-3.916 1.142-4.851 2.96l-5.398 10.493h7.532l5.398-10.493c.935-1.817 2.807-2.96 4.851-2.96z" fill="url(#SVGID_15_)"/><path d="m382.575 380.003h-1.857c-4.359 0-7.892-3.534-7.892-7.892v-122.107c6.041 3.559 9.749 10.048 9.749 17.06z" fill="url(#SVGID_16_)"/><path d="m338.529 227.108h-59.197c-29.537 0-54.751-21.34-59.633-50.47l-22.912-136.702h-35.927l10.455 213.335c0 48.281 34.818 83.774 81.704 72.25l54.783-13.465h30.728c23.458 0 42.474-19.016 42.474-42.474-.002-23.457-19.018-42.474-42.475-42.474z" fill="url(#SVGID_17_)"/><path d="m179.86 253.271v-213.335h-19v213.335c0 45.39 40.014 79.477 83.763 73.821-35.684-4.646-64.763-35.126-64.763-73.821z" fill="url(#SVGID_18_)"/><path d="m160.86 80.096h8.373c6.42 0 12.788-1.155 18.799-3.409 5.397-2.024 9.93-5.518 13.254-9.911l-4.499-26.841h-34.188c-1.04 2.129-1.636 4.515-1.636 7.044l-.104.112v33.005z" fill="url(#SVGID_19_)"/><path d="m349.733 471.343h14.137c2.696 0 4.912-2.127 5.023-4.821l4.965-120.695-17.717-5.852-6.409 19.781v111.587z" fill="url(#SVGID_20_)"/><path d="m358.345 340.702-2.203-.727-6.409 19.781v111.587h8.416v-129.907z" fill="url(#SVGID_21_)"/><path d="" fill="url(#SVGID_22_)"/><path d="m182.476 25.624c-.317 0-.623-.119-.857-.333l-.978-.896c-1.757-1.61-2.657-3.95-2.433-6.323l1.321-13.967c.184-1.95-1.137-3.822-3.079-4.074-2.057-.267-3.863 1.221-4.052 3.221l-1.321 13.972c-.281 2.971-1.654 5.732-3.855 7.748-.46.421-1.057.645-1.679.682-8.433.5-15.118 7.498-15.118 16.057l-19.895 21.423c-2.826 3.043-5.526 4.119-7.267 5.238-6.392 4.111-9.403 10.819-6.725 14.983 3.505 5.45 14.813 3.607 21.037-3.969 2.33-2.836 5.743-4.56 9.413-4.56h11.704c6.42 0 12.788-1.155 18.799-3.409 11.606-4.352 19.295-15.447 19.295-27.843v-3.639c.001-7.903-6.407-14.311-14.31-14.311z" fill="url(#SVGID_23_)"/><path d="m182.476 25.624c-.317 0-.623-.119-.857-.333l-.978-.896c-1.757-1.61-2.657-3.95-2.433-6.323l1.321-13.967c.184-1.95-1.137-3.822-3.079-4.074-2.057-.267-3.863 1.221-4.052 3.221l-1.321 13.972c-.281 2.971-1.654 5.732-3.855 7.748-.46.421-1.057.645-1.679.682-8.433.5-15.118 7.498-15.118 16.057l-19.895 21.423c-2.826 3.043-5.526 4.119-7.267 5.238-6.392 4.111-9.403 10.819-6.725 14.983 3.505 5.45 14.813 3.607 21.037-3.969 2.33-2.836 5.743-4.56 9.413-4.56h11.704c6.42 0 12.788-1.155 18.799-3.409 11.606-4.352 19.295-15.447 19.295-27.843v-3.639c.001-7.903-6.407-14.311-14.31-14.311z" fill="url(#SVGID_24_)"/><path d="m196.787 43.248c-6.342 0-11.779-4.532-12.92-10.77l-.048-.26h25.936l-.048.26c-1.142 6.238-6.578 10.77-12.92 10.77z" fill="url(#SVGID_25_)"/><path d="m183.535 110.171-17.051-17.051 13.024-13.024h12.932v24.645zm7.217 51.111 10.392 1.83 10.093-7.466-15.034-19.73-14.123 14.031zm1.063-32.234-5.673-7.742h-25.282v27.219h11.3zm10.112 1.181 12.811 16.813-4.244-25.323h-8.567zm6.946-18.179-6.508-38.827-1.926 1.589v31.246l7.17 7.248zm-48.013-13.24v14.496h14.496zm65.745 97.425c-3.34-5.949-5.725-12.541-6.907-19.596l-2.202-13.136-1.367-1.434-16.515 16.514-17.77 17.771 12.031 12.031h20.582zm-20.917 19.816-10 10v18.323h37.647v-18.054l-10.268-10.268h-17.379zm-44.828 1.287v16.016l17.356-.008 11.736-13.817-15.642-15.642zm0 35.933c0 3.613.259 7.152.749 10.606l14.623 9.635h2.715l10.583-10.583v-21.312h-28.67zm21.219-90.159-13.492.239-7.728 7.677v34.995l30.622-30.622zm51.256 123.436h-22.064l-13.849-17.016v-17.016h35.913zm-53.105 16.807c-5.388-5.9-9.857-12.69-13.139-20.159h27.218l2.728 3.352zm61.197-71.272v17.458l16.876 16.876 14.07-14.07-20.265-20.265h-10.681zm0 30.571v43.498l21.749-21.749zm57.965-7.381v-16.044l12.12-12.12h29.064l-28.164 28.164zm-33.102 16.915 25.432-25.432v25.432h-24.768m-2.513 20.485 13.02-13.02h11.217l11.26 11.281-18.618 18.618zm34.239-65.565h-19.348c-6.713 0-13.203-1.102-19.282-3.148l20.889 20.889zm38.085 54.668h-37.373v-19.122h27.568l9.805 9.805zm-68.299 39.948-15.448 3.797c-7.918 1.946-15.79 2.551-23.405 1.98l27.87-27.87 10.984 10.984zm-53.022 3.303c-10.464-2.905-20.104-8.07-28.278-14.989l15.317-15.317 21.634 21.634zm68.555-7.121 23.801-5.85h30.998l-.001-.001-24.474-24.474zm75.089-85.499c10.227 5.668 17.868 15.432 20.707 27.078h-.001-47.784zm20.562 47.849c.883-3.41 1.352-6.987 1.352-10.673 0-.728-.018-1.453-.055-2.172v-.034h-28.936l8.123 32.394zm-149.009-77.753-6.774 6.774 15.459 15.459h14.395v-3.312c-9.15-4.284-17.094-10.803-23.08-18.921z" fill="url(#SVGID_26_)"/><path d="m215.444 325.027c-10.464-2.905-20.104-8.07-28.278-14.989l9.563-9.563c6.588 7.998 14.789 14.563 24.026 19.241zm17.176-.533-3.007 3.007c4.915.368 9.937.246 15.009-.409-4.1-.534-8.112-1.409-12.002-2.598zm-65.528-41.298c3.282 7.469 7.75 14.259 13.139 20.159l10.803-10.803c-1.858-2.978-3.512-6.103-4.942-9.357zm12.768-203.1h-.352l-13.024 13.024 13.376 13.375zm0 83.056-11.272.199-7.728 7.677v34.995l19-19zm0 68.258v-21.974l-5.549-5.549-13.451 13.451v16.016l17.356-.008zm-3.628 42.102h2.715l2.921-2.921c-1.311-5.533-2.009-11.328-2.009-17.32v-11.654h-19v11.654c0 3.613.259 7.152.749 10.606zm3.628-132.617v-19.589h-19v27.219h11.3zm-19-42.085v14.496h14.496z" fill="url(#SVGID_27_)"/><path d="m206.004 469.119h15.778c2.777 0 5.029-2.251 5.029-5.029v-119.964l-20.807 16.899z" fill="url(#SVGID_28_)"/><path d="m216.792 354.005-10.788 7.02v108.094h10.788z" fill="url(#SVGID_29_)"/><path d="m266.721 257.467c0-17.05-14.056-30.817-31.212-30.347-16.536.454-29.505 14.437-29.505 30.979v102.926c10.267 0 19.722-5.581 24.684-14.569l1.287-2.331 20.425-58.219c.704-2.006 1.877-3.836 3.504-5.205 6.614-5.569 10.817-13.91 10.817-23.234z" fill="url(#SVGID_30_)"/><path d="m266.721 257.467c0-17.05-14.056-30.817-31.212-30.347-16.536.454-29.505 14.437-29.505 30.979v102.926c10.267 0 19.722-5.581 24.684-14.569l1.287-2.331 20.425-58.219c.704-2.006 1.877-3.836 3.504-5.205 6.614-5.569 10.817-13.91 10.817-23.234z" fill="url(#SVGID_31_)"/><path d="m216.693 258.067c0-15.023 10.708-27.897 25.037-30.485-1.961-.35-3.987-.512-6.059-.466-16.595.37-29.667 14.351-29.667 30.95v102.959h.112c5.88-.023 10.577-4.934 10.577-10.814z" fill="url(#SVGID_32_)"/><path d="m369.238 288.416c2.227-4.694 3.445-9.96 3.373-15.518-.242-18.571-15.217-33.948-33.776-34.652-20.035-.76-36.515 15.256-36.515 35.121 0 7.128 2.122 13.76 5.768 19.299l41.646 67.089c7.661 0 14.944-3.327 19.959-9.118l4.166-4.81-6.19-47.566c-.439-3.365.114-6.779 1.569-9.845z" fill="url(#SVGID_33_)"/><path d="m317.371 292.667c-3.646-5.539-5.768-12.172-5.768-19.299 0-17.835 13.284-32.568 30.498-34.842-1.075-.143-2.164-.237-3.266-.279-20.034-.76-36.515 15.256-36.515 35.121 0 7.128 2.122 13.76 5.768 19.299l41.646 67.089c2.897 0 5.739-.476 8.426-1.381z" fill="url(#SVGID_34_)"/></g></svg>