<svg xmlns="http://www.w3.org/2000/svg" viewBox="0 0 650 727.85"><defs><style>.cls-1{fill:#c08053;}.cls-2{fill:#f7b6c7;}.cls-3{fill:#664f3c;}.cls-4{fill:#daa989;}.cls-5{fill:#fff;opacity:0.24;}</style></defs><title>Goat</title><g id="Layer_2" data-name="Layer 2"><g id="Слой_1" data-name="Слой 1"><path class="cls-1" d="M646.11,262.27a54.82,54.82,0,0,1-8.22,8.94,11,11,0,0,1-1.44,1.14,57.93,57.93,0,0,1-71.17,1.94l-83.56-62.05a57.89,57.89,0,0,1-12-80.83,65.82,65.82,0,0,1,4.89-5.81,58,58,0,0,1,76-6.21c41.44,30.81,78.78,74.24,92.91,106.69C650.22,241.43,651.74,254.3,646.11,262.27Z"/><path class="cls-1" d="M571.5,156.54V377.83c0,90.72-78.58,164.89-176,164.89H237.7c-97.22,0-176-73.8-176-164.89V296.35H462.26V156.54Z"/><path class="cls-2" d="M506.49,567.59v140c0,14.59-9.38,19.16-20.86,19.16s-20.86-4.57-20.86-19.16v-140C464.77,532.39,506.49,532.39,506.49,567.59Z"/><path class="cls-3" d="M464.77,727.85h41.72V710.71c0-26-41.72-26.66-41.72,0Z"/><path class="cls-2" d="M103.65,600.36V704.6a20.87,20.87,0,1,1-41.73,0V600.36C61.92,572.6,103.65,572.92,103.65,600.36Z"/><path class="cls-3" d="M61.92,726.91h41.73V709.76c0-27.57-41.73-27.6-41.73,0Z"/><path class="cls-4" d="M61.58,313.19v289.9a145,145,0,1,0,0-289.9Z"/><path class="cls-1" d="M71.64,307.05c-7.11,9.26-28.39,4.85-47.54-9.85S-4.79,263.08,2.33,253.82s28.39-4.86,47.53,9.84S78.75,297.79,71.64,307.05Z"/><path class="cls-1" d="M463.57,187.37c-16.15,16.28-36.67,22.09-45.86,13s-3.53-29.68,12.61-46,36.68-22.1,45.87-13S479.72,171.09,463.57,187.37Z"/><path class="cls-2" d="M461.13,176c-11.89,12-25.86,17.4-31.22,12.1s0-19.33,11.85-31.31,25.86-17.4,31.21-12.1S473,164,461.13,176Z"/><path class="cls-5" d="M638,271.07,474.75,125.47a58,58,0,0,1,75.94-6.22C592.75,150.49,677.68,237.35,638,271.07Z"/><path class="cls-3" d="M368.72,46.55c27.22-23.93,73.65-24.5,101.3,4.69,17.7,18.68,21.82,44.56,13.35,67.12h44c4.86-36.48-9.89-74.34-40.2-97.16a104.28,104.28,0,0,0-116.39-6.52C326.42,41.08,357.18,56.69,368.72,46.55Z"/><path class="cls-3" d="M588.6,187a9.82,9.82,0,1,1-9.82-9.82A9.82,9.82,0,0,1,588.6,187Z"/><path class="cls-2" d="M637.56,271.24c-12.42-14.17-10.27-35.27,6-45.16C651.52,244.39,654.71,260.53,637.56,271.24Z"/><path class="cls-4" d="M571.5,279.13c-.52-1.24-104.17,91.38-106.65,91.42V581a105.19,105.19,0,0,0,106.63-105.2C571.48,475.66,571.5,279.22,571.5,279.13Z"/></g></g></svg>