<svg xmlns="http://www.w3.org/2000/svg" viewBox="0 0 499.87 694"><defs><style>.cls-1{fill:#303031;}.cls-2{fill:#686b71;}.cls-3{fill:#474544;}.cls-4{fill:#4b4b4f;}.cls-5{fill:#47474a;}.cls-6{fill:#1d1d1f;}.cls-7{fill:#38393c;}.cls-8{fill:#fff;}.cls-9{fill:#7c7e83;}</style></defs><title>Gorilla</title><g id="Layer_2" data-name="Layer 2"><g id="Слой_1" data-name="Слой 1"><path class="cls-1" d="M34.44,388.48s56.22-91.17,156.31-91.17L254.1,589.19S68.26,610.83,47.81,570.37Z"/><path class="cls-2" d="M417.52,626.79c-35,0-63.33,30.11-63.33,67.21H480.87C480.87,656.9,452.52,626.79,417.52,626.79Z"/><polygon class="cls-3" points="411.57 694 395.3 666.79 379.28 694 411.57 694"/><polygon class="cls-3" points="455.79 694 439.51 666.79 423.49 694 455.79 694"/><rect class="cls-4" x="47.81" y="517.98" width="95.12" height="142.41"/><path class="cls-2" d="M95.37,626.79C60.38,626.79,32,656.9,32,694H158.72C158.72,656.9,130.37,626.79,95.37,626.79Z"/><polygon class="cls-3" points="89.41 694 73.14 666.79 57.12 694 89.41 694"/><polygon class="cls-3" points="133.63 694 117.36 666.79 101.34 694 133.63 694"/><ellipse class="cls-5" cx="95.38" cy="473.99" rx="95.38" ry="111.16"/><path class="cls-2" d="M156.31,474c0,39.23-27.28,71-60.93,71s-60.94-31.79-60.94-71,27.28-71,60.94-71S156.31,434.77,156.31,474Z"/><path class="cls-6" d="M327.89,196.91s-152.32-95.32-164.67,81l46.66,281.28L202.33,660.4H303s6.39-51.82-8-101.22L297,415.79Z"/><path class="cls-2" d="M248.13,626.79c-35,0-63.34,30.11-63.34,67.21H311.47C311.47,656.9,283.13,626.79,248.13,626.79Z"/><polygon class="cls-3" points="242.17 694 225.9 666.79 209.88 694 242.17 694"/><polygon class="cls-3" points="286.39 694 270.12 666.79 254.1 694 286.39 694"/><path class="cls-6" d="M335.2,200.51s152.32-95.31,164.67,81L453.21,562.79,460.76,664H360.11s-6.39-51.81,8-101.21l-2.06-143.4Z"/><path class="cls-2" d="M415,626.79c35,0,63.34,30.11,63.34,67.21H351.61C351.61,656.9,380,626.79,415,626.79Z"/><polygon class="cls-3" points="420.92 694 437.19 666.79 453.21 694 420.92 694"/><polygon class="cls-3" points="376.7 694 392.97 666.79 408.99 694 376.7 694"/><ellipse class="cls-1" cx="334.46" cy="388.9" rx="100.11" ry="145.12"/><path class="cls-7" d="M408.67,63.92C401,27.33,370.8,0,334.67,0s-66.36,27.33-74,63.92Z"/><path class="cls-7" d="M403.82,73.84H266.05c-25.74,22.61-42.25,57.59-42.25,96.87,0,68.17,49.75,123.44,111.13,123.44s111.14-55.27,111.14-123.44C446.07,131.43,429.56,96.45,403.82,73.84Z"/><path class="cls-8" d="M317.91,72.8a13.8,13.8,0,1,1-13.79-13.63A13.71,13.71,0,0,1,317.91,72.8Z"/><path class="cls-6" d="M311.07,72.8a7,7,0,1,1-6.95-6.87A6.91,6.91,0,0,1,311.07,72.8Z"/><path class="cls-8" d="M379.55,72.8a13.8,13.8,0,1,1-13.8-13.63A13.72,13.72,0,0,1,379.55,72.8Z"/><path class="cls-6" d="M372.7,72.8a7,7,0,1,1-6.95-6.87A6.91,6.91,0,0,1,372.7,72.8Z"/><path class="cls-6" d="M404.76,191.83a84.74,84.74,0,0,1-6.52,32.77H271.65a84,84,0,0,1-6.54-32.77c0-24.68,10.38-46.67,26.56-60.87L334.92,73.9,378.2,131C394.38,145.16,404.76,167.15,404.76,191.83Z"/><path class="cls-9" d="M350,140l-15,15.73-15-15.73-18.19,21.73s2,24.72,33.2,24.72,33.21-24.72,33.21-24.72Z"/><path class="cls-6" d="M327.5,163.2a6.75,6.75,0,1,1-6.75-6.66A6.71,6.71,0,0,1,327.5,163.2Z"/><path class="cls-6" d="M355.87,163.2a6.75,6.75,0,1,1-6.75-6.66A6.71,6.71,0,0,1,355.87,163.2Z"/><path class="cls-9" d="M410.92,73.9V66.23a12.36,12.36,0,0,0-12.43-12.29H271.38a12.37,12.37,0,0,0-12.44,12.29V73.9Z"/><path class="cls-1" d="M398.24,224.6C387.13,251,363,269.37,334.92,269.37S282.74,251,271.65,224.6Z"/><path class="cls-9" d="M307.77,224.6c4.89-8.06,15.54-13.65,27.89-13.65s23,5.59,27.87,13.65Z"/></g></g></svg>