<svg id="Capa_1" enable-background="new 0 0 512 512" height="512" viewBox="0 0 512 512" width="512" xmlns="http://www.w3.org/2000/svg" xmlns:xlink="http://www.w3.org/1999/xlink"><linearGradient id="SVGID_1_" gradientUnits="userSpaceOnUse" x1="393.965" x2="379.87" y1="346.007" y2="324.241"><stop offset=".3301" stop-color="#66453d"/><stop offset=".5756" stop-color="#61423c"/><stop offset=".8501" stop-color="#543938"/><stop offset=".8801" stop-color="#523838"/></linearGradient><linearGradient id="SVGID_2_" gradientUnits="userSpaceOnUse" x1="456.126" x2="440.768" y1="340.041" y2="319.148"><stop offset=".3301" stop-color="#845c52"/><stop offset=".6191" stop-color="#7a544b"/><stop offset="1" stop-color="#66453d"/></linearGradient><linearGradient id="lg1"><stop offset="0" stop-color="#e4d5f4"/><stop offset=".2086" stop-color="#dac6de"/><stop offset=".6404" stop-color="#bfa0a6"/><stop offset=".9955" stop-color="#a77d73"/></linearGradient><radialGradient id="SVGID_3_" cx="-25.708" cy="206.194" gradientUnits="userSpaceOnUse" r="79.211" xlink:href="#lg1"/><radialGradient id="SVGID_4_" cx="88.28" cy="238.496" gradientUnits="userSpaceOnUse" r="40.156"><stop offset="0" stop-color="#98695e"/><stop offset=".6259" stop-color="#82584f"/><stop offset=".9955" stop-color="#734d45"/></radialGradient><radialGradient id="SVGID_5_" cx="-15.927" cy="188.481" gradientUnits="userSpaceOnUse" r="56.058"><stop offset=".1096" stop-color="#e4d5f4"/><stop offset=".4731" stop-color="#d7c2cc"/><stop offset=".7835" stop-color="#ceb4af"/></radialGradient><radialGradient id="SVGID_6_" cx="83.888" cy="138.45" gradientUnits="userSpaceOnUse" r="18.242"><stop offset=".3385" stop-color="#a77d73"/><stop offset=".464" stop-color="#9a7167"/><stop offset=".6979" stop-color="#765048"/><stop offset=".7174" stop-color="#734d45"/></radialGradient><radialGradient id="SVGID_7_" cx="80.372" cy="143.653" gradientUnits="userSpaceOnUse" r="12.2"><stop offset="0" stop-color="#b48e84"/><stop offset=".2228" stop-color="#a1766b"/><stop offset=".3814" stop-color="#98695e"/><stop offset=".9304" stop-color="#785048"/><stop offset="1" stop-color="#734d45"/></radialGradient><radialGradient id="SVGID_8_" cx="56.708" cy="109.994" gradientUnits="userSpaceOnUse" r="85.581" xlink:href="#lg1"/><radialGradient id="SVGID_9_" cx="363.239" cy="283.733" fx="379.048" fy="359.777" gradientTransform="matrix(.976 -.216 .113 .509 -23.361 217.903)" gradientUnits="userSpaceOnUse" r="116.309"><stop offset="0" stop-color="#66453d"/><stop offset=".5826" stop-color="#69473f"/><stop offset=".952" stop-color="#714c44"/><stop offset="1" stop-color="#734d45"/></radialGradient><radialGradient id="SVGID_10_" cx="190.306" cy="254.398" fx="195.981" fy="238" gradientTransform="matrix(-.371 .929 -1.279 -.51 586.064 207.362)" gradientUnits="userSpaceOnUse" r="71.537"><stop offset=".1337" stop-color="#66453d"/><stop offset=".3065" stop-color="#704d44"/><stop offset=".6894" stop-color="#845c52"/></radialGradient><linearGradient id="SVGID_11_" gradientTransform="matrix(.631 0 0 .66 388.105 61.31)" gradientUnits="userSpaceOnUse" x1="152.629" x2="152.629" y1="336.12" y2="223.457"><stop offset=".0025" stop-color="#734d45"/><stop offset=".4869" stop-color="#66453d"/><stop offset=".5008" stop-color="#66453d"/></linearGradient><linearGradient id="lg2"><stop offset="0" stop-color="#b48e84"/><stop offset=".2568" stop-color="#ac847a"/><stop offset=".3814" stop-color="#a77d73"/><stop offset=".5606" stop-color="#9a7168"/><stop offset=".8882" stop-color="#79534b"/><stop offset=".9433" stop-color="#734d45"/></linearGradient><radialGradient id="SVGID_12_" cx="258.05" cy="136.225" gradientTransform="matrix(.989 .15 -.098 .647 16.259 9.416)" gradientUnits="userSpaceOnUse" r="257.556" xlink:href="#lg2"/><radialGradient id="SVGID_13_" cx="160.66" cy="274.841" gradientUnits="userSpaceOnUse" r="96.235"><stop offset="0" stop-color="#ddc8f1"/><stop offset=".0082" stop-color="#dac5ec"/><stop offset=".1054" stop-color="#bca0b6"/><stop offset=".1958" stop-color="#a4828b"/><stop offset=".2767" stop-color="#926d6c"/><stop offset=".3452" stop-color="#886159"/><stop offset=".3931" stop-color="#845c52"/><stop offset=".6146" stop-color="#7c554c"/><stop offset=".9858" stop-color="#734d45"/></radialGradient><radialGradient id="SVGID_14_" cx="252.872" cy="234.79" gradientTransform="matrix(.989 .15 -.098 .647 25.861 44.955)" gradientUnits="userSpaceOnUse" r="140.147" xlink:href="#lg2"/><radialGradient id="SVGID_15_" cx="135.921" cy="236.145" gradientTransform="matrix(1 0 0 1.003 0 -.746)" gradientUnits="userSpaceOnUse" r="113.933"><stop offset=".0113" stop-color="#66453d"/><stop offset=".2231" stop-color="#7c584f"/><stop offset=".5813" stop-color="#9b7369"/><stop offset=".7807" stop-color="#a77d73"/></radialGradient><radialGradient id="SVGID_16_" cx="143.539" cy="182.635" gradientTransform="matrix(.887 -.462 .339 .652 -45.724 129.832)" gradientUnits="userSpaceOnUse" r="119.222"><stop offset=".4036" stop-color="#a77d73"/><stop offset=".6715" stop-color="#9a7167"/><stop offset="1" stop-color="#845c52"/></radialGradient><linearGradient id="lg3"><stop offset="0" stop-color="#b48e84"/><stop offset=".131" stop-color="#af877d"/><stop offset=".3927" stop-color="#a77d73"/><stop offset=".5627" stop-color="#9e756b"/><stop offset=".8374" stop-color="#865e54"/><stop offset=".8597" stop-color="#845c52"/></linearGradient><radialGradient id="SVGID_17_" cx="387.89" cy="243.63" gradientTransform="matrix(.068 -.998 .769 .052 174.087 617.843)" gradientUnits="userSpaceOnUse" r="116.309" xlink:href="#lg3"/><radialGradient id="SVGID_18_" cx="228.099" cy="265.194" gradientTransform="matrix(0 -1 .771 0 23.62 493.293)" gradientUnits="userSpaceOnUse" r="84.517" xlink:href="#lg3"/><radialGradient id="SVGID_19_" cx="373.087" cy="245.965" gradientTransform="matrix(.649 -.761 .616 .526 -20.553 400.464)" gradientUnits="userSpaceOnUse" r="120.998"><stop offset=".1103" stop-color="#e4d5f4"/><stop offset=".1793" stop-color="#d8c4db"/><stop offset=".3445" stop-color="#be9ea3"/><stop offset=".4675" stop-color="#ad8680"/><stop offset=".5337" stop-color="#a77d73"/><stop offset=".8503" stop-color="#845c52"/></radialGradient><radialGradient id="SVGID_20_" cx="200.143" cy="275.826" gradientTransform="matrix(.649 -.761 .616 .526 -99.588 283.101)" gradientUnits="userSpaceOnUse" r="108.456"><stop offset=".1103" stop-color="#e4d5f4"/><stop offset=".2058" stop-color="#d8c3da"/><stop offset=".4087" stop-color="#b89698"/><stop offset=".5144" stop-color="#a77d73"/><stop offset=".7848" stop-color="#98695e"/><stop offset=".9858" stop-color="#a77d73"/></radialGradient><radialGradient id="SVGID_21_" cx="128.817" cy="153.118" gradientTransform="matrix(.604 -.797 1.505 1.14 -179.42 81.256)" gradientUnits="userSpaceOnUse" r="34.337"><stop offset=".3385" stop-color="#a77d73"/><stop offset=".4702" stop-color="#9f766c"/><stop offset=".6724" stop-color="#8a6157"/><stop offset=".7174" stop-color="#845c52"/></radialGradient><radialGradient id="SVGID_22_" cx="122.22" cy="152.41" gradientTransform="matrix(.163 .987 -.688 .113 207.147 14.538)" gradientUnits="userSpaceOnUse" r="19.852"><stop offset="0" stop-color="#a77d73"/><stop offset=".2185" stop-color="#a07369"/><stop offset=".3814" stop-color="#98695e"/><stop offset=".576" stop-color="#93655a"/><stop offset=".8171" stop-color="#835950"/><stop offset="1" stop-color="#734d45"/></radialGradient><radialGradient id="SVGID_23_" cx="328.145" cy="408.786" gradientTransform="matrix(.931 0 0 .112 -31.713 309.78)" gradientUnits="userSpaceOnUse" r="242.342"><stop offset="0" stop-color="#ceb4af"/><stop offset=".1849" stop-color="#d8c3bf"/><stop offset=".4962" stop-color="#e7d8d5"/><stop offset=".8982" stop-color="#fff"/></radialGradient><g><path d="m386.436 308.677-18.975 32.866c-1.042 1.804-2.967 2.916-5.05 2.916h-.956c-4.987 0-9.03 4.043-9.03 9.03v1.707h38l26.858-46.519z" fill="url(#SVGID_1_)"/><path d="m451.752 308.677-18.975 32.866c-1.042 1.804-2.967 2.916-5.05 2.916h-.956c-4.987 0-9.03 4.043-9.03 9.03v1.707h38l26.858-46.519z" fill="url(#SVGID_2_)"/><path d="m138.578 197.006h-138.13l3.367 13.165c3.421 13.377 15.474 22.735 29.281 22.735h98.173z" fill="url(#SVGID_3_)"/><path d="m65.321 232.907c7.914 7.914 18.647 12.36 29.839 12.36h33.593l2.516-12.36z" fill="url(#SVGID_4_)"/><path d="m141.175 184.247.99-4.863h-128.035c-4.324 0-8.104 1.911-10.664 4.863-2.898 3.342-4.232 8.016-3.019 12.759h138.13z" fill="url(#SVGID_5_)"/><path d="m98.938 147.507h-16.49v-19.51h2.202c7.891 0 14.288 6.397 14.288 14.288z" fill="url(#SVGID_6_)"/><path d="m89.01 147.507h-6.562v-19.51c3.624 0 6.562 2.938 6.562 6.562z" fill="url(#SVGID_7_)"/><path d="m152.32 129.505h-33.593c-15.92 0-31.507 4.568-44.909 13.161h-10.336c-5.915 0-10.709 4.795-10.709 10.709v2.785l-36.223 23.225h125.617z" fill="url(#SVGID_8_)"/><path d="m401.645 286.638v-71.158c0-20.686-16.769-37.455-37.455-37.455-20.686 0-37.455 16.769-37.455 37.455v20.948c0 22.759 9.041 44.586 25.134 60.679l11.439 11.439c14.89 14.89 39.013 14.949 53.975.131l-11.111-11.111c-2.899-2.898-4.527-6.829-4.527-10.928z" fill="url(#SVGID_9_)"/><path d="m180.151 233.419c-14.112.891-25.64 12.271-26.696 26.371-.825 11.008 4.578 20.823 13.051 26.289 8.794 5.673 14.127 15.401 14.127 25.867v28.925c0 1.963-1.591 3.554-3.554 3.554h-.871c-3.505 0-6.347 2.842-6.347 6.347v4.425h40.785v-93.199c.001-16.431-13.837-29.63-30.495-28.579z" fill="url(#SVGID_10_)"/><path d="m488.574 285.577h-1.612c-3.785 0-6.853-3.068-6.853-6.853v-87.987l2.367 4.782c4.011 8.105 6.098 17.026 6.098 26.069z" fill="url(#SVGID_11_)"/><path d="m393.794 129.505h-232.398l-24.226 115.762 30.406 13.281c8.923 9.56 10.42 7.972 23.497 7.972 49.614 27.008 98.273 48.242 154.95 48.242h47.771c51.157 0 92.628-41.471 92.628-92.628 0-51.158-41.471-92.629-92.628-92.629z" fill="url(#SVGID_12_)"/><g><g><path d="m229.058 273.534c-13.077 0-25.568-5.427-34.491-14.987l-49.156-52.66-8.241 39.379 12.397 13.281c8.923 9.56 21.414 14.987 34.491 14.987 49.614 27.008 105.288 41.227 161.965 41.227h45c-56.677 0-112.35-14.219-161.965-41.227z" fill="url(#SVGID_13_)"/></g><g><path d="m229.058 273.534c-13.077 0-25.568-5.427-34.491-14.987l-49.156-52.66-8.241 39.379 12.397 13.281c8.923 9.56 21.414 14.987 34.491 14.987 49.614 27.008 105.288 41.227 161.965 41.227h45c-56.677 0-112.35-14.219-161.965-41.227z" fill="url(#SVGID_14_)"/></g></g><path d="m137.17 245.267 5.751 6.161c13.705-.523 24.655-11.798 24.655-25.631v-96.292h-15.256z" fill="url(#SVGID_15_)"/><path d="m37.407 210.171c3.421 13.377 15.474 22.735 29.281 22.735h32.225c7.914 7.914 18.647 12.36 29.839 12.36h6.993c14.166 0 25.65-11.484 25.65-25.65v-81.036c0-5.013-4.063-9.076-9.076-9.076-15.92 0-31.507 4.568-44.909 13.161h-10.336c-5.915 0-10.709 4.795-10.709 10.709v2.785l-36.223 23.225h-2.419c-9.219 0-15.966 8.69-13.682 17.622z" fill="url(#SVGID_16_)"/><path d="m466.96 286.638v-71.158c0-20.686-16.769-37.455-37.455-37.455-20.686 0-37.455 16.769-37.455 37.455v20.948c0 22.759 9.041 44.586 25.134 60.679l11.439 11.439c14.89 14.89 39.013 14.949 53.975.131l-11.111-11.111c-2.898-2.898-4.527-6.829-4.527-10.928z" fill="url(#SVGID_17_)"/><path d="m245.467 233.419c-14.112.891-25.64 12.271-26.696 26.371-.825 11.008 4.578 20.823 13.051 26.289 8.794 5.673 14.127 15.401 14.127 25.867v28.925c0 1.963-1.591 3.554-3.554 3.554h-.871c-3.505 0-6.347 2.842-6.347 6.347v4.425h40.785v-93.199c0-16.431-13.838-29.63-30.495-28.579z" fill="url(#SVGID_18_)"/><path d="m442.218 308.546-11.439-11.439c-16.093-16.093-25.134-37.92-25.134-60.679v-20.948c0-18.365 13.217-33.642 30.658-36.839-2.205-.404-4.477-.616-6.798-.616-20.686 0-37.455 16.769-37.455 37.455v20.948c0 22.759 9.041 44.586 25.134 60.679l11.439 11.439c9.204 9.204 21.937 12.741 33.853 10.6-7.422-1.333-14.524-4.867-20.258-10.6z" fill="url(#SVGID_19_)"/><path d="m255.12 344.425h.871c1.963 0 3.554-1.591 3.554-3.554v-28.925c0-10.465-5.333-20.194-14.127-25.867-8.473-5.466-13.876-15.281-13.051-26.289.93-12.416 9.98-22.723 21.764-25.616-2.754-.671-5.663-.944-8.664-.755-14.112.891-25.64 12.271-26.696 26.371-.825 11.008 4.578 20.823 13.051 26.289 8.794 5.673 14.127 15.402 14.127 25.867v28.925c0 1.963-1.591 3.554-3.554 3.554h-.871c-3.505 0-6.347 2.842-6.347 6.347v4.425h13.596v-4.425c0-3.506 2.842-6.347 6.347-6.347z" fill="url(#SVGID_20_)"/><path d="m141.013 147.507h-10.283l-6.208-19.51h2.202c7.891 0 14.288 6.397 14.288 14.288v5.222z" fill="url(#SVGID_21_)"/><path d="m131.085 147.507h-.355c-3.428 0-6.208-2.779-6.208-6.208v-13.303c3.624 0 6.562 2.938 6.562 6.562v12.949z" fill="url(#SVGID_22_)"/><path d="m276.875 384.003c129.856 0 235.125-12.897 235.125-28.807h-470.25c0 15.91 105.269 28.807 235.125 28.807z" fill="url(#SVGID_23_)"/></g></svg>