<svg xmlns="http://www.w3.org/2000/svg" viewBox="0 0 650 368.1"><defs><style>.cls-1{fill:#675750;}.cls-2{fill:#f4812e;}.cls-3{fill:#86736a;}.cls-4{fill:#9f736b;}.cls-5{fill:#574844;}.cls-6{fill:#77675f;}</style></defs><title>Hippo</title><g id="Layer_2" data-name="Layer 2"><g id="Слой_1" data-name="Слой 1"><path class="cls-1" d="M558.68,281.05v12.09L532,357.43a17.26,17.26,0,0,1-15.94,10.65H555A19.64,19.64,0,0,0,573.09,356l26.08-62.82V265.21C589,273.33,581.33,274.58,558.68,281.05Z"/><path class="cls-1" d="M293.58,289.47v3.67l-12.9,31.12,2.9,11.32L274,340.37l-8.75,21.09a10.82,10.82,0,0,1-9.95,6.62v0h52a17.37,17.37,0,0,0,16-10.72L345.94,303H323.25Z"/><path class="cls-2" d="M26.84,73.08l-3.71-.64L19.88,85c1.66-.21,3.64-.42,6-.66Z"/><path class="cls-2" d="M44.47,76.26l-3.76.28L40.62,83l4.84-.42Z"/><path class="cls-3" d="M645.63,245.08c-8.26,0-18.36-17-18.36-17-9.72,14.83-16.71,28-28.12,37.13-10.1,8.09-17.62,9.3-40.49,15.82v12.1L532,357.44a17.31,17.31,0,0,1-15.93,10.63H464c0-5.89-1.31-17.72,10.73-23.72l17.56-8.78-8.78-26.34c-14.73,2.42-30.87.63-48.48-6.21H323.25L293.6,289.46v3.68l-12.94,31.13L274,340.36l-8.72,21.08a10.77,10.77,0,0,1-9.94,6.63H198.85c0-12.78,5.68-21.25,14.67-25.66l13.62-6.84-22.51-87.7L88.69,167.47c-5.73-3.84-6.31-8.1-12.83-25.61L6.56,115c-8.57-3.32-9.15-14.15.68-24,7.21-7.21,1.27-4.84,64.84-10.89,1.15-9.88,1.2-5.88,0-16,0,0-58.42,5.68-58.42-13C13.66,21.88,34.37,0,55.62,0S87.85,21,87.85,21c29.92,14.67,34.34,17,43.48,21.08a14.48,14.48,0,0,1,13.46-8.35c8,0,14.46,5.89,14.46,13.19a12.1,12.1,0,0,1-1.94,6.47c5.36.84,9.31.84,18.93.84l24.4-3,10.93,17.15c21.45-6.84,42.49-16.78,62.2,2.78l106.06,5.68C415.43,68,446.4,63.41,473.37,62.2,681.59,52.53,650.31,243.19,645.63,245.08Z"/><path class="cls-2" d="M215.59,349.24v18.84H204.23C206.6,355.07,215.59,349.24,215.59,349.24Z"/><path class="cls-2" d="M281.34,349.24v18.84H270C272.35,355.07,281.34,349.24,281.34,349.24Z"/><path class="cls-2" d="M489.2,349.24v18.84H477.83C480.21,355.07,489.2,349.24,489.2,349.24Z"/><path class="cls-2" d="M545.71,349.26V368.1H534.34C536.71,355.09,545.71,349.26,545.71,349.26Z"/><path class="cls-4" d="M323.27,303,208.75,250.73,88.69,167.48c-5.84-4-6.52-8.71-12.84-25.62L207.7,188.57C218.66,192.45,211.93,187.57,323.27,303Z"/><path class="cls-4" d="M199.58,56.86c-4.45,7.89-29.35,9.29-29.35,9.29s-6.13-7.21-5.87-8.09,9.07-6.11,12.56-8.65C194.58,36.52,203.89,49.19,199.58,56.86Z"/><path class="cls-5" d="M152.05,47.78a7.24,7.24,0,1,1-7.24-7.23A7.24,7.24,0,0,1,152.05,47.78Z"/><path class="cls-5" d="M62.5,8.29c-.7-7.43-15.18-6.67-16-1.54,8.5-.44,5.36,3.88-1.07,3.88C44.11,16.29,63.33,16.93,62.5,8.29Z"/><path class="cls-6" d="M645.63,245.08c-8.26,0-18.36-17-18.36-17-9.72,14.83-16.71,28-28.12,37.13-10.1,8.09-17.62,9.3-40.49,15.82l-75.19,28.19c-14.73,2.42-30.87.63-48.48-6.21H422.26l-66-157.79,117.15-83C681.59,52.53,650.31,243.19,645.63,245.08Z"/></g></g></svg>