<svg xmlns="http://www.w3.org/2000/svg" viewBox="0 0 650 505.3"><defs><style>.cls-1{fill:#fbd236;}.cls-2{fill:#f06923;}.cls-3{fill:#361f13;}.cls-4{fill:#502610;}.cls-5{fill:#281510;}.cls-6{fill:#d8c6aa;}.cls-7{fill:#5b2816;}.cls-8{fill:#749f40;}</style></defs><title>Horse</title><g id="Layer_2" data-name="Layer 2"><g id="Слой_1" data-name="Слой 1"><path class="cls-1" d="M70.76,75.89,67.17,25.3S70,15,120.68,19.7c104.53,9.65,146.18,145,146.18,145l-37,9.07-85.07-52.39Z"/><polygon class="cls-2" points="124.68 78.24 233.34 154.62 160.7 264.65 98.68 172.81 124.68 78.24"/><path class="cls-1" d="M466,193.08c21.81-88.42,141.29-92.47,184-16.39l-58.08,46c-21.74-47.5-82-31.73-90.32-5.78Z"/><polygon class="cls-2" points="437.45 384.46 407.73 384.46 386.36 323.21 437.45 323.21 437.45 384.46"/><path class="cls-3" d="M407.73,474.36a37.28,37.28,0,0,0-16.2,30.94h45.92V474.36Z"/><rect class="cls-2" x="407.73" y="384.46" width="29.73" height="89.9"/><polygon class="cls-2" points="222.34 384.46 192.61 384.46 171.24 315.88 222.34 315.88 222.34 384.46"/><path class="cls-3" d="M192.61,474.36a37.28,37.28,0,0,0-16.2,30.94h45.93V474.36Z"/><rect class="cls-2" x="192.61" y="384.46" width="29.73" height="89.9"/><path class="cls-2" d="M466.06,153.7H178.53c-3.2,0-44.6,43.19-44.6,43.19l26.77,67.76v27.68c0,21.93,16.74,39.7,37.39,39.7h268c20.65,0,37.39-17.77,37.39-39.7V193.4C503.45,171.48,486.71,153.7,466.06,153.7Z"/><polygon class="cls-2" points="486.36 384.46 456.63 384.46 435.27 323.21 486.36 323.21 486.36 384.46"/><path class="cls-4" d="M456.63,474.36a37.29,37.29,0,0,0-16.19,30.94h45.92V474.36Z"/><rect class="cls-2" x="456.63" y="384.46" width="29.73" height="89.9"/><polygon class="cls-2" points="271.39 384.46 241.67 384.46 220.31 323.21 271.39 323.21 271.39 384.46"/><path class="cls-4" d="M241.67,474.36a37.28,37.28,0,0,0-16.2,30.94h45.92V474.36Z"/><rect class="cls-2" x="241.67" y="384.46" width="29.73" height="89.9"/><path class="cls-4" d="M87.25,68.57c5-28,31.78-50.45,57.33-62.75,1.37,27.39-4.33,56.85-23.52,76.43A84.28,84.28,0,0,0,87.25,68.57Z"/><path class="cls-4" d="M23.71,76.43C4.52,56.85-1.18,27.38.2,0,25.74,12.3,52.52,34.75,57.52,62.75A84.14,84.14,0,0,0,23.71,76.43Z"/><path class="cls-2" d="M133.75,111.74c0-35.78-28.2-64.79-63-64.79s-63,29-63,64.79a65.13,65.13,0,0,0,29,54.49v38.62h67.95V166.23A65.14,65.14,0,0,0,133.75,111.74Z"/><path class="cls-1" d="M70.77,234.72c-31.39,0-48.21-31-34.2-41.54h68.17C118.71,203.73,102.2,234.72,70.77,234.72Z"/><path class="cls-5" d="M52.44,217.27c0,4.25-2.52,7.69-5.64,7.69s-5.66-3.44-5.66-7.69,2.54-7.68,5.66-7.68S52.44,213,52.44,217.27Z"/><path class="cls-5" d="M100.38,217.27c0,4.25-2.53,7.69-5.65,7.69s-5.66-3.44-5.66-7.69,2.53-7.68,5.66-7.68S100.38,213,100.38,217.27Z"/><path class="cls-5" d="M36.57,134.68c0,4.48-4.19,8.13-9.34,8.13s-9.35-3.65-9.35-8.13,4.18-8.13,9.35-8.13S36.57,130.19,36.57,134.68Z"/><path class="cls-6" d="M33.18,131.87A3,3,0,0,1,30,134.68a2.84,2.84,0,1,1,0-5.62A3,3,0,0,1,33.18,131.87Z"/><path class="cls-5" d="M123.65,134.68c0,4.48-4.2,8.13-9.35,8.13s-9.33-3.65-9.33-8.13,4.18-8.13,9.33-8.13S123.65,130.19,123.65,134.68Z"/><path class="cls-6" d="M120.26,131.87a3.26,3.26,0,1,1-3.23-2.81A3,3,0,0,1,120.26,131.87Z"/><path class="cls-7" d="M347.92,242.14V180.88H329.5v61.26H296.25l.2,5.55a42.28,42.28,0,0,0,84.52,0l.2-5.55Zm-9.21,35.66a31.44,31.44,0,0,1-30.86-24.92h61.72A31.44,31.44,0,0,1,338.71,277.8Z"/><path class="cls-8" d="M394,153.7c0,22.11-24.76,40.08-55.33,40.08s-55.33-18-55.33-40.08Z"/><path class="cls-1" d="M95,97.55c0,15.66-12.44,28.35-27.79,28.35s-27.8-12.69-27.8-28.35S51.81,69.2,67.17,69.2,95,81.89,95,97.55Z"/></g></g></svg>