<svg id="Capa_1" enable-background="new 0 0 512 512" height="512" viewBox="0 0 512 512" width="512" xmlns="http://www.w3.org/2000/svg" xmlns:xlink="http://www.w3.org/1999/xlink"><linearGradient id="SVGID_1_" gradientTransform="matrix(.889 0 0 .866 181.631 121.412)" gradientUnits="userSpaceOnUse" x1="162.594" x2="194.667" y1="317.306" y2="328.834"><stop offset=".1359" stop-color="#b94029"/><stop offset=".4056" stop-color="#ce4529"/><stop offset=".847" stop-color="#ce4529"/></linearGradient><radialGradient id="SVGID_2_" cx="259.482" cy="228.886" gradientTransform="matrix(.931 0 0 .112 11.619 460.316)" gradientUnits="userSpaceOnUse" r="221.621"><stop offset="0" stop-color="#ffc3ac"/><stop offset=".1527" stop-color="#ffcbb8"/><stop offset=".4962" stop-color="#ffdace"/><stop offset=".8982" stop-color="#fff"/></radialGradient><radialGradient id="SVGID_3_" cx="420.37" cy="249.847" gradientTransform="matrix(.15 -.989 .588 .089 210.302 643.119)" gradientUnits="userSpaceOnUse" r="97.208"><stop offset="0" stop-color="#523838"/><stop offset=".0776" stop-color="#674039"/><stop offset=".208" stop-color="#844b3b"/><stop offset=".3373" stop-color="#99533c"/><stop offset=".464" stop-color="#a6573d"/><stop offset=".5847" stop-color="#aa593d"/><stop offset=".8789" stop-color="#9b5138"/><stop offset="1" stop-color="#934d36"/></radialGradient><linearGradient id="SVGID_4_" gradientUnits="userSpaceOnUse" x1="139.781" x2="181.819" y1="431.123" y2="387.045"><stop offset=".7575" stop-color="#ce4529"/><stop offset=".8812" stop-color="#c14229"/><stop offset="1" stop-color="#b94029"/></linearGradient><radialGradient id="SVGID_5_" cx="181.946" cy="262.608" gradientTransform="matrix(.482 .876 -.676 .371 271.774 5.634)" gradientUnits="userSpaceOnUse" r="105.94"><stop offset="0" stop-color="#b94029"/><stop offset=".6694" stop-color="#b94029"/><stop offset=".7096" stop-color="#be4129"/><stop offset=".8559" stop-color="#ca4429"/><stop offset="1" stop-color="#ce4529"/></radialGradient><radialGradient id="SVGID_6_" cx="248.373" cy="242.888" gradientTransform="matrix(.041 .999 -1.433 .059 586.18 -19.623)" gradientUnits="userSpaceOnUse" r="115.147"><stop offset=".0055" stop-color="#ce4529"/><stop offset=".7359" stop-color="#b94029"/><stop offset=".7584" stop-color="#bc4129"/><stop offset=".884" stop-color="#c94429"/><stop offset=".9976" stop-color="#ce4529"/></radialGradient><linearGradient id="lg1"><stop offset="0" stop-color="#664545"/><stop offset=".5881" stop-color="#7f5656"/><stop offset="1" stop-color="#8b5e5e"/></linearGradient><radialGradient id="SVGID_7_" cx="2889.74" cy="483.478" gradientTransform="matrix(-.872 -.403 -.323 .771 2826.604 1275.636)" gradientUnits="userSpaceOnUse" r="27.111" xlink:href="#lg1"/><radialGradient id="SVGID_8_" cx="2837.221" cy="483.478" gradientTransform="matrix(-.872 -.403 -.323 .771 2830.847 1254.468)" gradientUnits="userSpaceOnUse" r="27.111" xlink:href="#lg1"/><radialGradient id="SVGID_9_" cx="169.963" cy="468.18" gradientTransform="matrix(-.862 -.506 .312 -.532 170.264 803.323)" gradientUnits="userSpaceOnUse" r="25.246"><stop offset="0" stop-color="#cbafaf"/><stop offset=".314" stop-color="#bf9d9d"/><stop offset=".9384" stop-color="#a07070"/><stop offset="1" stop-color="#9d6b6b"/></radialGradient><radialGradient id="SVGID_10_" cx="2681.663" cy="483.478" gradientTransform="matrix(-.872 -.403 -.323 .771 2843.415 1191.768)" gradientUnits="userSpaceOnUse" r="28.712" xlink:href="#lg1"/><radialGradient id="SVGID_11_" cx="2629.144" cy="483.478" gradientTransform="matrix(-.872 -.403 -.323 .771 2847.658 1170.6)" gradientUnits="userSpaceOnUse" r="28.712" xlink:href="#lg1"/><radialGradient id="SVGID_12_" cx="366.493" cy="468.18" gradientTransform="matrix(-.862 -.506 .312 -.532 536.266 902.838)" gradientUnits="userSpaceOnUse" r="25.246"><stop offset="0" stop-color="#9d6b6b"/><stop offset=".9778" stop-color="#8b5e5e"/><stop offset="1" stop-color="#8b5e5e"/></radialGradient><linearGradient id="SVGID_13_" gradientUnits="userSpaceOnUse" x1="170.007" x2="220.565" y1="110.521" y2="98.105"><stop offset="0" stop-color="#7a402b"/><stop offset=".0169" stop-color="#7c412c"/><stop offset=".3872" stop-color="#9d5238"/><stop offset=".589" stop-color="#aa593d"/></linearGradient><radialGradient id="SVGID_14_" cx="293.443" cy="124.587" gradientUnits="userSpaceOnUse" r="205.977"><stop offset="0" stop-color="#e4936b"/><stop offset=".1449" stop-color="#e38d61"/><stop offset=".3814" stop-color="#e27d47"/><stop offset=".5334" stop-color="#e07844"/><stop offset=".7221" stop-color="#db683c"/><stop offset=".9295" stop-color="#d24f2f"/><stop offset="1" stop-color="#ce4529"/></radialGradient><radialGradient id="SVGID_15_" cx="102.254" cy="174.714" gradientTransform="matrix(0 -1 .674 0 -15.453 276.968)" gradientUnits="userSpaceOnUse" r="118.414"><stop offset="0" stop-color="#f9efaf"/><stop offset=".166" stop-color="#f2ce91"/><stop offset=".5893" stop-color="#e27d47"/><stop offset=".6831" stop-color="#dd6f40"/><stop offset="1" stop-color="#ce4529"/></radialGradient><radialGradient id="SVGID_16_" cx="206.487" cy="136.848" gradientTransform="matrix(0 -1 .889 0 84.776 343.335)" gradientUnits="userSpaceOnUse" r="97.763"><stop offset="0" stop-color="#e27d47"/><stop offset=".4061" stop-color="#e27b46"/><stop offset=".5521" stop-color="#e07441"/><stop offset=".6534" stop-color="#dd6938"/><stop offset=".7669" stop-color="#da6235"/><stop offset=".9285" stop-color="#d2502d"/><stop offset="1" stop-color="#ce4529"/></radialGradient><linearGradient id="SVGID_17_" gradientUnits="userSpaceOnUse" x1="189.802" x2="231.841" y1="431.123" y2="387.045"><stop offset=".7575" stop-color="#dd542e"/><stop offset=".85" stop-color="#d64d2c"/><stop offset="1" stop-color="#ce4529"/></linearGradient><linearGradient id="SVGID_18_" gradientUnits="userSpaceOnUse" x1="192.768" x2="192.768" y1="475.814" y2="385.397"><stop offset=".2231" stop-color="#dd6938"/><stop offset=".6193" stop-color="#dd5c32"/><stop offset="1" stop-color="#dd542e"/></linearGradient><linearGradient id="SVGID_19_" gradientTransform="matrix(.889 0 0 .866 181.631 121.412)" gradientUnits="userSpaceOnUse" x1="218.868" x2="250.941" y1="317.306" y2="328.834"><stop offset=".1359" stop-color="#ce4529"/><stop offset=".4056" stop-color="#dd542e"/><stop offset=".847" stop-color="#dd542e"/></linearGradient><linearGradient id="SVGID_20_" gradientUnits="userSpaceOnUse" x1="374.838" x2="408.118" y1="395.675" y2="407.636"><stop offset=".1359" stop-color="#ce4529"/><stop offset=".4056" stop-color="#dd542e"/><stop offset=".847" stop-color="#dd6938"/></linearGradient><radialGradient id="SVGID_21_" cx="189.807" cy="261.892" gradientTransform="matrix(.703 -.712 .549 .542 -87.244 255.048)" gradientUnits="userSpaceOnUse" r="105.94"><stop offset="0" stop-color="#e4936b"/><stop offset=".2447" stop-color="#e38351"/><stop offset=".3927" stop-color="#e27d47"/><stop offset=".544" stop-color="#e17442"/><stop offset=".7887" stop-color="#de5c33"/><stop offset=".8597" stop-color="#dd542e"/></radialGradient><linearGradient id="SVGID_22_" gradientUnits="userSpaceOnUse" x1="130.297" x2="130.297" y1="263.174" y2="263.174"><stop offset=".0457" stop-color="#ffdace"/><stop offset=".0963" stop-color="#facab7"/><stop offset=".2134" stop-color="#f0a987"/><stop offset=".3168" stop-color="#e89164"/><stop offset=".4013" stop-color="#e4824f"/><stop offset=".4565" stop-color="#e27d47"/><stop offset=".7264" stop-color="#e06b3c"/><stop offset=".9955" stop-color="#dd542e"/></linearGradient><linearGradient id="lg2"><stop offset="0" stop-color="#ffdace"/><stop offset=".1962" stop-color="#f1ae8e"/><stop offset=".371" stop-color="#e68b5b"/><stop offset=".4565" stop-color="#e27d47"/><stop offset=".616" stop-color="#e17844"/><stop offset=".8136" stop-color="#df683a"/><stop offset=".9955" stop-color="#dd542e"/></linearGradient><radialGradient id="SVGID_23_" cx="100.499" cy="-.662" gradientUnits="userSpaceOnUse" r="48.341" xlink:href="#lg2"/><linearGradient id="lg3"><stop offset="0" stop-color="#b94029"/><stop offset=".1429" stop-color="#c34f31"/><stop offset=".4307" stop-color="#d4683d"/><stop offset=".6926" stop-color="#de7844"/><stop offset=".9037" stop-color="#e27d47"/></linearGradient><radialGradient id="SVGID_24_" cx="106.984" cy="25.013" gradientUnits="userSpaceOnUse" r="29.582" xlink:href="#lg3"/><radialGradient id="SVGID_25_" cx="66.267" cy="34.178" gradientTransform="matrix(.707 -.707 .553 .553 .499 62.125)" gradientUnits="userSpaceOnUse" r="74.26"><stop offset=".1096" stop-color="#fff9e2"/><stop offset=".1906" stop-color="#fff0d9"/><stop offset=".6064" stop-color="#ffc3ac"/><stop offset=".8372" stop-color="#f1b294"/><stop offset="1" stop-color="#eaaa89"/></radialGradient><radialGradient id="SVGID_26_" cx="41.306" cy="105.933" gradientTransform="matrix(-1 0 0 -.66 82.612 175.877)" gradientUnits="userSpaceOnUse" r="49.584"><stop offset="0" stop-color="#eaaa89"/><stop offset=".3765" stop-color="#e79b73"/><stop offset=".9955" stop-color="#e27d47"/></radialGradient><radialGradient id="SVGID_27_" cx="85.028" cy="26.952" gradientTransform="matrix(.857 -.515 .285 .473 4.489 58.012)" gradientUnits="userSpaceOnUse" r="62.663"><stop offset="0" stop-color="#fbf6ec"/><stop offset=".1541" stop-color="#ecd3c5"/><stop offset=".4977" stop-color="#c67b63"/><stop offset=".5641" stop-color="#be694f"/><stop offset=".6146" stop-color="#b36249"/><stop offset=".7724" stop-color="#944f39"/><stop offset=".9065" stop-color="#81442f"/><stop offset="1" stop-color="#7a402b"/></radialGradient><radialGradient id="SVGID_28_" cx="141.168" cy="-5.289" gradientUnits="userSpaceOnUse" r="48.341" xlink:href="#lg2"/><radialGradient id="SVGID_29_" cx="138.977" cy="25.013" gradientUnits="userSpaceOnUse" r="29.582" xlink:href="#lg3"/><radialGradient id="SVGID_30_" cx="77.45" cy="863.3" gradientTransform="matrix(.766 -.643 .383 .457 -222.749 -229.012)" gradientUnits="userSpaceOnUse" r="146.032"><stop offset=".4565" stop-color="#e27d47"/><stop offset=".8369" stop-color="#df6136"/><stop offset=".9879" stop-color="#dd542e"/></radialGradient><radialGradient id="SVGID_31_" cx="164.766" cy="273.229" gradientTransform="matrix(.649 -.761 .616 .526 -110.397 254.963)" gradientUnits="userSpaceOnUse" r="116.463"><stop offset=".1103" stop-color="#fbf4c6"/><stop offset=".1888" stop-color="#f6deaf"/><stop offset=".3925" stop-color="#ebaa77"/><stop offset=".5442" stop-color="#e58954"/><stop offset=".6259" stop-color="#e27d47"/><stop offset=".9183" stop-color="#dd542e"/></radialGradient><radialGradient id="SVGID_32_" cx="302.671" cy="284.395" gradientTransform="matrix(-.836 -.548 .786 -1.199 332.149 791.438)" gradientUnits="userSpaceOnUse" r="106.964"><stop offset="0" stop-color="#e4936b"/><stop offset=".3445" stop-color="#e27d47"/><stop offset=".5369" stop-color="#e17844"/><stop offset=".7805" stop-color="#df683a"/><stop offset=".9955" stop-color="#dd542e"/></radialGradient><radialGradient id="SVGID_33_" cx="309.712" cy="249.43" gradientTransform="matrix(-.823 -.569 .846 -1.223 353.523 730.651)" gradientUnits="userSpaceOnUse" r="121.349"><stop offset=".0039" stop-color="#fff9c1"/><stop offset=".3854" stop-color="#e27d47"/><stop offset=".5675" stop-color="#e06a3b"/><stop offset=".8076" stop-color="#dd542e"/></radialGradient><g><path d="m333.292 468.266h19.099c6.675 0 12.087-5.411 12.087-12.087v-116.378l-22.902-7.565-8.284 25.57z" fill="url(#SVGID_1_)"/><path d="m256 512c118.753 0 215.021-11.794 215.021-26.343h-430.042c0 14.549 96.268 26.343 215.021 26.343z" fill="url(#SVGID_2_)"/><path d="m456.609 345.15c-5.859 0-10.608-4.749-10.608-10.608v-91.524c0-15.077-12.222-27.3-27.299-27.3v129.89c0 12.329 9.995 22.323 22.323 22.323 11.029 0 19.969-8.941 19.969-19.969v-2.813h-4.385z" fill="url(#SVGID_3_)"/><path d="m136.763 468.266h16.722c6.675 0 12.087-5.411 12.087-12.087v-97.576l-28.809 18.746z" fill="url(#SVGID_4_)"/><path d="m204.116 262.473c0-18.913-15.592-34.186-34.623-33.664-18.343.503-32.73 16.014-32.73 34.364v114.177c11.389 0 21.877-6.191 27.381-16.161l1.427-2.585 22.657-64.582c.781-2.225 2.083-4.256 3.887-5.774 7.338-6.179 12.001-15.432 12.001-25.775z" fill="url(#SVGID_5_)"/><path d="m358.505 265.589c2.879-6.068 4.454-12.875 4.36-20.059-.313-24.006-19.67-43.883-43.661-44.793-25.898-.983-47.202 19.721-47.202 45.4 0 9.214 2.743 17.787 7.456 24.947l53.834 86.723c9.903 0 19.318-4.301 25.801-11.787l5.385-6.218-8.002-61.487c-.566-4.35.149-8.764 2.029-12.726z" fill="url(#SVGID_6_)"/><path d="m123.513 485.657h30.537v-17.391h-17.287c-2.642 0-5.063 1.477-6.271 3.826z" fill="url(#SVGID_7_)"/><path d="m173.535 485.657h30.536v-17.391h-17.287c-2.642 0-5.063 1.477-6.271 3.826z" fill="url(#SVGID_8_)"/><path d="m196.521 468.266h-9.736c-2.642 0-5.063 1.477-6.271 3.826l-6.978 13.564h9.736l6.978-13.564c1.208-2.349 3.628-3.826 6.271-3.826z" fill="url(#SVGID_9_)"/><path d="m320.043 485.657h32.349v-17.391h-19.099c-2.642 0-5.063 1.477-6.271 3.826z" fill="url(#SVGID_10_)"/><path d="m370.064 485.657h32.349v-17.391h-19.099c-2.642 0-5.063 1.477-6.271 3.826z" fill="url(#SVGID_11_)"/><path d="m393.05 468.266h-9.736c-2.642 0-5.063 1.477-6.271 3.826l-6.978 13.564h9.736l6.978-13.564c1.209-2.349 3.629-3.826 6.271-3.826z" fill="url(#SVGID_12_)"/><path d="m200.723 186.338h66.871l-2.728-1.94c-6.986-4.969-15.32-7.688-23.892-7.796-14.815 0-27.735-10.532-30.722-25.042l-17.386-84.466c-3.749-18.267-8.167-32.317-27.033-42.794-7.592-4.216-16.195-6.439-24.875-6.428v9.737z" fill="url(#SVGID_13_)"/><path d="m370.165 186.338h-129.192c-19.506 0-36.325-13.71-40.258-32.816l-17.385-84.465c-4.825-23.444-25.464-40.268-49.4-40.268l-13.453 81.111 10.073 76.438 2.805 33.819c0 62.411 45.645 108.291 106.252 93.395l17.016-4.182c35.736-8.783 72.401-13.223 109.2-13.223h4.343c30.323 0 54.904-24.581 54.904-54.904-.001-30.323-24.582-54.905-54.905-54.905z" fill="url(#SVGID_14_)"/><path d="m143.843 220.158v-33.819-76.439l12.576-75.823c-6.812-3.397-14.465-5.288-22.489-5.288l-13.453 81.111v76.439 33.819c0 58.466 51.359 102.425 107.678 95.501-46.398-5.743-84.312-45.268-84.312-95.501z" fill="url(#SVGID_15_)"/><path d="m186.896 100.478c.769-1.332 1.456-2.688 2.065-4.064l-5.631-27.357c-2.404-11.679-8.732-21.714-17.437-28.846-11.285-4.446-23.667-3.576-34.125 1.611l-11.291 68.078v15.561c.594-.676 1.198-1.344 1.812-2.003 3.822-4.104 9.682-5.731 15.011-3.984 18.549 6.084 39.448-1.418 49.596-18.996z" fill="url(#SVGID_16_)"/><path d="m186.785 468.266h16.722c6.675 0 12.087-5.411 12.087-12.087v-97.576l-28.809 18.746z" fill="url(#SVGID_17_)"/><path d="m198.751 369.563-11.966 7.787v90.916h11.966z" fill="url(#SVGID_18_)"/><path d="m383.314 468.266h19.099c6.675 0 12.087-5.411 12.087-12.087v-116.378l-22.901-7.565-8.284 25.57v110.46z" fill="url(#SVGID_19_)"/><path d="m394.446 333.177-2.848-.941-8.284 25.57v110.46h10.879v-134.141z" fill="url(#SVGID_20_)"/><path d="m254.138 262.473c0-18.913-15.592-34.186-34.623-33.664-18.343.503-32.73 16.014-32.73 34.364v114.176c11.389 0 21.877-6.191 27.381-16.161l1.427-2.585 22.657-64.582c.781-2.225 2.083-4.256 3.887-5.774 7.338-6.178 12.001-15.431 12.001-25.774z" fill="url(#SVGID_21_)"/><path d="" fill="url(#SVGID_22_)"/><path d="m120.922 44.021h-19.56v-43.087c0-.788.918-1.221 1.526-.719l2.26 1.865c9.989 8.243 15.774 20.517 15.774 33.468z" fill="url(#SVGID_23_)"/><path d="m101.361.934v36.333h10.32v-8.474c0-10.361-3.703-20.288-10.298-28.065-.014.066-.022.135-.022.206z" fill="url(#SVGID_24_)"/><path d="m115.068 27.608v.006c-14.595.227-28.757 8.074-36.555 21.581l-27.78 48.116c-2.089 3.618-3.187 7.535-3.38 11.438l27.521 5.479 66.084-86.621h-25.89z" fill="url(#SVGID_25_)"/><path d="m60.039 132.045 2.959 1.709c1.358.784 2.841 1.156 4.304 1.156h25.273.003l-19.927-26.16h-25.298c-.455 9.219 4.143 18.362 12.686 23.295z" fill="url(#SVGID_26_)"/><path d="m92.364 44.628v5.749c7.798-13.507 21.96-21.353 36.555-21.581v-.006h5.565l9.19-10.917h-24.554c-14.777-.001-26.756 11.978-26.756 26.755z" fill="url(#SVGID_27_)"/><path d="m152.914 44.021h-19.56v-43.087c0-.788.918-1.221 1.526-.719l2.26 1.865c9.989 8.243 15.774 20.517 15.774 33.468z" fill="url(#SVGID_28_)"/><path d="m133.354.934v36.333h10.32v-8.474c0-10.361-3.703-20.288-10.298-28.065-.014.066-.022.135-.022.206z" fill="url(#SVGID_29_)"/><path d="m161.106 32.812c-20.206-11.221-45.738-3.633-57.294 16.383l-27.78 48.116c-7.021 12.161-2.855 27.712 9.307 34.733l2.959 1.709c4.123 2.38 9.394.968 11.775-3.155 3.509-6.079 7.696-11.74 12.479-16.877 3.822-4.104 9.682-5.731 15.011-3.983 18.55 6.084 39.449-1.418 49.597-18.996 11.759-20.367 4.588-46.468-16.054-57.93z" fill="url(#SVGID_30_)"/><path d="m198.642 263.138c0-16.665 11.879-30.946 27.774-33.816-2.175-.388-4.423-.568-6.721-.517-18.408.41-32.91 15.92-32.91 34.333v114.212h.124c6.523-.026 11.734-5.473 11.734-11.996v-102.216z" fill="url(#SVGID_31_)"/><path d="m408.527 265.589c2.879-6.068 4.454-12.875 4.36-20.059-.313-24.006-19.67-43.883-43.661-44.793-25.898-.983-47.202 19.721-47.202 45.4 0 9.214 2.743 17.787 7.456 24.947l53.834 86.723c9.903 0 19.318-4.301 25.801-11.787l5.385-6.218-8.002-61.487c-.566-4.35.148-8.764 2.029-12.726z" fill="url(#SVGID_32_)"/><path d="m341.48 271.083c-4.713-7.161-7.456-15.734-7.456-24.947 0-23.055 17.172-42.099 39.424-45.039-1.389-.185-2.797-.307-4.222-.361-25.898-.983-47.202 19.721-47.202 45.4 0 9.214 2.743 17.787 7.456 24.947l53.834 86.723c3.745 0 7.419-.615 10.892-1.785z" fill="url(#SVGID_33_)"/></g></svg>