<svg xmlns="http://www.w3.org/2000/svg" viewBox="0 0 650 384.57"><defs><style>.cls-1{fill:#512e22;}.cls-2{fill:#fbae17;}.cls-3{fill:#dc9427;}.cls-4{fill:#472415;}.cls-5{fill:#874c20;}</style></defs><title>Lion</title><g id="Layer_2" data-name="Layer 2"><g id="Слой_1" data-name="Слой 1"><path class="cls-1" d="M650,222.31l-.22,9a4.78,4.78,0,0,1-6.45,4.37l-21-7.81,1.2-7.81,21.1-2.59A4.78,4.78,0,0,1,650,222.31Z"/><path class="cls-2" d="M623.53,220c-43.51-4.54-103.86-34.26-144.24-92h0c6.75,9.92,12,27.23,17,45.53,32.54,30.37,75.4,49,126.05,54.25Z"/><path class="cls-3" d="M237.51,280.69,241.56,354l-9.69,3.5A24.2,24.2,0,0,0,218,370.38l-6.3,14.19h39.88L271,361.17l-.29-79.4A329.14,329.14,0,0,1,237.51,280.69Z"/><path class="cls-3" d="M444.76,280l-27.94-31.59c-7.14,3.21-14.24,6.13-21.28,8.82L429.85,297l12.37,40.29L422.91,361h-6.79a21,21,0,0,0-19.35,12.82l-4.57,10.8h50l30.7-45.85-12.26-50.07C452,286.75,448.8,284.64,444.76,280Z"/><path class="cls-2" d="M542.86,270.64l-35.7-57.22c-3.74-12.07-7.21-26.22-10.88-39.82-4.95-18.3-10.24-35.61-17-45.53-2.76-4.06-5.76-6.89-9.08-8-14.92-5.17-132.92,12-132.92,12s-39.39-17.45-42.72-17.54l-85.43,71.44c-9.8,62.77-3.7,24.66-27,168l-10.44,3.75a22.51,22.51,0,0,0-12.84,12l-6.61,14.91h39.86l26.1-30,9.32-74.86c3.24.38,6.57.72,9.95,1a329.14,329.14,0,0,0,33.23,1.08,367.13,367.13,0,0,0,124.8-24.57c7-2.69,14.14-5.61,21.28-8.82L444.76,280c4,4.67,7.26,6.78,15.9,8.68,9.43,2.06,25.3,3.85,55.78,8.41l12.38,40.27-19.31,23.6c-8,0-20.92-1.89-24.94,11.08l-3.88,12.56h48.13l30.71-45.86Z"/><path class="cls-4" d="M9.34,98.33,4.91,126.54.7,114.63A12.5,12.5,0,0,1,7.91,98.88Z"/><polygon class="cls-1" points="497.32 366.28 497.32 384.57 489.14 384.57 497.32 366.28"/><polygon class="cls-1" points="408.78 366.28 408.78 384.57 400.6 384.57 408.78 366.28"/><polygon class="cls-1" points="228.3 366.28 228.3 384.57 220.12 384.57 228.3 366.28"/><polygon class="cls-1" points="170.23 366.28 170.23 384.57 162.06 384.57 170.23 366.28"/><path class="cls-2" d="M83.79,46.28l-35.93,21C42.78,70.21,42.6,74.24,39,86.73L9.34,98.33,4.91,126.54c3.67,10.74,12.24,17.51,22.33,21,1.55,6.35,1,6.59,7.46,7.29l56.15,6L123,114.5Z"/><path class="cls-5" d="M234.34,25.14,181.64,5.37C121-18.76,83.79,46.28,83.79,46.28L123,114.5,90.85,160.9l17.85,43.81L191.42,297l17.71-111,85.43-71.47Z"/><path class="cls-4" d="M61.22,84.59a4,4,0,1,1-4-4A4,4,0,0,1,61.22,84.59Z"/><path class="cls-2" d="M123.85,50.57a15,15,0,0,1-8.76,19.33L104.52,41.81A15,15,0,0,1,123.85,50.57Z"/></g></g></svg>