<svg xmlns="http://www.w3.org/2000/svg" viewBox="0 0 469.87 771"><defs><style>.cls-1{fill:#4d2113;}.cls-2{fill:#4d2012;}.cls-3{fill:#ea7024;}.cls-4{fill:#80361b;}.cls-5{fill:#80351a;}.cls-6{fill:#662914;}.cls-7{fill:#e3af75;}.cls-8{fill:#9fa738;}.cls-9{fill:#fffffc;}</style></defs><title>Monkey</title><g id="Layer_2" data-name="Layer 2"><g id="Слой_1" data-name="Слой 1"><path class="cls-1" d="M453.42,508.07l-66.37,23c-34.52,12-73.94-4.91-85.57-39.53a44.58,44.58,0,0,0-56.78-27.9l-32,11.08-7-20.09,30-10.38c34.5-11.94,73.94,4.93,85.55,39.54A44.54,44.54,0,0,0,378,511.65L446.46,488a10.63,10.63,0,0,1,7,20.09Z"/><path class="cls-2" d="M178.58,465a120.64,120.64,0,0,0-57.49,226.7v-31.2a94.49,94.49,0,1,1,115,0v31.2A120.64,120.64,0,0,0,178.58,465Z"/><path class="cls-3" d="M100.28,677.32l19.28,58.78-8.79,23.25a8.48,8.48,0,0,0,4.39,10.94,9.58,9.58,0,0,0,12.48-5.54L155,693.09a12.45,12.45,0,0,0-5-15.33l-28.93-17.28Z"/><path class="cls-3" d="M256.87,677.32,237.59,736.1l8.79,23.25A8.48,8.48,0,0,1,242,770.29a9.57,9.57,0,0,1-12.48-5.54l-27.39-71.66a12.42,12.42,0,0,1,5-15.33l28.92-17.28Z"/><path class="cls-4" d="M16.28,400.17l-8.17,110,31.17,2,8.19-110c.6-8.21,8.24-14.41,17-13.82L151,394l2.18-29.1-86.52-5.61c-26-1.69-48.58,16.64-50.39,40.91Z"/><path class="cls-4" d="M322.86,251.62,266.65,142.18l-29,14.88,56.2,109.46a16.61,16.61,0,0,1-7.19,22.39l-80.36,41.28,14.86,29,80.39-41.28a49.21,49.21,0,0,0,21.28-66.25Z"/><path class="cls-3" d="M250.14,219.84c8,15.5,2.12,34.39-13.06,42.19s-33.92,1.53-41.89-14-2.12-34.4,13.06-42.18S242.17,204.34,250.14,219.84Z"/><path class="cls-3" d="M102.2,295.81c8,15.52,2.12,34.4-13.06,42.2s-33.93,1.53-41.89-14-2.12-34.4,13-42.19S94.23,280.31,102.2,295.81Z"/><path class="cls-5" d="M232.91,461.46a57,57,0,0,1-61.29,52.41h0a57.05,57.05,0,0,1-52.41-61.29l5-63.95a57,57,0,0,1,61.28-52.41h0a57,57,0,0,1,52.42,61.29Z"/><path class="cls-6" d="M222.66,233.94c21.28,41.45,5.41,92-35.44,113s-91.22,4.4-112.5-37-5.41-92,35.44-113S201.39,192.52,222.66,233.94Z"/><polygon class="cls-6" points="96.86 171.02 134.9 195.56 94.63 216.24 96.86 171.02"/><path class="cls-3" d="M223.49,311a48.72,48.72,0,0,1-21.07,65.58h0a48.71,48.71,0,0,1-65.58-21.08l-9.21-18a48.7,48.7,0,0,1,21.06-65.57h0A48.71,48.71,0,0,1,214.27,293Z"/><path class="cls-7" d="M214.51,271.08a28.69,28.69,0,0,0-54.22,14.17c-.88.38-1.78.59-2.62,1a40.45,40.45,0,0,0-4.64,3,28.7,28.7,0,1,0-13.81,50.87c.24.53.35,1.07.63,1.61a41.2,41.2,0,0,0,73.28-37.66c-.42-.84-1-1.55-1.52-2.35A28.69,28.69,0,0,0,214.51,271.08Z"/><path class="cls-6" d="M142.81,305.74a8.88,8.88,0,1,1-12.1-4.11A9,9,0,0,1,142.81,305.74Z"/><path class="cls-6" d="M195.41,274.45a8.88,8.88,0,1,1-12.08-4.11A9,9,0,0,1,195.41,274.45Z"/><path class="cls-8" d="M256.93,157.43C91.09,157.43,58.27,7.32,58,5.81l23-4.73L69.43,3.45,80.91,1.06C82,6.49,110.51,134,256.93,134,404.25,134,445.78,5.47,447.47,0l22.4,6.88C469.41,8.39,421.88,157.43,256.93,157.43Z"/><path class="cls-9" d="M200.47,341.27a5,5,0,0,1-2.21,6.73l-17,8.56a5,5,0,0,1-6.72-2.21h0a5,5,0,0,1,2.21-6.71l17-8.57a5,5,0,0,1,6.72,2.2Z"/><path class="cls-3" d="M264.42,123.27a26.12,26.12,0,0,1-11.29,35.18h0a26.13,26.13,0,0,1-35.19-11.3l-3.26-6.34A26.13,26.13,0,0,1,226,105.62h0a26.15,26.15,0,0,1,35.19,11.32Z"/><path class="cls-3" d="M.54,525.65c1-12.9,12.94-22.63,26.74-21.73h0c13.84.9,24.25,12.07,23.29,25l-.47,6.36c-1,12.9-12.94,22.62-26.76,21.74h0C9.53,556.09-.89,544.91.06,532Z"/></g></g></svg>