<svg id="Capa_1" enable-background="new 0 0 512 512" height="512" viewBox="0 0 512 512" width="512" xmlns="http://www.w3.org/2000/svg" xmlns:xlink="http://www.w3.org/1999/xlink"><linearGradient id="lg1"><stop offset="0" stop-color="#f4d8bc"/><stop offset=".106" stop-color="#f2cfab"/><stop offset=".3888" stop-color="#ecb883"/><stop offset=".6131" stop-color="#e8aa6a"/><stop offset=".7494" stop-color="#e7a561"/></linearGradient><radialGradient id="SVGID_1_" cx="290.249" cy="367.623" gradientTransform="matrix(.578 .816 -1.124 .795 535.681 -161.59)" gradientUnits="userSpaceOnUse" r="56.896" xlink:href="#lg1"/><linearGradient id="SVGID_2_" gradientUnits="userSpaceOnUse" x1="312.071" x2="316.059" y1="333.822" y2="275.874"><stop offset=".445" stop-color="#934d36"/><stop offset=".6256" stop-color="#8a4832"/><stop offset=".8207" stop-color="#7a402b"/></linearGradient><radialGradient id="SVGID_3_" cx="289.355" cy="241.013" gradientTransform="matrix(.703 -.712 .751 .741 -94.864 268.243)" gradientUnits="userSpaceOnUse" r="53.111"><stop offset="0" stop-color="#7a402b"/><stop offset="1" stop-color="#934d36"/></radialGradient><linearGradient id="SVGID_4_" gradientUnits="userSpaceOnUse" x1="134.426" x2="102.862" y1="341.538" y2="315.666"><stop offset=".3106" stop-color="#934d36"/><stop offset=".5356" stop-color="#8e4b34"/><stop offset=".787" stop-color="#81442e"/><stop offset=".8801" stop-color="#7a402b"/></linearGradient><radialGradient id="SVGID_5_" cx="71.55" cy="373.143" gradientTransform="matrix(.578 .816 -1.124 .795 449.504 18.071)" gradientUnits="userSpaceOnUse" r="51.402" xlink:href="#lg1"/><radialGradient id="SVGID_6_" cx="149.159" cy="240.88" gradientTransform="matrix(0 -1 .771 0 -36.573 390.04)" gradientUnits="userSpaceOnUse" r="74.492"><stop offset="0" stop-color="#7a402b"/><stop offset=".148" stop-color="#80432e"/><stop offset=".6051" stop-color="#8e4a34"/><stop offset="1" stop-color="#934d36"/></radialGradient><radialGradient id="SVGID_7_" cx="374.133" cy="202.471" gradientTransform="matrix(1 0 0 .646 0 71.701)" gradientUnits="userSpaceOnUse" r="259.644"><stop offset=".1486" stop-color="#934d36"/><stop offset=".1684" stop-color="#975038"/><stop offset=".2743" stop-color="#a95b43"/><stop offset=".403" stop-color="#b5634a"/><stop offset=".5778" stop-color="#bc684e"/><stop offset="1" stop-color="#be694f"/></radialGradient><radialGradient id="SVGID_8_" cx="-1.168" cy="84.378" gradientTransform="matrix(1 0 0 .783 0 18.355)" gradientUnits="userSpaceOnUse" r="86.722"><stop offset=".1096" stop-color="#f9efda"/><stop offset=".1675" stop-color="#f6e9d5"/><stop offset=".6064" stop-color="#e2bcaf"/><stop offset=".6419" stop-color="#e0b7aa"/><stop offset=".8709" stop-color="#d49b8b"/><stop offset="1" stop-color="#d09080"/></radialGradient><radialGradient id="SVGID_9_" cx="35.608" cy="116.47" gradientTransform="matrix(.578 .816 -1.124 .795 145.912 -5.196)" gradientUnits="userSpaceOnUse" r="89.046"><stop offset="0" stop-color="#fffbe4"/><stop offset=".0869" stop-color="#fbeed0"/><stop offset=".3604" stop-color="#f0c697"/><stop offset=".4918" stop-color="#ecb780"/></radialGradient><radialGradient id="SVGID_10_" cx="28.323" cy="138.732" gradientTransform="matrix(.578 .816 -1.124 .795 167.849 5.314)" gradientUnits="userSpaceOnUse" r="85.35"><stop offset="0" stop-color="#fff9d0"/><stop offset=".1078" stop-color="#fae6b7"/><stop offset=".2941" stop-color="#f2ca92"/><stop offset=".4674" stop-color="#ecb677"/><stop offset=".6209" stop-color="#e8a967"/><stop offset=".7389" stop-color="#e7a561"/></radialGradient><radialGradient id="SVGID_11_" cx="217.921" cy="135.789" gradientTransform="matrix(1 0 0 .646 0 48.087)" gradientUnits="userSpaceOnUse" r="238.013"><stop offset="0" stop-color="#d09080"/><stop offset=".0492" stop-color="#ce8c7b"/><stop offset=".242" stop-color="#c8816b"/><stop offset=".396" stop-color="#c67d66"/><stop offset=".5543" stop-color="#bf765f"/><stop offset=".7875" stop-color="#ab644d"/><stop offset="1" stop-color="#934d36"/></radialGradient><radialGradient id="SVGID_12_" cx="89.079" cy="178.492" gradientTransform="matrix(.707 .707 -.731 .731 156.494 -14.9)" gradientUnits="userSpaceOnUse" r="133.317"><stop offset="0" stop-color="#fff9d0"/><stop offset=".3644" stop-color="#e0b39b"/><stop offset=".5388" stop-color="#d09080"/><stop offset=".6644" stop-color="#c38270"/><stop offset=".9082" stop-color="#a15d47"/><stop offset="1" stop-color="#934d36"/></radialGradient><radialGradient id="SVGID_13_" cx="134.356" cy="185.573" gradientTransform="matrix(1 0 0 .781 0 40.69)" gradientUnits="userSpaceOnUse" r="61.983"><stop offset="0" stop-color="#934d36"/><stop offset=".2411" stop-color="#a35c45"/><stop offset=".7157" stop-color="#bc745d"/><stop offset="1" stop-color="#c67d66"/></radialGradient><linearGradient id="lg2"><stop offset="0" stop-color="#fffbe4"/><stop offset=".1495" stop-color="#fae9ca"/><stop offset=".4131" stop-color="#f2cea2"/><stop offset=".6223" stop-color="#eebd89"/><stop offset=".7494" stop-color="#ecb780"/></linearGradient><radialGradient id="SVGID_14_" cx="348.622" cy="367.623" gradientTransform="matrix(.578 .816 -1.124 .795 560.338 -209.241)" gradientUnits="userSpaceOnUse" r="56.896" xlink:href="#lg2"/><linearGradient id="SVGID_15_" gradientUnits="userSpaceOnUse" x1="370.445" x2="374.432" y1="333.822" y2="275.874"><stop offset=".445" stop-color="#aa593d"/><stop offset=".637" stop-color="#a1543a"/><stop offset=".8207" stop-color="#934d36"/></linearGradient><radialGradient id="SVGID_16_" cx="329.034" cy="197.027" gradientTransform="matrix(.703 -.712 .751 .741 -50.052 285.093)" gradientUnits="userSpaceOnUse" r="67.298"><stop offset="0" stop-color="#d09080"/><stop offset=".4754" stop-color="#c67d66"/><stop offset=".5354" stop-color="#c37961"/><stop offset="1" stop-color="#aa593d"/></radialGradient><radialGradient id="SVGID_17_" cx="315.733" cy="210.671" gradientTransform="matrix(1 0 0 .771 0 48.232)" gradientUnits="userSpaceOnUse" r="105.79"><stop offset="0" stop-color="#fbf6ec"/><stop offset=".1648" stop-color="#e5c4b5"/><stop offset=".3513" stop-color="#cf917c"/><stop offset=".4413" stop-color="#c67d66"/><stop offset=".5852" stop-color="#c0765e"/><stop offset=".8136" stop-color="#b16147"/><stop offset=".8924" stop-color="#aa593d"/></radialGradient><linearGradient id="SVGID_18_" gradientUnits="userSpaceOnUse" x1="192.799" x2="161.236" y1="341.538" y2="315.666"><stop offset=".3301" stop-color="#aa593d"/><stop offset=".5575" stop-color="#a5573c"/><stop offset=".8117" stop-color="#985038"/><stop offset=".8801" stop-color="#934d36"/></linearGradient><linearGradient id="SVGID_19_" gradientUnits="userSpaceOnUse" x1="166.006" x2="196.51" y1="380.796" y2="284.446"><stop offset="0" stop-color="#f4e2c1"/><stop offset=".0529" stop-color="#e1be9f"/><stop offset=".1109" stop-color="#d09f81"/><stop offset=".1744" stop-color="#c28568"/><stop offset=".2445" stop-color="#b77255"/><stop offset=".3245" stop-color="#b06447"/><stop offset=".4231" stop-color="#ab5b3f"/><stop offset=".5953" stop-color="#aa593d"/><stop offset=".7871" stop-color="#9c5239"/><stop offset=".8801" stop-color="#934d36"/></linearGradient><radialGradient id="SVGID_20_" cx="129.923" cy="373.143" gradientTransform="matrix(.578 .816 -1.124 .795 474.162 -29.58)" gradientUnits="userSpaceOnUse" r="51.402" xlink:href="#lg2"/><radialGradient id="SVGID_21_" cx="94.38" cy="137.618" gradientTransform="matrix(.995 .101 -.139 1.369 19.6 -60.367)" gradientUnits="userSpaceOnUse" r="52.323"><stop offset="0" stop-color="#ecb780"/><stop offset=".2481" stop-color="#ecb57d"/><stop offset=".4471" stop-color="#ebb073"/><stop offset=".6291" stop-color="#e9a662"/><stop offset=".8008" stop-color="#e6994a"/><stop offset=".964" stop-color="#e3882c"/><stop offset="1" stop-color="#e28424"/></radialGradient><radialGradient id="SVGID_22_" cx="140.36" cy="160.898" gradientTransform="matrix(1 0 0 .781 0 35.28)" gradientUnits="userSpaceOnUse" r="108.988"><stop offset="0" stop-color="#c67d66"/><stop offset=".5149" stop-color="#c47b64"/><stop offset=".7003" stop-color="#bd755e"/><stop offset=".8325" stop-color="#b26a53"/><stop offset=".9387" stop-color="#a15a43"/><stop offset="1" stop-color="#934d36"/></radialGradient><radialGradient id="SVGID_23_" cx="122.5" cy="122.06" gradientTransform="matrix(.578 .816 -1.124 .795 188.897 -74.983)" gradientUnits="userSpaceOnUse" r="53.22"><stop offset="0" stop-color="#fffbe4"/><stop offset=".0869" stop-color="#fbeed0"/><stop offset=".3604" stop-color="#f0c697"/><stop offset=".4918" stop-color="#ecb780"/><stop offset=".9122" stop-color="#e28424"/></radialGradient><radialGradient id="SVGID_24_" cx="137.07" cy="148.943" gradientTransform="matrix(-.707 -.707 .973 -.973 89.025 390.834)" gradientUnits="userSpaceOnUse" r="35.205"><stop offset=".3046" stop-color="#ecb780"/><stop offset=".9122" stop-color="#e28424"/></radialGradient><radialGradient id="SVGID_25_" cx="165.746" cy="206.791" gradientTransform="matrix(0 -1 .771 0 6.298 372.537)" gradientUnits="userSpaceOnUse" r="74.492"><stop offset="0" stop-color="#d09080"/><stop offset=".2075" stop-color="#cb8774"/><stop offset=".5082" stop-color="#c67d66"/><stop offset="1" stop-color="#aa593d"/></radialGradient><radialGradient id="SVGID_26_" cx="174.241" cy="221.358" gradientTransform="matrix(1 0 0 .771 0 50.679)" gradientUnits="userSpaceOnUse" r="80.047"><stop offset="0" stop-color="#fbf6ec"/><stop offset=".0803" stop-color="#f0ddd0"/><stop offset=".3085" stop-color="#d29884"/><stop offset=".4138" stop-color="#c67d66"/><stop offset=".6148" stop-color="#bc7058"/><stop offset=".8924" stop-color="#aa593d"/></radialGradient><radialGradient id="SVGID_27_" cx="446.579" cy="853.45" gradientTransform="matrix(.931 0 0 .112 -161.706 293.225)" gradientUnits="userSpaceOnUse" r="257.396"><stop offset="0" stop-color="#e2bcaf"/><stop offset=".2829" stop-color="#eacdc3"/><stop offset=".5032" stop-color="#f1ddd5"/><stop offset=".8982" stop-color="#fff"/></radialGradient><g><path d="m335.777 332.927-10.215 38.125c-1.27 4.738-6.036 7.645-10.83 6.604l-7.315-1.588c-4.83-1.049-9.696 1.61-11.423 6.241l-2.235 5.994h47.48l13.478-50.301z" fill="url(#SVGID_1_)"/><path d="m270.836 309.139 61.76 35.658 22.122-6.795-52.357-69.186z" fill="url(#SVGID_2_)"/><path d="m343.447 213.353c0-20.39-16.809-36.854-37.326-36.291-19.775.542-35.285 17.264-35.285 37.047v95.031h5.9c25.001 0 45.269-20.268 45.269-45.269v-10.191c0-4.127 2.084-7.948 5.499-10.265 9.621-6.53 15.943-17.558 15.943-30.062z" fill="url(#SVGID_3_)"/><path d="m112.063 382.816-12.018-7.952 31.066-89.442 33.46 19.319-40.486 70.123z" fill="url(#SVGID_4_)"/><path d="m116.326 388.303h-54.7l5.583-6.065c4.326-4.7 10.423-7.374 16.811-7.374h40.065z" fill="url(#SVGID_5_)"/><path d="m164.571 304.741c-24.408 0-44.195-19.787-44.195-44.195v-42.023c0-12.204 9.893-22.098 22.098-22.098 12.204 0 22.098 9.893 22.098 22.098v86.218z" fill="url(#SVGID_6_)"/><path d="m512 374.656-39.385-146.987c-8.908-33.246-34.877-59.214-68.123-68.123l-27.682-7.417-9.188 34.29 38.475 10.309c14.471 3.877 26.08 14.675 30.994 28.828l47.482 136.755c3.526 10.155 14.296 15.864 24.68 13.082z" fill="url(#SVGID_7_)"/><path d="m105.42 93.101h-27.797c-11.844 0-22.363 6.897-27.285 17.276l-3.597 41.374-13.13 17.182c2.893 4.294 7.171 7.639 12.347 9.306l34.858 11.227c4.703 1.515 9.425 2.219 14.036 2.207v.001h21.947z" fill="url(#SVGID_8_)"/><path d="m78.355 110.377h-28.018c-.867 1.828-1.582 3.751-2.076 5.777l-3.528 14.443c-.777 3.181-3.069 5.776-6.13 6.94l-2.531.963c-1.443.549-2.705 1.405-3.725 2.476l38.347 4.827z" fill="url(#SVGID_9_)"/><path d="m32.348 140.977c-1.751 1.84-2.786 4.316-2.786 6.966v7.792c0 4.828 1.48 9.386 4.049 13.199h27.797l4.46-27.957z" fill="url(#SVGID_10_)"/><path d="m352.389 259.881h-150.619c-47.139 0-85.352-85.352-85.352-85.352v-33.552h133.885c40.957 0 81.842 3.423 122.229 10.232 23.416 3.948 40.559 24.224 40.559 47.97 0 33.525-27.177 60.702-60.702 60.702z" fill="url(#SVGID_11_)"/><path d="m151.164 174.529v-33.552h-34.746v33.552c0 47.139 38.214 85.352 85.352 85.352h34.746c-47.138 0-85.352-38.213-85.352-85.352z" fill="url(#SVGID_12_)"/><path d="m116.418 174.529c0 7.961 1.09 15.667 3.129 22.977 27.835 6.301 55.032-14.843 55.032-44.086 0-4.284-.506-8.451-1.459-12.443h-56.701v33.552z" fill="url(#SVGID_13_)"/><path d="m394.15 332.927-10.215 38.125c-1.27 4.738-6.036 7.645-10.83 6.604l-7.315-1.588c-4.83-1.049-9.696 1.61-11.423 6.241l-2.235 5.994h47.48l13.478-50.301z" fill="url(#SVGID_14_)"/><path d="m329.209 309.139 61.76 35.658 22.122-6.795-52.357-69.186z" fill="url(#SVGID_15_)"/><path d="m401.82 213.353c0-20.39-16.809-36.854-37.326-36.291-19.775.542-35.285 17.264-35.285 37.047v95.031h5.9c25.001 0 45.269-20.268 45.269-45.269v-10.191c0-4.127 2.084-7.948 5.499-10.265 9.621-6.53 15.943-17.558 15.943-30.062z" fill="url(#SVGID_16_)"/><path d="m340.328 214.108c0-18.248 13.198-33.892 30.766-36.635-2.144-.331-4.35-.474-6.6-.412-19.775.542-35.285 17.264-35.285 37.047v95.031h5.9c1.765 0 3.507-.101 5.219-.298z" fill="url(#SVGID_17_)"/><path d="m170.436 382.816-12.017-7.952 31.065-89.442 33.46 19.319-40.486 70.123z" fill="url(#SVGID_18_)"/><path d="m169.537 374.864 29.208-84.095-9.261-5.347-31.065 89.442 12.017 7.952 5.56-3.678z" fill="url(#SVGID_19_)"/><path d="m174.699 388.303h-54.7l5.583-6.065c4.326-4.7 10.423-7.374 16.811-7.374h40.065z" fill="url(#SVGID_20_)"/><path d="m75.957 157.25v-14.862l9.329-3.257c5.938-2.073 9.915-7.674 9.915-13.964 0-8.168-6.622-14.79-14.79-14.79h-2.277c-.867 1.828-1.582 3.751-2.076 5.777l-3.528 14.443c-.777 3.181-3.069 5.776-6.13 6.94l-2.531.963c-3.92 1.491-6.511 5.248-6.511 9.442v7.792c0 4.828 1.48 9.386 4.049 13.199h2.867c6.452.001 11.683-5.23 11.683-11.683z" fill="url(#SVGID_21_)"/><path d="m114.26 93.101h-8.84c-11.844 0-22.363 6.897-27.285 17.276h2.277c8.168 0 14.79 6.622 14.79 14.79 0 6.289-3.977 11.891-9.915 13.964l-9.329 3.257v14.862c0 6.453-5.231 11.684-11.684 11.684h-2.867c2.893 4.294 7.171 7.639 12.347 9.306l34.858 11.227c29.163 9.392 59.018-12.357 59.018-42.996-.001-29.476-23.895-53.37-53.37-53.37z" fill="url(#SVGID_22_)"/><path d="m124.25 155.921c-2.986 0-5.407-2.421-5.407-5.407v-14.479c0-9.565 7.754-17.319 17.319-17.319 6.731 0 12.188 5.457 12.188 12.188v.916c.001 13.311-10.789 24.101-24.1 24.101z" fill="url(#SVGID_23_)"/><path d="m122.42 149.624c-1.975 0-3.576-1.601-3.576-3.576v-9.578c0-6.327 5.129-11.457 11.457-11.457 4.453 0 8.062 3.61 8.062 8.062v.606c0 8.805-7.138 15.943-15.943 15.943z" fill="url(#SVGID_24_)"/><path d="m222.944 304.741c-24.408 0-44.195-19.787-44.195-44.195v-42.023c0-12.204 9.893-22.098 22.098-22.098 12.204 0 22.098 9.893 22.098 22.098v86.218z" fill="url(#SVGID_25_)"/><path d="m189.868 260.545v-42.023c0-10.284 7.025-18.927 16.538-21.392-1.776-.46-3.639-.705-5.559-.705-12.204 0-22.098 9.893-22.098 22.098v42.023c0 24.408 19.787 44.195 44.195 44.195v-1.411c-19.026-4.931-33.076-22.217-33.076-42.785z" fill="url(#SVGID_26_)"/><path d="m249.73 418.899c137.922 0 249.73-13.698 249.73-30.596h-499.46c0 16.898 111.808 30.596 249.73 30.596z" fill="url(#SVGID_27_)"/></g></svg>