<svg xmlns="http://www.w3.org/2000/svg" viewBox="0 0 530.59 699"><defs><style>.cls-1{fill:#f16722;}.cls-2{fill:#fcbb49;}.cls-3{fill:#dc8f2a;}.cls-4{fill:#f68e27;}.cls-5{fill:#ffd426;}.cls-6{fill:#662914;}.cls-7{fill:#e2d3bd;}.cls-8{fill:#23201e;}.cls-9{fill:#9f7346;}.cls-10{fill:#3e170e;}.cls-11{fill:#b86228;}</style></defs><title>Orangutan</title><g id="Layer_2" data-name="Layer 2"><g id="Слой_1" data-name="Слой 1"><path class="cls-1" d="M204.88,212.43c-31.46,3.63-89.54,38.72-92,39.93,0,0-30.24-116.15-47.18-157.29H37.91S4,255.51,34.5,373.3L9.81,386.94c5,9.56,16.85,15.37,30.75,8.14l-5.88,6.48c9,8.21,17.42,12.71,28.34-.54-2.51,8.58-2.51,8.58-4.33,10.68,7.84,7.41,20.94,9,31.72-2.32-1.14,2.69-3.44,8.05-3.44,8.05,11.21,4.81,22.86,1.08,30.39-16.42l.4,8.45c21.52-1,21.17-17.13,17.54-30.61,2-17.89,10.68-66,44.17-66h26.62l49.54-81.06S236.34,208.8,204.88,212.43Z"/><path class="cls-2" d="M7.46,23.28S9.28,43.45,22.38,57.16V74.1l15.53,21H65.74S52.83,30.54,52.23,19.25Z"/><path class="cls-3" d="M52.23,84.18H63.59l7-29c-6.91-16.7-30-20.4-41.95-18.55,0,0-3.22,9.28,8.68,13.71L49.2,54.74C33.33,60.41,40.69,78.78,52.23,84.18Z"/><path class="cls-3" d="M14.92,19.91c0,9.9-14.92,9.84-14.92,0V7.41c0-9.9,14.92-9.86,14.92,0Z"/><path class="cls-3" d="M29.84,19.91c0,9.9-14.92,9.84-14.92,0V7.41c0-9.9,14.92-9.86,14.92,0Z"/><path class="cls-3" d="M44.77,19.91c0,9.9-14.93,9.84-14.93,0V7.41c0-9.9,14.93-9.86,14.93,0Z"/><path class="cls-3" d="M59.69,19.91c0,9.9-14.92,9.84-14.92,0V7.41c0-9.9,14.92-9.86,14.92,0Z"/><path class="cls-1" d="M275,231.79l49.54,81.06h26.62c33.49,0,42.12,48.11,44.17,66-3.63,13.48-4,29.57,17.54,30.61l.4-8.45c7.53,17.5,19.18,21.23,30.39,16.42,0,0-2.3-5.36-3.44-8.05,10.78,11.36,23.88,9.73,31.72,2.32-1.82-2.1-1.82-2.1-4.33-10.68,10.92,13.25,19.31,8.75,28.34.54L490,395.08c13.9,7.23,25.75,1.42,30.74-8.14L496.09,373.3c30.48-117.79-3.41-278.23-3.41-278.23H464.85c-16.94,41.14-47.19,157.29-47.19,157.29-2.41-1.21-60.49-36.3-92-39.93S275,231.79,275,231.79Z"/><path class="cls-2" d="M523.13,23.28s-1.82,20.17-14.93,33.88V74.1l-15.52,21H464.85s12.91-64.53,13.51-75.82Z"/><path class="cls-3" d="M478.36,84.18H467l-7-29c6.91-16.7,30.05-20.4,41.94-18.55,0,0,3.23,9.28-8.67,13.71l-11.89,4.44C497.26,60.41,489.9,78.78,478.36,84.18Z"/><path class="cls-3" d="M515.67,19.91c0,9.9,14.92,9.84,14.92,0V7.41c0-9.9-14.92-9.86-14.92,0Z"/><path class="cls-3" d="M500.74,19.91c0,9.9,14.93,9.84,14.93,0V7.41c0-9.9-14.93-9.86-14.93,0Z"/><path class="cls-3" d="M485.82,19.91c0,9.9,14.92,9.84,14.92,0V7.41c0-9.9-14.92-9.86-14.92,0Z"/><path class="cls-3" d="M470.9,19.91c0,9.9,14.92,9.84,14.92,0V7.41c0-9.9-14.92-9.86-14.92,0Z"/><path class="cls-4" d="M274.82,204.51c-15.33-2-43.91-8.37-51.41,5.23l-29.48-8c2.44-9.82,12-17.74,26.22-14.24l-6.79-4.61c6.42-9.47,17.51-12.43,32.32-2.43l-4-6.87C268.15,158.34,272.64,195.41,274.82,204.51Z"/><path class="cls-4" d="M256.84,204.51c15.34-2,43.92-8.37,51.41,5.23l29.48-8c-2.43-9.82-12-17.74-26.22-14.24l6.8-4.61c-6.42-9.47-17.51-12.43-32.32-2.43l4-6.87C263.52,158.34,259,195.41,256.84,204.51Z"/><path class="cls-1" d="M179,285.3V345s-28.23,50-32.27,108.89l25,75.82,93.56,37.11V308.69Z"/><path class="cls-3" d="M188.94,598.42l-15.41-.06c-11.79-.05-21.36,8.93-21.39,20.07l-.22,60.33c-.06,11.15,9.45,20.2,21.22,20.24,25.19.09,32.9-2.14,34.47-11,1.7-10.9-8.82-14.71-18.93-20.54Z"/><path class="cls-2" d="M189,586.16l-15.41-.07c-11.78,0-21.34,8.95-21.38,20.1L152,666.51c0,11.13,9.45,20.2,21.25,20.24,25.18.08,32.87-2.15,34.44-11,1.7-10.9-8.81-14.7-18.91-20.54Z"/><path class="cls-1" d="M170.12,448.24S66.87,454.69,83,542.61l58.08,80.66v33.88s21-14.52,23.39-35.49l2.42-21,39.12-4s-7.67-9.68-24.6-14.52l-16.94-4.84-3.23-31.45,14-14.76Z"/><path class="cls-1" d="M98.2,511.62c4,21.58,8,62.92,29.6,67.07l2.09,43.3c-14.32,1-29.18-8.34-30.71-29.13-1.09,3.73-3.24,11.19-3.24,11.19-15.6-4.5-24.46-18.17-17.46-42.53L71,569.88C38.83,540.88,86.88,518.56,98.2,511.62Z"/><path class="cls-1" d="M98.2,511.62c4,21.58,8,62.92,29.6,67.07l2.09,43.3c-14.32,1-29.18-8.34-30.71-29.13-1.09,3.73-3.24,11.19-3.24,11.19-15.6-4.5-24.46-18.17-17.46-42.53L71,569.88C38.83,540.88,86.88,518.56,98.2,511.62Z"/><path class="cls-1" d="M351.6,285.3V345s28.23,50,32.27,108.89l-25,75.82-93.57,37.11V308.69Z"/><path class="cls-3" d="M341.65,598.42l15.41-.06c11.79-.05,21.36,8.93,21.39,20.07l.22,60.33c.06,11.15-9.45,20.2-21.22,20.24-25.19.09-32.9-2.14-34.47-11-1.7-10.9,8.82-14.71,18.93-20.54Z"/><path class="cls-2" d="M341.61,586.16l15.41-.07c11.78,0,21.34,8.95,21.38,20.1l.23,60.32c0,11.13-9.46,20.2-21.25,20.24-25.18.08-32.87-2.15-34.44-11-1.7-10.9,8.81-14.7,18.91-20.54Z"/><path class="cls-1" d="M360.47,448.24s103.25,6.45,87.12,94.37l-58.08,80.66v33.88s-21-14.52-23.39-35.49l-2.42-21-39.12-4s7.66-9.68,24.6-14.52l16.94-4.84,3.23-31.45-14-14.76Z"/><path class="cls-1" d="M432.39,511.62c-4,21.58-8,62.92-29.6,67.07L400.7,622c14.32,1,29.18-8.34,30.71-29.13,1.09,3.73,3.24,11.19,3.24,11.19,15.6-4.5,24.45-18.17,17.46-42.53l7.53,8.36C491.76,540.88,443.71,518.56,432.39,511.62Z"/><path class="cls-4" d="M366.2,289.09c0,62.25-45.18,112.73-100.91,112.73s-100.9-50.48-100.9-112.73,45.17-112.73,100.9-112.73S366.2,226.83,366.2,289.09Z"/><path class="cls-5" d="M320.62,344.06c0,44.41-24.77,80.41-55.33,80.41S210,388.47,210,344.06s24.78-80.41,55.33-80.41S320.62,299.65,320.62,344.06Z"/><path class="cls-6" d="M325.49,249.68c-.06-77.25-120.43-73.75-120.39.1,0,3.18,6.3,94.32,60.23,94.28C315.4,344,325.49,256,325.49,249.68Z"/><path class="cls-5" d="M266.71,258.08c6.87,16.61,2.06,34-10.73,38.82s-28.73-4.72-35.59-21.33-2.07-34,10.73-38.82S259.85,241.46,266.71,258.08Z"/><path class="cls-5" d="M263.88,258.08c-6.87,16.61-2.06,34,10.73,38.82s28.73-4.72,35.6-21.33,2.05-34-10.74-38.82S270.73,241.46,263.88,258.08Z"/><path class="cls-7" d="M257.41,251.7A11.25,11.25,0,1,1,246.18,241,11,11,0,0,1,257.41,251.7Z"/><path class="cls-8" d="M252.56,251.7a6.39,6.39,0,1,1-6.38-6.11A6.25,6.25,0,0,1,252.56,251.7Z"/><path class="cls-7" d="M246.69,249.37a1.91,1.91,0,1,1,1.91,1.82A1.86,1.86,0,0,1,246.69,249.37Z"/><path class="cls-7" d="M295.66,251.7A11.25,11.25,0,1,1,284.42,241,11,11,0,0,1,295.66,251.7Z"/><path class="cls-8" d="M290.81,251.7a6.4,6.4,0,1,1-6.39-6.11A6.26,6.26,0,0,1,290.81,251.7Z"/><path class="cls-7" d="M284.93,249.37a1.91,1.91,0,1,1,1.91,1.82A1.87,1.87,0,0,1,284.93,249.37Z"/><path class="cls-9" d="M301.87,315.29c0,21.74-16.37,39.36-36.57,39.36S228.72,337,228.72,315.29s16.37-39.36,36.58-39.36S301.87,293.56,301.87,315.29Z"/><path class="cls-10" d="M259.84,289.9c0,2.29-2.16,4.16-4.83,4.16s-4.82-1.87-4.82-4.16,2.16-4.17,4.82-4.17S259.84,287.59,259.84,289.9Z"/><path class="cls-10" d="M279.91,288.92c.47,2.25-1.27,4.51-3.88,5.05s-5.1-.85-5.56-3.1,1.27-4.51,3.87-5.05S279.45,286.67,279.91,288.92Z"/><path class="cls-11" d="M265.28,338.52c-14.22,0-23.6-8.43-21.43-16.38,1.66,6.72,10.65,11.81,21.43,11.81s19.8-5.09,21.45-11.81C289,330.29,279.21,338.52,265.28,338.52Z"/><path class="cls-8" d="M286.73,325.82s0,0,0,0c-1.65,6.71-10.63,11.8-21.45,11.8s-19.77-5.09-21.43-11.8a12.82,12.82,0,0,1,.9-2.29c2.93,5.53,11,9.51,20.53,9.51s17.64-4,20.56-9.51A10.31,10.31,0,0,1,286.73,325.82Z"/><path class="cls-1" d="M304.94,471.74c-21.31,114.78-56.62,122-79.29-.1-15,9.19-78.59,38.74-36.07,77.12l10-11.07C190.29,569.94,202,588,222.67,594c0,0,2.83-9.88,4.28-14.81,3.81,51.75,72.86,52.08,76.69.1,1.44,4.93,4.28,14.81,4.28,14.81,20.66-6,32.38-24.06,23.12-56.31l10,11.07C383.53,510.48,319.92,480.93,304.94,471.74Z"/></g></g></svg>