<svg id="Capa_1" enable-background="new 0 0 512 512" height="512" viewBox="0 0 512 512" width="512" xmlns="http://www.w3.org/2000/svg" xmlns:xlink="http://www.w3.org/1999/xlink"><radialGradient id="SVGID_1_" cx="28.498" cy="154.422" gradientTransform="matrix(1 0 0 .783 0 33.592)" gradientUnits="userSpaceOnUse" r="99.355"><stop offset=".1096" stop-color="#f9efda"/><stop offset=".1675" stop-color="#f6e9d5"/><stop offset=".6064" stop-color="#e2bcaf"/><stop offset=".6419" stop-color="#e0b7aa"/><stop offset=".8709" stop-color="#d49b8b"/><stop offset="1" stop-color="#d09080"/></radialGradient><radialGradient id="SVGID_2_" cx="20.684" cy="181.551" gradientTransform="matrix(1 0 0 .783 0 39.493)" gradientUnits="userSpaceOnUse" r="119.371"><stop offset="0" stop-color="#d8a595"/><stop offset=".3921" stop-color="#cf927e"/><stop offset=".7444" stop-color="#c67d66"/></radialGradient><linearGradient id="lg1"><stop offset="0" stop-color="#fbf6ec"/><stop offset=".0592" stop-color="#e4d5cd"/><stop offset=".1503" stop-color="#c6a7a3"/><stop offset=".2315" stop-color="#af8684"/><stop offset=".299" stop-color="#a27272"/><stop offset=".3446" stop-color="#9d6b6b"/><stop offset=".4909" stop-color="#906262"/><stop offset=".7584" stop-color="#6f4b4b"/><stop offset=".8245" stop-color="#664545"/></linearGradient><radialGradient id="SVGID_3_" cx="210.367" cy="353.435" gradientUnits="userSpaceOnUse" r="65.512" xlink:href="#lg1"/><linearGradient id="lg2"><stop offset="0" stop-color="#934d36"/><stop offset=".5315" stop-color="#ac5d45"/><stop offset=".8597" stop-color="#be694f"/></linearGradient><radialGradient id="SVGID_4_" cx="236.785" cy="328.907" gradientTransform="matrix(.707 .707 -.545 .545 248.679 -17.851)" gradientUnits="userSpaceOnUse" r="114.802" xlink:href="#lg2"/><radialGradient id="SVGID_5_" cx="148.455" cy="274.491" gradientTransform="matrix(.707 .707 -.545 .545 193.139 19.86)" gradientUnits="userSpaceOnUse" r="108.226" xlink:href="#lg2"/><linearGradient id="lg3"><stop offset="0" stop-color="#fbf6ec"/><stop offset=".1147" stop-color="#ddcac3"/><stop offset=".239" stop-color="#c1a19d"/><stop offset=".3521" stop-color="#ad8382"/><stop offset=".4493" stop-color="#a17171"/><stop offset=".5192" stop-color="#9d6b6b"/><stop offset=".57" stop-color="#9f6864"/><stop offset=".8159" stop-color="#a75d48"/><stop offset=".9575" stop-color="#aa593d"/></linearGradient><radialGradient id="SVGID_6_" cx="76.07" cy="354.377" gradientUnits="userSpaceOnUse" r="29.499" xlink:href="#lg3"/><radialGradient id="SVGID_7_" cx="381.523" cy="326.116" gradientUnits="userSpaceOnUse" r="134.085"><stop offset=".1755" stop-color="#664545"/><stop offset=".2416" stop-color="#6f4b4b"/><stop offset=".5091" stop-color="#906262"/><stop offset=".6554" stop-color="#9d6b6b"/></radialGradient><radialGradient id="SVGID_8_" cx="238.662" cy="140.811" gradientTransform="matrix(1 0 0 .781 0 30.875)" gradientUnits="userSpaceOnUse" r="243.816"><stop offset="0" stop-color="#d09080"/><stop offset=".1858" stop-color="#cc8976"/><stop offset=".3814" stop-color="#c67d66"/><stop offset=".5421" stop-color="#c17861"/><stop offset=".7416" stop-color="#b16a53"/><stop offset=".9609" stop-color="#98523b"/><stop offset="1" stop-color="#934d36"/></radialGradient><radialGradient id="SVGID_9_" cx="93.113" cy="307.082" gradientTransform="matrix(1 0 0 .781 0 67.333)" gradientUnits="userSpaceOnUse" r="176.877"><stop offset="0" stop-color="#f9efda"/><stop offset=".1658" stop-color="#eacdb7"/><stop offset=".4691" stop-color="#d0937d"/><stop offset=".6145" stop-color="#c67d66"/><stop offset=".7145" stop-color="#bf7760"/><stop offset=".8555" stop-color="#ad654e"/><stop offset="1" stop-color="#934d36"/></radialGradient><radialGradient id="SVGID_10_" cx="155.29" cy="157.272" gradientTransform="matrix(.353 .936 -.587 .222 192.718 -22.871)" gradientUnits="userSpaceOnUse" r="103.368"><stop offset=".0551" stop-color="#c67d66"/><stop offset=".6104" stop-color="#c06d54"/><stop offset=".7321" stop-color="#be694f"/><stop offset=".852" stop-color="#b9654b"/><stop offset=".9896" stop-color="#ab5a3e"/><stop offset="1" stop-color="#aa593d"/></radialGradient><radialGradient id="SVGID_11_" cx="126.142" cy="198.583" gradientTransform="matrix(.998 -.059 .037 .626 -7.109 81.618)" gradientUnits="userSpaceOnUse" r="95.136"><stop offset=".4077" stop-color="#c67d66"/><stop offset=".6789" stop-color="#c47b64"/><stop offset=".8118" stop-color="#bf745c"/><stop offset=".9142" stop-color="#b6694f"/><stop offset="1" stop-color="#aa593d"/></radialGradient><radialGradient id="SVGID_12_" cx="248.686" cy="353.435" gradientUnits="userSpaceOnUse" r="65.512" xlink:href="#lg1"/><radialGradient id="SVGID_13_" cx="267.727" cy="263.365" gradientTransform="matrix(.703 -.712 .595 .587 -77.027 299.171)" gradientUnits="userSpaceOnUse" r="150.384"><stop offset="0" stop-color="#d09080"/><stop offset=".2031" stop-color="#ca8470"/><stop offset=".3927" stop-color="#c67d66"/><stop offset=".5403" stop-color="#c0755d"/><stop offset=".7788" stop-color="#b06045"/><stop offset=".848" stop-color="#aa593d"/></radialGradient><radialGradient id="SVGID_14_" cx="150.249" cy="255.6" gradientTransform="matrix(.703 -.712 .549 .542 -95.553 224.02)" gradientUnits="userSpaceOnUse" r="106.34"><stop offset="0" stop-color="#d09080"/><stop offset=".2031" stop-color="#ca8470"/><stop offset=".3927" stop-color="#c67d66"/><stop offset=".544" stop-color="#c0755d"/><stop offset=".7887" stop-color="#b06045"/><stop offset=".8597" stop-color="#aa593d"/></radialGradient><radialGradient id="SVGID_15_" cx="261.641" cy="263.365" gradientTransform="matrix(.703 -.712 .595 .587 -78.837 294.841)" gradientUnits="userSpaceOnUse" r="114.376"><stop offset="0" stop-color="#fbf6ec"/><stop offset=".1712" stop-color="#e6c6b7"/><stop offset=".3343" stop-color="#d59e8b"/><stop offset=".4607" stop-color="#ca8670"/><stop offset=".535" stop-color="#c67d66"/><stop offset=".6353" stop-color="#c0755d"/><stop offset=".7975" stop-color="#b06045"/><stop offset=".8445" stop-color="#aa593d"/></radialGradient><radialGradient id="SVGID_16_" cx="156.775" cy="256.426" gradientTransform="matrix(1 0 0 .771 0 58.707)" gradientUnits="userSpaceOnUse" r="151.312"><stop offset="0" stop-color="#fbf6ec"/><stop offset=".0222" stop-color="#f6ebe0"/><stop offset=".1245" stop-color="#e2bcac"/><stop offset=".2135" stop-color="#d39a86"/><stop offset=".2848" stop-color="#c9856f"/><stop offset=".3295" stop-color="#c67d66"/><stop offset=".6529" stop-color="#be694f"/><stop offset=".6963" stop-color="#c06f55"/><stop offset=".756" stop-color="#c77f67"/><stop offset=".8251" stop-color="#d39984"/><stop offset=".9015" stop-color="#e2bdad"/><stop offset=".9827" stop-color="#f6ebe0"/><stop offset="1" stop-color="#fbf6ec"/></radialGradient><radialGradient id="SVGID_17_" cx="114.389" cy="354.377" gradientUnits="userSpaceOnUse" r="29.499" xlink:href="#lg3"/><radialGradient id="SVGID_18_" cx="129.91" cy="189.946" gradientUnits="userSpaceOnUse" r="28.607"><stop offset="0" stop-color="#c67d66"/><stop offset=".1776" stop-color="#bb7867"/><stop offset=".4887" stop-color="#9e6b6b"/><stop offset=".4971" stop-color="#9d6b6b"/><stop offset=".6331" stop-color="#906262"/><stop offset=".8818" stop-color="#6f4b4b"/><stop offset=".9433" stop-color="#664545"/></radialGradient><radialGradient id="SVGID_19_" cx="16.183" cy="239.016" gradientTransform="matrix(1 0 0 .88 0 -18.119)" gradientUnits="userSpaceOnUse" r="24.106"><stop offset="0" stop-color="#f9efda"/><stop offset=".0763" stop-color="#e8d6c5"/><stop offset=".2712" stop-color="#c09d95"/><stop offset=".4155" stop-color="#a77976"/><stop offset=".4924" stop-color="#9d6b6b"/><stop offset=".5936" stop-color="#906262"/><stop offset=".7787" stop-color="#6f4b4b"/><stop offset=".8245" stop-color="#664545"/></radialGradient><radialGradient id="SVGID_20_" cx="262.172" cy="815.386" gradientTransform="matrix(.931 0 0 .112 11.619 273.963)" gradientUnits="userSpaceOnUse" r="258.977"><stop offset="0" stop-color="#e2bcaf"/><stop offset=".2829" stop-color="#eacdc3"/><stop offset=".5032" stop-color="#f1ddd5"/><stop offset=".8982" stop-color="#fff"/></radialGradient><g><path d="m156.349 157.344c-10.637-3.446-20.633-4.794-31.515-4.774-.118 0-17.08 0-17.882 0h-.03c-.498 0-6.877 0-7.315 0-15.405.028-30.217 3.51-43.819 10.282l-34.081 16.969c-4.74 2.36-8.015 6.696-9.124 11.647l128.817 15.234z" fill="url(#SVGID_1_)"/><path d="m12.584 191.469c-.466 2.081-.55 4.27-.2 6.467l1.633 10.242c2.884 18.086 17.112 32.243 35.212 35.036l17.363 2.68c2.722.42 5.425.622 8.09.62h26.504c26.83.033 49.956-20.642 52.055-48.276l.514-6.77h-141.171z" fill="url(#SVGID_2_)"/><path d="m284.927 364.787h-76.829l1.155-2.06c4.536-8.094 13.09-13.106 22.369-13.106h53.306v15.166z" fill="url(#SVGID_3_)"/><circle cx="284.927" cy="295.855" fill="url(#SVGID_4_)" r="68.933"/><path d="m154.111 224.334c-15.355 0-27.802 12.448-27.802 27.802v68.407l-35.237 35.237 10.289 9.007h3.92l76.632-44.244v-68.407c0-15.355-12.448-27.802-27.802-27.802z" fill="url(#SVGID_5_)"/><path d="m95.571 351.987h-2.055c-8.235 0-15.61 5.094-18.526 12.795l-.002.005h26.372v-7.01c.001-3.198-2.591-5.79-5.789-5.79z" fill="url(#SVGID_6_)"/><path d="m477.239 342.635h-123.379c0 12.234 9.918 22.152 22.152 22.152h101.227c10.887 0 21.662-2.188 31.686-6.435 4.099-1.737 4.099-7.546 0-9.283-10.024-4.246-20.799-6.434-31.686-6.434z" fill="url(#SVGID_7_)"/><path d="m375.563 144.386c-35.308-28.525-83.24-35.827-125.44-19.109l-57.761 22.883c-17.137 6.789-35.403 10.275-53.835 10.275l-35.796 88.079h9.063c8.687 0 21.866-.796 27.885 5.467l22.459 25.699c7.252 7.684 11.922 16.766 21.957 21.206l48.43 13.516 8.554 11.706c24.731 24.97 51.136 40.678 86.28 40.678 57.365 0 103.868-46.503 103.868-103.868 0-45.257-20.46-88.09-55.664-116.532z" fill="url(#SVGID_8_)"/><path d="m257.215 325.769-8.622-8.705-41.081-18.177c-10.034-4.44-18.847-10.765-26.099-18.449l-.001.001-64.987-67.619-13.694 33.695h9.063c8.687 0 16.999 3.54 23.018 9.803l23.182 24.121.001-.001c7.252 7.684 16.065 14.009 26.099 18.449l41.081 18.177 8.622 8.705c24.731 24.97 58.417 39.018 93.561 39.018 3.733 0 7.421-.197 11.053-.582-30.602-2.884-59.382-16.411-81.196-38.436z" fill="url(#SVGID_9_)"/><path d="m158.564 203.561 3.574-47.045c-7.789 1.275-15.685 1.92-23.612 1.92l-35.796 88.079h9.063c4.174 0 8.261.818 12.049 2.361 18.831-6.653 33.094-23.893 34.722-45.315z" fill="url(#SVGID_10_)"/><path d="m153.242 198.239c-2.305 30.344-29.964 52.298-60.039 47.656l-17.363-2.68c-18.1-2.794-32.328-16.95-35.212-35.036l-1.633-10.242c-1.184-7.427 2.591-14.762 9.324-18.114l34.081-16.969c22.98-11.442 49.529-13.419 73.95-5.508z" fill="url(#SVGID_11_)"/><path d="m323.246 364.787h-76.829l1.155-2.06c4.536-8.094 13.09-13.106 22.369-13.106h53.306v15.166z" fill="url(#SVGID_12_)"/><circle cx="323.246" cy="295.855" fill="url(#SVGID_13_)" r="68.933"/><path d="m192.429 224.334c-15.355 0-27.802 12.448-27.802 27.802v68.407l-35.081 35.081 10.134 9.162h3.92l76.632-44.244v-68.407c0-15.354-12.448-27.801-27.803-27.801z" fill="url(#SVGID_14_)"/><path d="m267.086 295.855c0-35.917 27.47-65.418 62.546-68.64-2.103-.193-4.233-.292-6.386-.292-38.07 0-68.933 30.862-68.933 68.933s30.862 68.933 68.933 68.933c2.153 0 4.284-.099 6.386-.292-35.076-3.224-62.546-32.725-62.546-68.642z" fill="url(#SVGID_15_)"/><path d="m177.4 252.136c0-13.157 9.139-24.179 21.416-27.065-2.051-.482-4.189-.738-6.386-.738-15.355 0-27.802 12.448-27.802 27.802v68.407l-35.854 35.854 4.383 8.39 44.244-44.244v-68.406z" fill="url(#SVGID_16_)"/><path d="m133.89 351.987h-2.055c-8.235 0-15.61 5.094-18.526 12.795l-.002.005h26.372v-7.01c0-3.198-2.592-5.79-5.789-5.79z" fill="url(#SVGID_17_)"/><path d="m134.474 191.469h-5.235c0-6.937 1.97-13.732 5.681-19.594l.086-.137c1.479-2.336 4.051-3.752 6.816-3.752 4.456 0 8.067 3.612 8.067 8.067.001 8.514-6.901 15.416-15.415 15.416z" fill="url(#SVGID_18_)"/><path d="m36.512 197.451c0 3.304-6.509 9.772-10.648 9.772s-10.648-6.468-10.648-9.772 4.767-5.983 10.648-5.983 10.648 2.679 10.648 5.983z" fill="url(#SVGID_19_)"/><path d="m251.264 395.571c138.769 0 251.264-13.782 251.264-30.784h-502.528c0 17.002 112.495 30.784 251.264 30.784z" fill="url(#SVGID_20_)"/></g></svg>