<svg xmlns="http://www.w3.org/2000/svg" viewBox="0 0 650 413.98"><defs><style>.cls-1{fill:#bec2ad;}.cls-2{fill:#231d20;}.cls-3{fill:#443d41;}.cls-4{fill:#d8dad0;}.cls-5{fill:#a5a79b;}.cls-6{fill:#201b1b;}.cls-7{fill:#f0f1e8;}.cls-8{fill:#2a1613;}</style></defs><title>Panda</title><g id="Layer_2" data-name="Layer 2"><g id="Слой_1" data-name="Слой 1"><rect class="cls-1" x="201.28" y="78.73" width="285.83" height="259.58"/><path class="cls-2" d="M377.43,390.12V413.4h90.92V351.3H416.24a38.83,38.83,0,0,0-38.81,38.82Z"/><path class="cls-2" d="M421.41,363.68A49.73,49.73,0,1,0,471.13,314a49.72,49.72,0,0,0-49.72,49.73Z"/><path class="cls-2" d="M478.54,264h42.32v99.67h-98v-44A55.65,55.65,0,0,1,478.54,264Z"/><path class="cls-1" d="M284.16,269.59c0,45.77-41.61,82.88-92.94,82.88s-92.95-37.11-92.95-82.88,41.61-82.88,93-82.88,92.94,37.11,92.94,82.88Z"/><path class="cls-2" d="M176.9,389.66v23.28H86V350.85h52.12a38.82,38.82,0,0,1,38.81,38.81Z"/><path class="cls-2" d="M132.91,363.22A49.73,49.73,0,1,1,83.19,313.5a49.72,49.72,0,0,1,49.72,49.72Z"/><rect class="cls-2" x="33.46" y="204.46" width="97.97" height="158.76"/><path class="cls-2" d="M192.61,390.12V413.4h90.92V351.3H231.42a38.83,38.83,0,0,0-38.81,38.82Z"/><path class="cls-2" d="M236.6,363.68A49.72,49.72,0,1,0,286.32,314a49.72,49.72,0,0,0-49.72,49.73Z"/><rect class="cls-2" x="238.07" y="197.23" width="97.97" height="166.45"/><path class="cls-1" d="M650,214.14A142.19,142.19,0,1,1,507.8,72,142.18,142.18,0,0,1,650,214.14Z"/><path class="cls-2" d="M554.55,313.51V353.3c-16.12,6.32-49.08,9.81-67.45,9.81a141.34,141.34,0,0,1-79.28-24.17l-71.78-.2V313.51Z"/><path class="cls-3" d="M598.46,264.58a55.66,55.66,0,0,0-55.66,55.66v31.64h-6.65a38.83,38.83,0,0,0-38.81,38.81V414h93.71a49.73,49.73,0,0,0,49.72-49.73V264.58Z"/><path class="cls-4" d="M169.69,32H85.54L73.65,76.36C46.42,88.09,12.61,126.81,0,197.23H14.14c20.29,65.52,99,95.46,155.55,73.19Z"/><path class="cls-5" d="M169.69,32h84.15l11.9,44.34c27.22,11.73,61,50.45,73.64,120.87H325.24c-20.29,65.52-99,95.46-155.55,73.19Z"/><path class="cls-2" d="M94.08,24.37c8.13,18.85,2.57,39.38-12.43,45.85s-33.76-3.55-41.89-22.4S37.18,8.45,52.19,2s33.75,3.55,41.89,22.4Z"/><path class="cls-2" d="M245.31,24.37c-8.14,18.85-2.57,39.38,12.42,45.85s33.76-3.55,41.9-22.4S302.2,8.45,287.2,2s-33.75,3.55-41.89,22.4Z"/><path class="cls-6" d="M163.05,155.57A50.09,50.09,0,1,1,113,105.48a50.09,50.09,0,0,1,50.08,50.09Z"/><path class="cls-6" d="M276.5,155.57a50.09,50.09,0,1,1-50.08-50.09,50.09,50.09,0,0,1,50.08,50.09Z"/><path class="cls-1" d="M107.69,126.14a19.75,19.75,0,0,0-19.75,19.75h39.51a19.76,19.76,0,0,0-19.76-19.75Z"/><path class="cls-1" d="M231.69,126.14a19.75,19.75,0,0,0-19.75,19.75h39.5a19.75,19.75,0,0,0-19.75-19.75Z"/><path class="cls-2" d="M113.12,136a7.43,7.43,0,1,1-7.43-7.42,7.43,7.43,0,0,1,7.43,7.42Z"/><path class="cls-2" d="M239.11,136a7.42,7.42,0,1,1-7.42-7.42,7.42,7.42,0,0,1,7.42,7.42Z"/><path class="cls-1" d="M203.52,101.6c0-10.91-7.56-19.78-16.94-19.78H152.76c-9.34,0-16.89,8.87-16.89,19.78V275.84h67.65Z"/><path class="cls-7" d="M231.18,250.51c0,27.45-27.53,49.7-61.49,49.7s-61.48-22.25-61.48-49.7,27.52-49.7,61.48-49.7,61.49,22.25,61.49,49.7Z"/><path class="cls-7" d="M221,222v22.17a26.17,26.17,0,0,1-26.19,26.14H144.61a26.16,26.16,0,0,1-26.18-26.14V222a26.2,26.2,0,0,1,26.18-26.19h50.16A26.21,26.21,0,0,1,221,222Z"/><polygon class="cls-8" points="170.02 270.03 208.61 220.52 130.77 220.52 170.02 270.03"/></g></g></svg>