<svg xmlns="http://www.w3.org/2000/svg" viewBox="0 0 650 356.07"><defs><style>.cls-1{fill:#d26c58;}.cls-2{fill:#f5937a;}.cls-3{fill:#ffdd8c;}.cls-4{fill:#fff;}.cls-5{fill:#232323;}</style></defs><title>Pig</title><g id="Layer_2" data-name="Layer 2"><g id="Слой_1" data-name="Слой 1"><path class="cls-1" d="M31.31,73.46c.2-5.44,21.26,11.9,28.07,12.75s43.36,6,47.62,17.86-11.06,17-21.26,24.66S61.07,115.13,50,113.43,30.46,96.42,31.31,73.46Z"/><path class="cls-1" d="M194.68,226.89c6.53,6.26,2.56,18.85,2.61,36.73S185,329.47,173.53,337.47s18.58,3.39,25.41,2.84,8.18-11.55,8.34-14.95,2.09,10.32,5.56,8.77,12.62-15.61,19.76-41.68,25.92-65.23,32.4-76.86S176.53,209.52,194.68,226.89Z"/><path class="cls-1" d="M491.83,237.59c-13.27,5.24,10.2,64.64-29.77,99.5,2.55,9.36,28.07,3.41,32.32-.84s3.4-13.62,5.95-13.62-.85,7.66,5.1,8.51,16.16-35.71,22.11-45.92,23.81-30.62,23.81-35.72S524.14,224.84,491.83,237.59Z"/><path class="cls-2" d="M644.9,123.63c-9.35-3.4-6.49-8.24-1.91-16.8s10.42-21.47,4.47-29.12c-8.33-10.7-22.52-4.75-29-1.19-5.24-14.35-12.7-25.88-21.22-32.83C574.31,25,528.39,4.57,479.92,1.17,424.46-2.72,315.78,3.72,269,11.38,217.47,19.81,166.1,40.29,120.18,65.81c-23.43,13-38.64,31.54-47.94,46.59L16,93.87c-.62,16.76,23.21,42.51,40.1,52.26-7.23,15.59-23.2,49.24-30.32,58.29-9.35,11.91-15.31,17-17.86,14.47s-9.35,0-7.65,5.1,22.11,32.31,25.51,31.47.85-5.11,6.81-6.81c17.51-5,51.69,8.68,83.34,13.61,35,5.46,63.74-12.69,89.89-26.46,1.41,1.47,2.89,2.92,4.51,4.34,6.8,6,3.4,18.71,4.25,36.57s-9.36,66.34-20.41,74.84,18.71,2.55,25.51,1.7,7.66-11.91,7.66-15.3,2.54,10.2,5.95,8.5,11.9-16.16,17.86-42.52c5.17-22.88,18.65-56,26-72.13,47.34,25,130.06,31.11,176.38,27.05,28.26-2.48,52.71-14.76,70.09-24.59,6.66,7,12.45,13,15.81,16.94,13.61,16.16,31.46,74.84-7.66,96.1,11.06,7.66,29.77,5.1,35.72,0a12.44,12.44,0,0,0,4.25-11.91s6.81,7.66,10.21,7.66c5.57,0,21.85-53.73,5.95-117.36-1.7-6.8,18.71-29.77,25.51-43.38a3.14,3.14,0,0,0,.22-1c11.42-21.45,17-57.58,8.81-91.54,8.62-5.24,18.9-6.79,13.09,11.71C626.2,131.29,654.26,127,644.9,123.63Z"/><path class="cls-3" d="M31.62,111.56c6.06,4.79,17.7,8.63,21.81,9.79,17.69,5,30.08,3.37,31.77,16.26,0,0-9.86-1.91-15.53,3.63C64.41,146.38,35.76,129.8,31.62,111.56Z"/><path class="cls-4" d="M82.59,171.52A10.62,10.62,0,1,1,72,160.9,10.61,10.61,0,0,1,82.59,171.52Z"/><path class="cls-5" d="M80.25,173.38A6.36,6.36,0,1,1,73.89,167,6.36,6.36,0,0,1,80.25,173.38Z"/><path class="cls-4" d="M80.25,169.63a2.6,2.6,0,1,1-2.6-2.61A2.6,2.6,0,0,1,80.25,169.63Z"/></g></g></svg>