<svg xmlns="http://www.w3.org/2000/svg" viewBox="0 0 650 781.45"><defs><style>.cls-1{fill:#787878;}.cls-2{fill:#595858;}.cls-3{fill:#6d6d6d;}.cls-4{fill:#ea9d8b;}.cls-5{fill:silver;}.cls-6{fill:#4b7081;}.cls-7{fill:#232323;}.cls-8{fill:#fff;}</style></defs><title>Rabbit</title><g id="Layer_2" data-name="Layer 2"><g id="Слой_1" data-name="Слой 1"><path class="cls-1" d="M560.48,519.74c-24.36,23.38-28.92,58.15-10.19,77.64s53.64,16.37,78-7,28.92-58.13,10.18-77.63S584.83,496.36,560.48,519.74Z"/><path class="cls-2" d="M333.26,0c-10.36-1.27-74,34-109.27,73.56s-54.8,65.35-58.17,74.59,16.36,24.28,99.77-38.3S356.67,2.89,333.26,0Z"/><path class="cls-2" d="M174.52,521.65S144.32,669,129.66,678.1,76.54,697.39,69.6,717.71s24.54,18.37,39.69,17.44,42.49-13.14,51.32-21.89S242.35,521,242.35,521Z"/><path class="cls-3" d="M530.06,654.64c39.55-47.41,63.65-96.53,58.28-162.5C582.65,422.58,504.17,259.91,263,288.52c17.07-36.18,7.84-76.42-12.44-103C348.44,138.05,448.5,22.12,397.47,15.11,320,4.46,227.75,104.59,194.21,149.05c-29.23-7.69-60.43-2.56-87.76,8.55C46.12,182.13-3.86,280,6.82,285.45c.8,14.94,6.49,34.8,22.53,38.89L105,349.42C89.68,395.54,64,517.87,206.81,552.9c-8.35,21.24-29.89,140.62-46.33,149.47s-65.12,18.56-74,40,25.27,21.49,41.71,21.49,47.24-10.86,56.88-20.23c32.69-31.76,68.23-157.76,82-172.37,14.28-.35,13.86,3.74,7.94,16.48-12.61,27.11-9.07,103.59,112,110-20,2.84-55.75,5.63-67.76,6.32-27,1.56-68.64,17.76-97.32,42s45.52,41.67,86.18,33S353.39,755.84,398,745.1c16-3.84,82.1-13.44,105.65-18s62-5.88,50.32-24S515.74,671.83,530.06,654.64Z"/><path class="cls-4" d="M346.52,55.91c-69.4-9.54-150.64,136.7-135.42,134.53C239.2,186.43,397.24,62.88,346.52,55.91Z"/><path class="cls-5" d="M63.54,237.7s10.69-89.94,94.18-45C164,226.14,110.58,269.52,63.54,237.7Z"/><path class="cls-6" d="M74.79,234.81S86.05,182,138,204.59C140.84,226.9,101.63,250.36,74.79,234.81Z"/><path class="cls-7" d="M118.46,221.53a15.76,15.76,0,1,1-15.76-15.76A15.77,15.77,0,0,1,118.46,221.53Z"/><path class="cls-8" d="M118.46,212.22a6.45,6.45,0,1,1-6.45-6.45A6.44,6.44,0,0,1,118.46,212.22Z"/><path class="cls-7" d="M16.75,264.16c4.28,2.49,4.79,9.58,1.16,15.84s-10,9.33-14.33,6.86-4.8-9.58-1.16-15.85S12.48,261.68,16.75,264.16Z"/><path class="cls-5" d="M91.66,314.34c-7.2,19.84-31.92,29.06-55.21,20.6S.1,303.58,7.3,283.74s31.9-29.06,55.2-20.61S98.85,294.51,91.66,314.34Z"/></g></g></svg>