<svg xmlns="http://www.w3.org/2000/svg" viewBox="0 0 650 386.77"><defs><style>.cls-1{fill:#352a1a;}.cls-2{fill:#634b3a;}.cls-3{fill:#985f37;}.cls-4{fill:#f4812e;}.cls-5{fill:#c9ac57;}.cls-6{fill:#493822;}</style></defs><title>Rhino</title><g id="Layer_2" data-name="Layer 2"><g id="Слой_1" data-name="Слой 1"><path class="cls-1" d="M160.65,59.64a48.25,48.25,0,0,0-18.1-15.51c0,14.52-2.58,24.41,6.23,36.38a63.41,63.41,0,0,1,15.34-7.09C164.14,70.07,162.3,65.54,160.65,59.64Z"/><path class="cls-1" d="M501,251.74c-15.86,12.32-31.08,21.11-45.56,27.17-.47,26.63-2.79,57.73-17.07,78-5.74,8.12-10.06,22.9-8.57,29.9h59.84c1.18-4.18.7-8.81-.4-13.09-6.12-23.95,13.52-52.25,26.34-82.8-1-4.29-1.64-6.95-1.64-6.95Z"/><path class="cls-2" d="M634.52,113.22C560.39,3.14,513.45,83.56,435.14,66.64c-4.66-.67-9.11-3.26-13.05-5.83C394.74,43.32,342.8-8.42,308.23,1.18c-21.82,6-126.33,66.49-131.49,68.25-3.92,1.34-8.26,2.52-12.59,4a62.48,62.48,0,0,0-15.37,7.12,37.13,37.13,0,0,0-9.08,8.36c-10,12.89-8,29-11.5,44.46C113.29,198,74.54,181.16,58.91,165.43a2.22,2.22,0,0,0-3.66,2.27,61.75,61.75,0,0,0,18.21,28.68L58.55,242.45c5.31,3.77,9.18,7.69,9.34,11.56,1.08,34.87,37.24,21.87,43.28,21.51,4.59-.26,6.71,5.41,11.71,5.67,14.24.78,26.26-12.33,37.66-19,22.44-13.21,50.92-11.56,56.54-.93,3.15,5.83-.21,2.21,8.26,11.4,15,16.2,7.47,43.28,14.13,62.68,11,32.14-4.13,28.47-2.79,51.43H289a4.45,4.45,0,0,0,4.29-5.52c-12.64-50.66,8.15-17.74,8.15-116.8v-.05c4.57.72,11.8,3.57,16.09,5.32,8.33,3.38,18.41,7.79,30,11.68,27.82,9.32,64.58,15.62,107.85-2.46,14.48-6.06,29.7-14.85,45.56-27.17L514,283.93s.64,2.66,1.64,6.95c4.16,17.85,14.79,64.26,13.79,69.29-1.45,7.23-3.41,13.78-4.95,20.64A4.76,4.76,0,0,0,526.7,386a4.56,4.56,0,0,0,2.48.72h46.17a4.41,4.41,0,0,0,1.86-.36,4.85,4.85,0,0,0,3-4.7c-.52-7.37-1.4-14.6-1.4-21.92-.93-34.82,15.27-60.15,38.28-123.55,5.11,29.61,17,52.51,32.86,56C640.09,184.51,660.83,152.33,634.52,113.22Z"/><path class="cls-3" d="M172.34,85.76C163.42,65.3,153.2,33.9,161.71,20.37,195,25.14,199.2,91.26,172.34,85.76Z"/><path class="cls-1" d="M142.33,200.92a7.54,7.54,0,1,1-7.54-7.53A7.54,7.54,0,0,1,142.33,200.92Z"/><path class="cls-4" d="M73.46,196.39,58.55,242.46C41.4,230.34,5.3,224.61,0,158.68,20.27,179,42.87,202.79,73.46,196.39Z"/><path class="cls-5" d="M262.48,386.75H239.06c.25-5.93,5.41-10.63,11.66-10.63A11.53,11.53,0,0,1,262.48,386.75Z"/><path class="cls-5" d="M287.73,386.75H264.47c.46-5.73,5.52-10.17,11.65-10.17A11.44,11.44,0,0,1,287.73,386.75Z"/><path class="cls-4" d="M457.15,386.77H435c.24-5.43,5.12-9.74,11-9.74S456.85,381.34,457.15,386.77Z"/><path class="cls-4" d="M482.82,386.73a2.46,2.46,0,0,1-.54,0H460.71c.25-5.43,5.13-9.74,11.08-9.74S482.53,381.29,482.82,386.73Z"/><path class="cls-5" d="M550,386.75H529.18a4.48,4.48,0,0,1-2.48-.73,11.76,11.76,0,0,1,23.32.73Z"/><path class="cls-5" d="M577.21,386.39a4.41,4.41,0,0,1-1.86.36H553.84c.26-5.93,5.42-10.63,11.71-10.63A11.46,11.46,0,0,1,577.21,386.39Z"/><path class="cls-6" d="M308.29,189.21l9.28,80.48c-6.45-2.63-11.81-4.64-16.09-5.32l-31.94-91L422.09,60.81c3.94,2.57,8.39,5.16,13.05,5.83Z"/><path class="cls-1" d="M300.57,261.8c-1.25,26.67-2.16,42-3.91,53.65,20,40.68,20.47,52.52,19.11,65.77a5,5,0,0,0,5,5.55h38.15a5,5,0,0,0,5.06-5.39c-1.54-17.79-16.8-24.86-16.49-62.71,0-3.94.7-23.27.1-39.19C327,272.57,310.17,263.27,300.57,261.8Z"/><path class="cls-4" d="M338.23,386.77H320.79c.19-5.43,4-9.74,8.68-9.74S338,381.34,338.23,386.77Z"/><path class="cls-4" d="M358.43,386.73a1.5,1.5,0,0,1-.42,0H341c.19-5.43,4-9.74,8.72-9.74S358.2,381.29,358.43,386.73Z"/></g></g></svg>