<svg xmlns="http://www.w3.org/2000/svg" viewBox="0 0 650 681.9"><defs><style>.cls-1{fill:#f2b41b;}.cls-2{fill:#d98327;}.cls-3{fill:#e25625;}.cls-4{fill:#f16422;}.cls-5{fill:#f8d898;}.cls-6{fill:#423817;}.cls-7{fill:#f59a1d;}.cls-8{fill:#9a6126;}.cls-9{fill:#fff;}</style></defs><title>Squirrel</title><g id="Layer_2" data-name="Layer 2"><g id="Слой_1" data-name="Слой 1"><path class="cls-1" d="M17.62,168.27c-19.14,8.54-23.9,26.21-8.23,30,41.79,10.51,103.15,36.56,131.8,100.76C181.9,504.82,177.5,744.4,432.93,630.45,695.18,513.44,489.52-42.26,17.62,168.27Z"/><path class="cls-2" d="M317.89,242.21s-59.53-128.59,0-202.92C339.06,12.86,356.28,0,356.28,0l53.33,242.21Z"/><path class="cls-2" d="M539.21,242.21s59.53-128.59,0-202.92C518,12.86,500.82,0,500.82,0L447.5,242.21Z"/><rect class="cls-3" x="329.94" y="279.71" width="194.39" height="312.91"/><ellipse class="cls-4" cx="511.77" cy="573.86" rx="115.04" ry="108.04"/><ellipse class="cls-4" cx="342.52" cy="573.86" rx="115.04" ry="108.04"/><rect class="cls-4" x="342.34" y="547.06" width="169.6" height="134.85"/><path class="cls-4" d="M526.53,286.79l-12,10.46L453.4,350.56c-14.14,12.31-36.18,12.31-50.24,0l-61.72-53.77-11.48-10c-28.86-25.16-39.43-63.55-27.12-98.4l17.65-50.16C332.7,103.61,367.65,80.15,407,80.15H449.5c39.43,0,74.36,23.46,86.59,58.08l17.63,50.16C566,223.24,555.4,261.63,526.53,286.79Z"/><path class="cls-5" d="M514.55,297.25,453.4,350.56c-14.14,12.31-36.18,12.31-50.24,0l-61.72-53.77C350.18,282.71,365,272,382.61,267.4c-2.26-23.59,17.8-47.47,45.27-47.47s47.52,23.86,45.24,47.47C491,272.09,505.81,282.94,514.55,297.25Z"/><ellipse class="cls-6" cx="344.11" cy="235.76" rx="14.56" ry="32.23"/><ellipse class="cls-6" cx="514.55" cy="235.76" rx="14.56" ry="32.23"/><path class="cls-4" d="M373,640.1H230.22A30.22,30.22,0,0,0,200,670.34V681.9H373Z"/><path class="cls-4" d="M471.58,640.1H619.76A30.24,30.24,0,0,1,650,670.34V681.9H471.58Z"/><path class="cls-1" d="M582.75,599.21C541.2,663.51,464.33,687.77,411,653.33s-62.7-114.45-21.14-178.75S508.31,386,561.54,420.43,624.31,534.9,582.75,599.21Z"/><rect class="cls-6" x="541.09" y="373.43" width="89.03" height="19.09" transform="matrix(0.54, -0.84, 0.84, 0.54, -53.93, 666.88)"/><path class="cls-7" d="M582.75,599.21C541.2,663.51,464.33,687.77,411,653.33l150.51-232.9C614.84,454.87,624.31,534.9,582.75,599.21Z"/><path class="cls-8" d="M577.41,395.9C516.26,356.37,438.18,368.44,403,422.84L624.49,566C659.65,511.56,638.58,435.41,577.41,395.9Z"/><polygon class="cls-6" points="584.58 462.07 557.82 426.25 568.59 486.81 628.25 471.75 584.58 462.07"/><polygon class="cls-6" points="514.03 416.47 487.26 380.65 498.03 441.22 557.69 426.17 514.03 416.47"/><path class="cls-3" d="M470.31,605.5l-140.37-223v83.28L432.77,629.13a8.3,8.3,0,0,0,11.47,2.6L467.7,617A8.34,8.34,0,0,0,470.31,605.5Z"/><rect class="cls-9" x="418.86" y="297.18" width="18.28" height="20.41"/><path class="cls-6" d="M432.64,283.63V294.5c0,1.56-1.5,2.93-3.5,3.24h-.06a3.47,3.47,0,0,1-.81.06,3.78,3.78,0,0,1-.82-.06h-.06c-1.93-.31-3.43-1.68-3.43-3.24V283.63Z"/><path class="cls-6" d="M431,296.29c1.12-.85.66-2.57-1-3.84h0c-1.7-1.28-4-1.63-5.1-.78L410.77,302.3c-1.14.84-.67,2.56,1,3.84h0c1.69,1.28,4,1.63,5.08.78Z"/><path class="cls-6" d="M425.52,296.29c-1.12-.85-.65-2.57,1-3.84h0c1.71-1.28,4-1.63,5.1-.78L445.8,302.3c1.12.84.65,2.56-1,3.84h0c-1.71,1.28-4,1.63-5.11.78Z"/><path class="cls-6" d="M420.29,284.67l-7.78-7.36c-2.12-2-.82-5.83,2-5.83h27.57c2.79,0,4.09,3.81,2,5.83l-7.77,7.36a11.42,11.42,0,0,1-16,0Z"/></g></g></svg>