<svg xmlns="http://www.w3.org/2000/svg" viewBox="0 0 650 618.15"><defs><style>.cls-1{fill:#8c8985;}.cls-2{fill:#4e2911;}.cls-3{fill:#a7a29d;}.cls-4{fill:#6a7c8a;}.cls-5{fill:#a6a09b;}</style></defs><title>Wolf</title><g id="Layer_2" data-name="Layer 2"><g id="Слой_1" data-name="Слой 1"><path class="cls-1" d="M146.2,377.34V569.92c-36.31,0-50.27,20.66-50.27,47.71h90.41V377.34Z"/><polygon class="cls-2" points="171.31 53.22 215.09 0 229.03 70.22 171.31 53.22"/><path class="cls-3" d="M111.65,377.34V569.92c-36.31,0-50.27,20.66-50.27,47.71h90.4V377.34Z"/><path class="cls-4" d="M446.07,400.87C410,346.09,233,285.31,233,285.31L97,273.6,80.31,371l89.2,31.53,129,215.14h162.6S501.28,484.61,446.07,400.87Z"/><path class="cls-4" d="M122.32,156.43l-82.53-38a30.56,30.56,0,0,1-15-40.55l3.52-7.66L138.63,121Z"/><path class="cls-2" d="M41.55,53.22,4.2,36C9.85,23.73,18.34,21.41,26.11,25L49.58,35.8Z"/><path class="cls-5" d="M298,395.45H234.67c-19.58,0-35.45,10.32-35.45,23.05v97.41c0,7.06,2.69,8.55,5.74,11.6,10.28,10.27,44.58,48.59,44.59,48.6H182.07c-16.72,0-30.29,18.59-30.29,41.52h173L273.89,539c11.68,0,59.51,4.09,59.51-23V418.5C333.4,405.77,317.53,395.45,298,395.45Z"/><path class="cls-5" d="M320.9,330.28l24.24,26.07L343,328.41,263.68,55.9,263.63,0,209.69,55.17C185.4,50.81,177.62,45,106.58,62l-57-26.24-8,17.44L4.2,36C-5.1,56.22,2,71.25,15.87,77.62l74.18,47.66L97,273.6l34.37,36.95,11.38-18.43L167,318.18l11.38-18.43,24.24,26.06L214,307.38l24.25,26.07L249.66,315l24.24,26.06,11.38-18.43,24.24,26.06Z"/><path class="cls-2" d="M184.64,84.83a8.18,8.18,0,1,1-8.18-8.18A8.18,8.18,0,0,1,184.64,84.83Z"/><path class="cls-5" d="M481.39,587.78l14,.9-1.88,29.08,27.07.07,1.77-27.41,14,.9-1.71,26.54,27.07.07,1.6-24.86,14,.9-1.55,24,27.07.06,1.45-22.32,14,.9-1.38,21.46,33.27.08s-28-50-120.92-60.19-89.14,59.67-89.14,59.67l39.52.1Z"/></g></g></svg>