<svg id="Capa_1" enable-background="new 0 0 512 512" height="512" viewBox="0 0 512 512" width="512" xmlns="http://www.w3.org/2000/svg" xmlns:xlink="http://www.w3.org/1999/xlink"><radialGradient id="SVGID_1_" cx="145.014" cy="51.749" gradientTransform="matrix(-.538 -.843 .578 -.369 193.124 193.069)" gradientUnits="userSpaceOnUse" r="38.413"><stop offset="0" stop-color="#c6c1c8"/><stop offset=".4906" stop-color="#c8c3ca"/><stop offset=".7484" stop-color="#cfcbd1"/><stop offset=".9519" stop-color="#dbd9de"/><stop offset="1" stop-color="#dfdde2"/></radialGradient><radialGradient id="SVGID_2_" cx="141.958" cy="46.176" gradientTransform="matrix(-.705 -.71 .708 -.703 209.265 179.393)" gradientUnits="userSpaceOnUse" r="37.848"><stop offset="0" stop-color="#8b818e"/><stop offset=".2114" stop-color="#837985"/><stop offset=".5515" stop-color="#6c646e"/><stop offset=".9757" stop-color="#474247"/><stop offset="1" stop-color="#454045"/></radialGradient><radialGradient id="SVGID_3_" cx="313.241" cy="2182.417" gradientTransform="matrix(.931 0 0 .112 -31.713 241.019)" gradientUnits="userSpaceOnUse" r="273.211"><stop offset="0" stop-color="#c6c1c8"/><stop offset=".2432" stop-color="#dddbdf"/><stop offset=".4962" stop-color="#f1f1f4"/><stop offset=".6632" stop-color="#fafafb"/><stop offset=".8642" stop-color="#fff"/></radialGradient><linearGradient id="lg1"><stop offset="0" stop-color="#fff"/><stop offset=".9902" stop-color="#dfdde2"/></linearGradient><radialGradient id="SVGID_4_" cx="87.074" cy="60.494" gradientTransform="matrix(1 0 0 .685 0 19.051)" gradientUnits="userSpaceOnUse" r="60.79" xlink:href="#lg1"/><radialGradient id="SVGID_5_" cx="167.141" cy="107.834" gradientTransform="matrix(-.204 -.979 .669 -.139 129.088 286.496)" gradientUnits="userSpaceOnUse" r="89.141"><stop offset="0" stop-color="#544f57"/><stop offset=".2057" stop-color="#5d5860"/><stop offset=".5481" stop-color="#77707a"/><stop offset=".9828" stop-color="#a096a3"/><stop offset="1" stop-color="#a298a5"/></radialGradient><radialGradient id="SVGID_6_" cx="74.729" cy="20.605" gradientTransform="matrix(1 0 0 .685 0 6.489)" gradientUnits="userSpaceOnUse" r="93.506" xlink:href="#lg1"/><radialGradient id="SVGID_7_" cx="32.197" cy="76.353" gradientTransform="matrix(-.705 -.71 .708 -.703 .792 152.905)" gradientUnits="userSpaceOnUse" r="77.564"><stop offset="0" stop-color="#e7ecf1"/><stop offset=".5673" stop-color="#b1adb7"/><stop offset="1" stop-color="#8b818e"/></radialGradient><linearGradient id="SVGID_8_" gradientTransform="matrix(.889 0 0 .866 111.417 -303.21)" gradientUnits="userSpaceOnUse" x1="314.497" x2="237.362" y1="830.131" y2="800.16"><stop offset=".3708" stop-color="#afaab4"/><stop offset=".45" stop-color="#aba6b0"/><stop offset=".5298" stop-color="#a19aa5"/><stop offset=".6097" stop-color="#8f8692"/><stop offset=".625" stop-color="#8b818e"/></linearGradient><linearGradient id="SVGID_9_" gradientUnits="userSpaceOnUse" x1="153.274" x2="183.977" y1="436.739" y2="383.072"><stop offset=".6245" stop-color="#afaab4"/><stop offset=".7359" stop-color="#aaa5af"/><stop offset=".8708" stop-color="#9d96a1"/><stop offset="1" stop-color="#8b818e"/></linearGradient><radialGradient id="SVGID_10_" cx="169.72" cy="302.65" gradientTransform="matrix(.575 -.818 .645 .453 -123.154 304.327)" gradientUnits="userSpaceOnUse" r="96.468"><stop offset=".1922" stop-color="#8b818e"/><stop offset=".2156" stop-color="#8d8390"/><stop offset=".489" stop-color="#a099a4"/><stop offset=".7542" stop-color="#aba6b0"/><stop offset="1" stop-color="#afaab4"/></radialGradient><radialGradient id="SVGID_11_" cx="330.436" cy="281.208" gradientTransform="matrix(.86 .511 -.403 .678 159.732 -78.284)" gradientUnits="userSpaceOnUse" r="86.728"><stop offset=".3347" stop-color="#8b818e"/><stop offset=".6667" stop-color="#a099a5"/><stop offset=".9552" stop-color="#afaab4"/></radialGradient><linearGradient id="lg2"><stop offset="0" stop-color="#544f57"/><stop offset=".5487" stop-color="#69636c"/><stop offset="1" stop-color="#756e78"/></linearGradient><radialGradient id="SVGID_12_" cx="1584.301" cy="482.254" gradientTransform="matrix(-.872 -.403 -.323 .771 1697.725 749.183)" gradientUnits="userSpaceOnUse" r="29.129" xlink:href="#lg2"/><radialGradient id="SVGID_13_" cx="1527.873" cy="482.254" gradientTransform="matrix(-.872 -.403 -.323 .771 1702.284 726.439)" gradientUnits="userSpaceOnUse" r="29.129" xlink:href="#lg2"/><linearGradient id="lg3"><stop offset="0" stop-color="#dfdde2"/><stop offset=".2425" stop-color="#cfcbd2"/><stop offset=".7242" stop-color="#a59ea8"/><stop offset="1" stop-color="#8b818e"/></linearGradient><radialGradient id="SVGID_14_" cx="180.768" cy="465.817" gradientTransform="matrix(-.862 -.506 .312 -.532 191.124 805.175)" gradientUnits="userSpaceOnUse" r="27.125" xlink:href="#lg3"/><radialGradient id="SVGID_15_" cx="1360.736" cy="482.254" gradientTransform="matrix(-.872 -.403 -.323 .771 1715.788 659.072)" gradientUnits="userSpaceOnUse" r="30.849" xlink:href="#lg2"/><radialGradient id="SVGID_16_" cx="1304.309" cy="482.254" gradientTransform="matrix(-.872 -.403 -.323 .771 1720.347 636.328)" gradientUnits="userSpaceOnUse" r="30.849" xlink:href="#lg2"/><radialGradient id="SVGID_17_" cx="391.925" cy="465.817" gradientTransform="matrix(-.862 -.506 .312 -.532 584.368 912.097)" gradientUnits="userSpaceOnUse" r="27.125" xlink:href="#lg3"/><radialGradient id="SVGID_18_" cx="48.465" cy="1590.794" gradientTransform="matrix(.631 0 0 .554 388.105 -629.984)" gradientUnits="userSpaceOnUse" r="172.045"><stop offset=".2344" stop-color="#a298a5"/><stop offset=".4932" stop-color="#b4acb7"/><stop offset="1" stop-color="#dfdde2"/></radialGradient><radialGradient id="SVGID_19_" cx="261.382" cy="142.574" gradientTransform="matrix(1 0 0 .84 0 22.869)" gradientUnits="userSpaceOnUse" r="240.071"><stop offset="0" stop-color="#f1f1f4"/><stop offset=".3027" stop-color="#dedce1"/><stop offset=".7527" stop-color="#c6c1c8"/><stop offset="1" stop-color="#a298a5"/></radialGradient><radialGradient id="SVGID_20_" cx="252.015" cy="161.489" gradientTransform="matrix(-.862 -.506 .312 -.532 418.883 375.014)" gradientUnits="userSpaceOnUse" r="175.677"><stop offset="0" stop-color="#c6c1c8"/><stop offset=".2648" stop-color="#b5afb7"/><stop offset=".7909" stop-color="#88828b"/><stop offset="1" stop-color="#756e78"/></radialGradient><radialGradient id="SVGID_21_" cx="128.732" cy="207.058" gradientTransform="matrix(1 0 0 .84 0 33.213)" gradientUnits="userSpaceOnUse" r="230.066"><stop offset="0" stop-color="#fff"/><stop offset=".3264" stop-color="#dfdce0"/><stop offset=".6229" stop-color="#c6c1c8"/><stop offset=".7546" stop-color="#c3bec5"/><stop offset=".8588" stop-color="#bbb4bd"/><stop offset=".9534" stop-color="#aca3af"/><stop offset="1" stop-color="#a298a5"/></radialGradient><radialGradient id="SVGID_22_" cx="112.944" cy="196.643" gradientTransform="matrix(-.57 -.822 .507 -.352 77.616 358.591)" gradientUnits="userSpaceOnUse" r="119.305"><stop offset="0" stop-color="#f1f1f4"/><stop offset=".2495" stop-color="#e1dfe4"/><stop offset=".7451" stop-color="#b9b2bc"/><stop offset="1" stop-color="#a298a5"/></radialGradient><radialGradient id="SVGID_23_" cx="138.979" cy="128.23" gradientTransform="matrix(1 0 0 .84 0 20.569)" gradientUnits="userSpaceOnUse" r="114.196"><stop offset="0" stop-color="#a298a5"/><stop offset=".4356" stop-color="#c6c1c8"/><stop offset=".7202" stop-color="#d5d1d7"/><stop offset="1" stop-color="#dfdde2"/></radialGradient><linearGradient id="SVGID_24_" gradientUnits="userSpaceOnUse" x1="207.019" x2="237.722" y1="436.739" y2="383.072"><stop offset=".6245" stop-color="#c6c1c8"/><stop offset=".7807" stop-color="#c1bcc4"/><stop offset=".9702" stop-color="#b2adb7"/><stop offset="1" stop-color="#afaab4"/></linearGradient><linearGradient id="SVGID_25_" gradientUnits="userSpaceOnUse" x1="205.27" x2="205.27" y1="472.233" y2="388.111"><stop offset=".2231" stop-color="#dfdde2"/><stop offset=".5595" stop-color="#d5d2d8"/><stop offset=".9331" stop-color="#c6c1c8"/></linearGradient><linearGradient id="SVGID_26_" gradientTransform="matrix(.889 0 0 .866 111.417 -303.21)" gradientUnits="userSpaceOnUse" x1="381.614" x2="282.99" y1="851.303" y2="744.754"><stop offset=".2188" stop-color="#afaab4"/><stop offset="1" stop-color="#afaab4"/></linearGradient><linearGradient id="SVGID_27_" gradientUnits="userSpaceOnUse" x1="415.979" x2="415.979" y1="363.613" y2="465.413"><stop offset="0" stop-color="#8b818e"/><stop offset=".1486" stop-color="#9e96a2"/><stop offset=".3028" stop-color="#aba5af"/><stop offset=".4304" stop-color="#afaab4"/><stop offset=".9777" stop-color="#c6c1c8"/></linearGradient><radialGradient id="SVGID_28_" cx="194.433" cy="243.171" gradientTransform="matrix(.575 -.818 .645 .453 -74.261 292.035)" gradientUnits="userSpaceOnUse" r="238.128"><stop offset="0" stop-color="#f1f1f4"/><stop offset=".505" stop-color="#c6c1c8"/><stop offset=".8265" stop-color="#b8b3bc"/><stop offset="1" stop-color="#afaab4"/></radialGradient><linearGradient id="SVGID_29_" gradientUnits="userSpaceOnUse" x1="138.149" x2="138.149" y1="268.908" y2="268.908"><stop offset=".0457" stop-color="#ffdace"/><stop offset=".0963" stop-color="#facab7"/><stop offset=".2134" stop-color="#f0a987"/><stop offset=".3168" stop-color="#e89164"/><stop offset=".4013" stop-color="#e4824f"/><stop offset=".4565" stop-color="#e27d47"/><stop offset=".7264" stop-color="#e06b3c"/><stop offset=".9955" stop-color="#dd542e"/></linearGradient><radialGradient id="SVGID_30_" cx="199.99" cy="294.741" gradientTransform="matrix(.962 .273 -.28 .987 90.25 -50.684)" gradientUnits="userSpaceOnUse" r="107.65"><stop offset="0" stop-color="#fff"/><stop offset=".1107" stop-color="#f5f5f6"/><stop offset=".4101" stop-color="#dfdde2"/><stop offset=".6554" stop-color="#cecbd1"/><stop offset="1" stop-color="#afaab4"/></radialGradient><radialGradient id="SVGID_31_" cx="315.306" cy="230.652" gradientTransform="matrix(.912 -.411 .324 .719 -46.905 194.44)" gradientUnits="userSpaceOnUse" r="204.526"><stop offset="0" stop-color="#dfdde2"/><stop offset=".505" stop-color="#c6c1c8"/><stop offset=".8265" stop-color="#b8b3bc"/><stop offset="1" stop-color="#afaab4"/></radialGradient><radialGradient id="SVGID_32_" cx="344.122" cy="238.545" gradientTransform="matrix(.962 .273 -.28 .987 79.985 -90.846)" gradientUnits="userSpaceOnUse" r="157.534"><stop offset="0" stop-color="#f1f1f4"/><stop offset=".3656" stop-color="#c5c2ca"/><stop offset=".5893" stop-color="#afaab4"/><stop offset="1" stop-color="#a298a5"/></radialGradient><radialGradient id="SVGID_33_" cx="165.941" cy="51.749" gradientTransform="matrix(-.538 -.843 .578 -.369 225.306 210.711)" gradientUnits="userSpaceOnUse" r="38.413"><stop offset="0" stop-color="#c6c1c8"/><stop offset=".2484" stop-color="#d5d2d8"/><stop offset=".4726" stop-color="#dfdde2"/><stop offset=".7574" stop-color="#e1dfe4"/><stop offset=".9071" stop-color="#e8e7eb"/><stop offset="1" stop-color="#f1f1f4"/></radialGradient><linearGradient id="lg4"><stop offset="0" stop-color="#a298a5"/><stop offset=".4261" stop-color="#a096a3"/><stop offset=".6067" stop-color="#998f9c"/><stop offset=".7408" stop-color="#8c848f"/><stop offset=".852" stop-color="#7b737e"/><stop offset=".9479" stop-color="#645e67"/><stop offset="1" stop-color="#544f57"/></linearGradient><radialGradient id="SVGID_34_" cx="162.885" cy="46.176" gradientTransform="matrix(-.705 -.71 .708 -.703 244.936 194.244)" gradientUnits="userSpaceOnUse" r="37.848" xlink:href="#lg4"/><radialGradient id="SVGID_35_" cx="147.274" cy="234.977" gradientTransform="matrix(.836 -.549 .376 .573 -65.484 43.311)" gradientUnits="userSpaceOnUse" r="80.043"><stop offset="0" stop-color="#dfdde2"/><stop offset=".4906" stop-color="#dddbe0"/><stop offset=".7484" stop-color="#d6d3d9"/><stop offset=".9519" stop-color="#cac5cc"/><stop offset="1" stop-color="#c6c1c8"/></radialGradient><radialGradient id="SVGID_36_" cx="134.749" cy="257.447" gradientTransform="matrix(-.546 -.838 .837 -.545 -12.66 369.693)" gradientUnits="userSpaceOnUse" r="65.586" xlink:href="#lg4"/><g><path d="m147.067 52.488h-18.016l-3-51.485c0-.847.986-1.312 1.639-.773l2.428 2.004c10.733 8.856 16.948 22.044 16.948 35.959v14.295z" fill="url(#SVGID_1_)"/><path d="m126.051 1.004v44.227h11.088v-14.295c0-11.132-3.978-21.798-11.064-30.154-.016.071-.024.145-.024.222z" fill="url(#SVGID_2_)"/><path d="m256 512c123.539 0 223.688-12.27 223.688-27.405h-447.376c0 15.135 100.149 27.405 223.688 27.405z" fill="url(#SVGID_3_)"/><path d="m83.92 66.77-19.304 6.905 70.256 7.005 5.528-20.915z" fill="url(#SVGID_4_)"/><path d="m213.475 186.549 3.848-24.897c3.056-19.771 2.201-39.949-2.515-59.391l-7.906-32.594c-3.413-14.07-12.045-26.318-24.148-34.263-9.786-6.424-21.236-9.846-32.942-9.846h-31.11l10.841 40.459z" fill="url(#SVGID_5_)"/><path d="m158.041 44.739h-36.276l.001.003c-3.715.042-7.512.68-11.278 1.995-9.362 3.268-17.634 9.068-23.898 16.755l-2.67 3.278h56.48z" fill="url(#SVGID_6_)"/><path d="m64.616 73.675-2.3.823c-16.601 5.937-27.67 21.677-27.642 39.308.018 11.85 9.536 21.136 20.872 21.425l.001.007h30.029l49.296-61.563z" fill="url(#SVGID_7_)"/><path d="m356.254 465.91h20.52c7.172 0 12.986-5.814 12.986-12.986v-101.685l-24.606-8.128-8.901 27.474v95.325z" fill="url(#SVGID_8_)"/><path d="m145.096 465.91h17.966c7.172 0 12.986-5.814 12.986-12.986v-81.482l-30.953 20.142v74.326z" fill="url(#SVGID_9_)"/><path d="m217.463 268.155c0-20.321-16.752-36.73-37.2-36.169-19.708.541-35.166 17.206-35.166 36.922v122.674c12.236 0 23.506-6.651 29.419-17.364l1.533-2.778 24.344-69.389c.839-2.391 2.238-4.572 4.176-6.204 7.884-6.637 12.894-16.579 12.894-27.692z" fill="url(#SVGID_10_)"/><path d="m381.163 285.175c-.608-4.673.16-9.415 2.18-13.672 3.094-6.519 4.785-13.833 4.684-21.552-.337-25.793-21.134-47.149-46.911-48.127-27.825-1.056-50.715 21.189-50.715 48.779 0 9.899 2.947 19.111 8.011 26.804l57.841 93.178c10.64 0 20.756-4.621 27.721-12.664l5.786-6.681z" fill="url(#SVGID_11_)"/><path d="m130.86 484.595h32.809v-18.685h-18.574c-2.839 0-5.439 1.587-6.738 4.111z" fill="url(#SVGID_12_)"/><path d="m184.605 484.595h32.809v-18.685h-18.574c-2.839 0-5.439 1.587-6.738 4.111z" fill="url(#SVGID_13_)"/><path d="m209.302 465.91h-10.461c-2.839 0-5.439 1.587-6.738 4.111l-7.498 14.574h10.461l7.498-14.574c1.299-2.525 3.899-4.111 6.738-4.111z" fill="url(#SVGID_14_)"/><path d="m342.018 484.595h34.756v-18.685h-20.521c-2.839 0-5.439 1.587-6.738 4.111z" fill="url(#SVGID_15_)"/><path d="m395.763 484.595h34.756v-18.685h-20.52c-2.839 0-5.439 1.587-6.738 4.111z" fill="url(#SVGID_16_)"/><path d="m420.46 465.91h-10.461c-2.839 0-5.439 1.587-6.738 4.111l-7.498 14.574h10.461l7.498-14.574c1.298-2.525 3.899-4.111 6.738-4.111z" fill="url(#SVGID_17_)"/><path d="m458.163 383.216h-2.41c-5.656 0-10.241-4.585-10.241-10.241v-158.44c7.839 4.618 12.65 13.038 12.65 22.136v146.545z" fill="url(#SVGID_18_)"/><path d="m454.862 245.345c0-32.58-26.411-58.991-58.991-58.991h-138.808c-20.958 0-39.029-14.731-43.254-35.258l-14.776-71.79c-4.004-19.454-21.13-33.414-40.992-33.414l-21.501 4.421-8.942 53.913 7.303 113.784c0 59.908 41.263 109.195 101.171 109.195h48.336c28.471 0 56.755-4.598 83.759-13.617l27.704-9.252c32.58 0 58.991-26.411 58.991-58.991z" fill="url(#SVGID_19_)"/><path d="m444.19 211.497-52.281 18.904c-20.671 7.475-34.56 27.266-34.56 49.248v37.296c-3.443.988-6.904 1.906-10.38 2.752v-40.048c0-26.339 16.641-50.052 41.41-59.01l48.623-17.581c2.649 2.578 5.058 5.404 7.188 8.439zm-234.88-82.262-78.948 18.044-2.763 11.28 83.805-19.154zm16.77 44.426c-2.659-2.617-4.994-5.576-6.932-8.818l-88.652 25.273-2.898 11.62zm49.796 12.693-17.969 45.434c-10.571 26.727-15.931 54.852-15.931 83.594v11.824h10.38v-11.824c0-27.429 5.115-54.269 15.203-79.777l19.479-49.25h-11.162zm-31.599-1.886c-3.924-1.187-7.633-2.908-11.032-5.087l-80.028 53.886s-19.559 21.48-18.262 24.812zm79.794 69.408c0-16.999 10.076-32.354 25.67-39.119l61.07-26.494c-4.771-1.245-9.778-1.909-14.939-1.909h-6.744l-43.518 18.879c-19.39 8.413-31.919 27.506-31.919 48.643v71.702c3.469-.387 6.93-.842 10.38-1.365zm-28.478 73.091v-77.012c0-21.455 8.356-41.627 23.526-56.799l6.803-6.803h-14.674c-16.795 17.07-26.036 39.626-26.036 63.602v77.247c3.464-.01 6.925-.088 10.381-.235zm-30.321-140.613h-8.208c-1.625 0-3.232-.089-4.817-.262l-77.782 98.416-3.411 21.058z" fill="url(#SVGID_20_)"/><path d="m152.252 218.731v-24.023l-3.806-4.976 3.806-5.818v-30.99l-3.569-2.507 3.569-8.141v-38.05l8.942-53.913 10.458-2.15c-4.287-1.475-8.871-2.27-13.61-2.27l-21.501 4.421-8.942 53.913v43.685l3.501 4.514-3.501 6.134v32.383l3.955 3.542-3.955 7.252v16.994c0 10.089 1.377 19.857 3.954 29.124l3.341 3.184.061 7.04c6.129 15.738 15.825 29.692 28.096 40.868 0 0 4.732-1.036 6.424.329.846.683 1.094 5.925 1.094 5.925 18.201 13.809 40.895 22.003 65.503 22.003h24.654c-31.367 0-59.625-13.314-79.43-34.599 0 0-3.811.935-5.246-.814-.806-.982-1.585-7.284-1.585-7.284-8.956-11.728-15.575-25.336-19.162-40.129 0 0-2.648-.316-3.05-2.607-.25-1.429.966-8.505.966-8.505-.638-4.753-.967-9.606-.967-14.535z" fill="url(#SVGID_21_)"/><path d="m152.252 194.708-24.654 7.028v-10.794l24.654-7.028zm-17.296 63.371 20.346-13.7c-.881-3.636-1.58-7.343-2.085-11.111l-21.665 14.588c.969 3.481 2.107 6.892 3.404 10.223zm17.296-115.802-24.654 5.635v10.648l24.654-5.635zm89.724 183.313v1.615h10.38v-.318c-3.509-.268-6.972-.703-10.38-1.297zm-78.924-26.642c2.558 2.33 5.228 4.539 8.001 6.619l10.243-12.96c-2.405-2.585-4.685-5.287-6.832-8.098z" fill="url(#SVGID_22_)"/><path d="m162.224 129.772c18.62-3.283 32.076-19.635 31.714-38.538l-.103-5.385c-.459-23.994-24.229-40.533-46.887-32.623-4.202 1.467-8.185 3.444-11.865 5.873l-7.485 45.128v31.651z" fill="url(#SVGID_23_)"/><path d="m198.841 465.91h17.966c7.172 0 12.986-5.814 12.986-12.986v-81.482l-30.953 20.142v74.326z" fill="url(#SVGID_24_)"/><path d="m211.699 383.216-12.858 8.366v74.328h12.858z" fill="url(#SVGID_25_)"/><path d="m409.999 465.91h20.52c7.172 0 12.987-5.814 12.987-12.986v-101.685l-24.606-8.128-8.901 27.474z" fill="url(#SVGID_26_)"/><path d="m421.959 344.121-3.059-1.01-8.901 27.474v95.325h11.688v-120.769z" fill="url(#SVGID_27_)"/><path d="m271.208 268.155c0-20.321-16.752-36.73-37.2-36.169-19.708.541-35.166 17.206-35.166 36.922v122.674c12.236 0 23.506-6.651 29.419-17.364l1.533-2.778 24.344-69.389c.839-2.391 2.238-4.572 4.176-6.204 7.884-6.637 12.894-16.579 12.894-27.692z" fill="url(#SVGID_28_)"/><path d="" fill="url(#SVGID_29_)"/><path d="m211.581 268.87c0-17.906 12.763-33.25 29.841-36.333-2.337-.417-4.752-.61-7.222-.555-19.779.441-35.359 17.105-35.359 36.888v122.713h.133c7.009-.028 12.607-5.88 12.607-12.889z" fill="url(#SVGID_30_)"/><path d="m434.908 285.175c-.608-4.673.16-9.415 2.18-13.672 3.094-6.519 4.785-13.833 4.684-21.552-.337-25.793-21.134-47.149-46.911-48.127-27.825-1.056-50.715 21.189-50.715 48.779 0 9.899 2.947 19.111 8.011 26.804l57.841 93.178c10.64 0 20.756-4.621 27.721-12.664l5.786-6.681z" fill="url(#SVGID_31_)"/><path d="m365.051 277.407c-5.064-7.694-8.011-16.905-8.011-26.804 0-24.771 18.45-45.232 42.358-48.391-1.493-.198-3.006-.329-4.537-.387-27.825-1.056-50.715 21.189-50.715 48.779 0 9.899 2.947 19.111 8.011 26.804l57.841 93.178c4.023 0 7.971-.661 11.703-1.918z" fill="url(#SVGID_32_)"/><path d="m167.994 52.488h-17.927l-3.089-51.485c0-.847.986-1.312 1.639-.773l2.428 2.004c10.733 8.856 16.948 22.044 16.948 35.959v14.295z" fill="url(#SVGID_33_)"/><path d="m146.978 1.004v44.227h11.088v-14.295c0-11.132-3.978-21.798-11.064-30.154-.016.071-.024.145-.024.222z" fill="url(#SVGID_34_)"/><path d="m187.45 84.746-.103-5.385c-.459-23.994-24.229-40.533-46.887-32.623-9.362 3.268-17.634 9.068-23.897 16.755l-2.671 3.278-19.304 6.904-6.052 22.635c-1.651 6.177 1.61 12.607 7.568 14.924 7.506 2.919 10.729 11.777 6.853 18.837l-1.532 2.79 54.311-9.576c18.619-3.284 32.076-19.636 31.714-38.539z" fill="url(#SVGID_35_)"/><path d="m96.104 111.234c-5.959-2.317-9.22-8.747-7.568-14.924l6.051-22.635-2.3.823c-16.601 5.937-27.67 21.677-27.642 39.308.021 13.329 12.06 23.415 25.186 21.1l11.594-2.044 1.532-2.79c3.876-7.061.653-15.919-6.853-18.838z" fill="url(#SVGID_36_)"/></g></svg>